<svg width="135" height="135" viewBox="0 0 135 135" fill="none" xmlns="http://www.w3.org/2000/svg">
<path d="M134.998 130.5H0V135H134.998V130.5Z" fill="#00DDB6"/>
<path d="M130.262 19.2458L121.262 1.24608C120.707 0.134028 119.356 -0.317653 118.244 0.237246C118.244 0.237527 118.243 0.237808 118.243 0.238089L100.243 9.23797C99.1308 9.79343 98.6794 11.1454 99.2349 12.2574C99.7904 13.3695 101.142 13.8209 102.254 13.2654L115.291 6.75175L111.733 16.9081C96.0982 61.4373 55.8268 92.677 8.80859 96.7506L9.19109 101.251C57.9809 97.0239 99.7676 64.6027 115.984 18.3931L119.615 8.01624L126.235 21.2573C126.79 22.3694 128.142 22.8208 129.254 22.2653C130.366 21.7098 130.817 20.3582 130.262 19.2458Z" fill="#00DDB6"/>
<path d="M27.0017 108H11.2519C10.0094 108 9.00195 109.008 9.00195 110.25V123.75C9.00195 124.993 10.0094 126 11.2519 126H27.0017C28.2443 126 29.2517 124.993 29.2517 123.75V110.25C29.2517 109.008 28.2443 108 27.0017 108ZM24.7517 121.5H13.5019V112.5H24.7517V121.5Z" fill="#00DDB6"/>
<path d="M51.7498 101.25H36C34.7574 101.25 33.75 102.257 33.75 103.5V123.75C33.75 124.992 34.7574 126 36 126H51.7498C52.9923 126 53.9997 124.992 53.9997 123.75V103.5C53.9997 102.257 52.9923 101.25 51.7498 101.25ZM49.4998 121.5H38.2499V105.75H49.4998V121.5Z" fill="#00DDB6"/>
<path d="M76.4978 90.0005H60.748C59.5055 90.0005 58.498 91.0079 58.498 92.2505V123.75C58.498 124.993 59.5055 126 60.748 126H76.4978C77.7404 126 78.7478 124.993 78.7478 123.75V92.2505C78.7478 91.0079 77.7404 90.0005 76.4978 90.0005ZM74.2478 121.5H62.998V94.5004H74.2478V121.5Z" fill="#00DDB6"/>
<path d="M101.25 74.2505H85.5C84.2574 74.2505 83.25 75.2579 83.25 76.5005V123.75C83.25 124.992 84.2574 126 85.5 126H101.25C102.492 126 103.5 124.992 103.5 123.75V76.5005C103.5 75.2579 102.492 74.2505 101.25 74.2505ZM98.9998 121.5H87.7499V78.7504H98.9998V121.5Z" fill="#00DDB6"/>
<path d="M125.998 42.7505H110.248C109.005 42.7505 107.998 43.7579 107.998 45.0005V123.749C107.998 124.992 109.005 125.999 110.248 125.999H125.998C127.24 125.999 128.248 124.992 128.248 123.749V45.0005C128.248 43.7579 127.24 42.7505 125.998 42.7505ZM123.748 121.499H112.498V47.2504H123.748V121.499Z" fill="#00DDB6"/>
</svg>
