<svg width="277" height="278" viewBox="0 0 277 278" fill="none" xmlns="http://www.w3.org/2000/svg">
<path d="M142.421 41.2771C110.816 45.9769 110.212 64.1795 85.8742 77.0042C72.0083 84.3139 52.3471 83.5523 44.2045 100.393C38.0828 113.061 40.9733 129.462 48.3324 140.974C51.7706 146.351 59.3718 150.273 62.314 155.668C68.3812 166.803 65.2151 177.571 66.008 190.088C66.928 204.517 70.9424 218.13 85.951 225.895C100.589 233.473 117.211 228.02 132.781 231.727C149.08 235.609 157.409 246.36 175.266 237.938C189.468 231.236 192.14 216.039 201.699 206.068C226.127 180.576 252.003 173.883 234.926 134.267C227.781 117.695 214.354 104.318 208.791 87.7324C198.887 58.2453 184.35 35.0424 142.421 41.2771Z" fill="url(#paint0_linear)"/>
<path d="M108 141C108 139.895 108.895 139 110 139H126C127.105 139 128 139.895 128 141V179H108V141Z" fill="#F2FDFB"/>
<path d="M138 101C138 99.8954 138.895 99 140 99H156C157.105 99 158 99.8954 158 101V179H138V101Z" fill="#F2FDFB"/>
<path d="M168 125C168 123.895 168.895 123 170 123H186C187.105 123 188 123.895 188 125V179H168V125Z" fill="#F2FDFB"/>
<path fill-rule="evenodd" clip-rule="evenodd" d="M127 176C127 177.105 126.105 178 125 178H105C103.895 178 103 177.105 103 176V136C103 133.791 104.791 132 107 132H123C125.209 132 127 133.791 127 136V176ZM107 134C105.895 134 105 134.895 105 136V176H125V136C125 134.895 124.105 134 123 134H107Z" fill="black"/>
<path fill-rule="evenodd" clip-rule="evenodd" d="M109 155C109 154.448 109.448 154 110 154H120C120.552 154 121 154.448 121 155C121 155.552 120.552 156 120 156H110C109.448 156 109 155.552 109 155Z" fill="black"/>
<path fill-rule="evenodd" clip-rule="evenodd" d="M109 163C109 162.448 109.448 162 110 162H120C120.552 162 121 162.448 121 163C121 163.552 120.552 164 120 164H110C109.448 164 109 163.552 109 163Z" fill="black"/>
<path fill-rule="evenodd" clip-rule="evenodd" d="M109 171C109 170.448 109.448 170 110 170H120C120.552 170 121 170.448 121 171C121 171.552 120.552 172 120 172H110C109.448 172 109 171.552 109 171Z" fill="black"/>
<path fill-rule="evenodd" clip-rule="evenodd" d="M157 176C157 177.105 156.105 178 155 178H135C133.895 178 133 177.105 133 176V104C133 101.791 134.791 100 137 100H153C155.209 100 157 101.791 157 104V176ZM137 102C135.895 102 135 102.895 135 104V176H155V104C155 102.895 154.105 102 153 102H137Z" fill="black"/>
<path fill-rule="evenodd" clip-rule="evenodd" d="M187 176C187 177.105 186.105 178 185 178H165C163.895 178 163 177.105 163 176V120C163 117.791 164.791 116 167 116H183C185.209 116 187 117.791 187 120V176ZM167 118C165.895 118 165 118.895 165 120V176H185V120C185 118.895 184.105 118 183 118H167Z" fill="black"/>
<path fill-rule="evenodd" clip-rule="evenodd" d="M139 139C139 138.448 139.448 138 140 138H150C150.552 138 151 138.448 151 139C151 139.552 150.552 140 150 140H140C139.448 140 139 139.552 139 139Z" fill="black"/>
<path fill-rule="evenodd" clip-rule="evenodd" d="M169 147C169 146.448 169.448 146 170 146H180C180.552 146 181 146.448 181 147C181 147.552 180.552 148 180 148H170C169.448 148 169 147.552 169 147Z" fill="black"/>
<path fill-rule="evenodd" clip-rule="evenodd" d="M169 155C169 154.448 169.448 154 170 154H180C180.552 154 181 154.448 181 155C181 155.552 180.552 156 180 156H170C169.448 156 169 155.552 169 155Z" fill="black"/>
<path fill-rule="evenodd" clip-rule="evenodd" d="M169 163C169 162.448 169.448 162 170 162H180C180.552 162 181 162.448 181 163C181 163.552 180.552 164 180 164H170C169.448 164 169 163.552 169 163Z" fill="black"/>
<path fill-rule="evenodd" clip-rule="evenodd" d="M169 171C169 170.448 169.448 170 170 170H180C180.552 170 181 170.448 181 171C181 171.552 180.552 172 180 172H170C169.448 172 169 171.552 169 171Z" fill="black"/>
<path fill-rule="evenodd" clip-rule="evenodd" d="M139 147C139 146.448 139.448 146 140 146H150C150.552 146 151 146.448 151 147C151 147.552 150.552 148 150 148H140C139.448 148 139 147.552 139 147Z" fill="black"/>
<path fill-rule="evenodd" clip-rule="evenodd" d="M139 155C139 154.448 139.448 154 140 154H150C150.552 154 151 154.448 151 155C151 155.552 150.552 156 150 156H140C139.448 156 139 155.552 139 155Z" fill="black"/>
<path fill-rule="evenodd" clip-rule="evenodd" d="M139 163C139 162.448 139.448 162 140 162H150C150.552 162 151 162.448 151 163C151 163.552 150.552 164 150 164H140C139.448 164 139 163.552 139 163Z" fill="black"/>
<path fill-rule="evenodd" clip-rule="evenodd" d="M139 171C139 170.448 139.448 170 140 170H150C150.552 170 151 170.448 151 171C151 171.552 150.552 172 150 172H140C139.448 172 139 171.552 139 171Z" fill="black"/>
<circle cx="213.5" cy="163.5" r="10.5" fill="#00DDB6"/>
<defs>
<linearGradient id="paint0_linear" x1="237.275" y1="132.996" x2="42.6537" y2="151.897" gradientUnits="userSpaceOnUse">
<stop stop-color="#E6FFFA"/>
<stop offset="1" stop-color="#0DEAC3" stop-opacity="0.62"/>
</linearGradient>
</defs>
</svg>
