<svg width="457" height="460" viewBox="0 0 457 460" fill="none" xmlns="http://www.w3.org/2000/svg">
<path d="M198.715 56.661C198.715 58.5132 197.208 60.0132 195.356 60.0132C193.504 60.0132 192.004 58.5132 192.004 56.661C192.004 54.8087 193.504 53.3086 195.356 53.3086C197.208 53.3086 198.715 54.8087 198.715 56.661Z" fill="#00DDB6"/>
<path d="M227.449 56.661C227.449 58.5132 225.949 60.0132 224.096 60.0132C222.244 60.0132 220.744 58.5132 220.744 56.661C220.744 54.8087 222.244 53.3086 224.096 53.3086C225.949 53.3086 227.449 54.8087 227.449 56.661Z" fill="#00DDB6"/>
<path d="M256.195 56.661C256.195 58.5132 254.695 60.0132 252.843 60.0132C250.99 60.0132 249.49 58.5132 249.49 56.661C249.49 54.8087 250.99 53.3086 252.843 53.3086C254.695 53.3086 256.195 54.8087 256.195 56.661Z" fill="#00DDB6"/>
<path d="M284.937 56.661C284.937 58.5132 283.437 60.0132 281.585 60.0132C279.732 60.0132 278.232 58.5132 278.232 56.661C278.232 54.8087 279.732 53.3086 281.585 53.3086C283.437 53.3086 284.937 54.8087 284.937 56.661Z" fill="#00DDB6"/>
<path d="M313.677 56.661C313.677 58.5132 312.177 60.0132 310.325 60.0132C308.473 60.0132 306.973 58.5132 306.973 56.661C306.973 54.8087 308.473 53.3086 310.325 53.3086C312.177 53.3086 313.677 54.8087 313.677 56.661Z" fill="#00DDB6"/>
<path d="M342.422 56.661C342.422 58.5132 340.922 60.0132 339.07 60.0132C337.218 60.0132 335.711 58.5132 335.711 56.661C335.711 54.8087 337.218 53.3086 339.07 53.3086C340.922 53.3086 342.422 54.8087 342.422 56.661Z" fill="#00DDB6"/>
<path d="M371.164 56.661C371.164 58.5132 369.658 60.0132 367.805 60.0132C365.953 60.0132 364.453 58.5132 364.453 56.661C364.453 54.8087 365.953 53.3086 367.805 53.3086C369.658 53.3086 371.164 54.8087 371.164 56.661Z" fill="#00DDB6"/>
<path d="M198.715 85.3882C198.715 87.2405 197.208 88.7471 195.356 88.7471C193.504 88.7471 192.004 87.2405 192.004 85.3882C192.004 83.5425 193.504 82.0359 195.356 82.0359C197.208 82.0359 198.715 83.5425 198.715 85.3882Z" fill="#00DDB6"/>
<path d="M227.449 85.3882C227.449 87.2405 225.949 88.7471 224.096 88.7471C222.244 88.7471 220.744 87.2405 220.744 85.3882C220.744 83.5425 222.244 82.0359 224.096 82.0359C225.949 82.0359 227.449 83.5425 227.449 85.3882Z" fill="#00DDB6"/>
<path d="M256.195 85.3882C256.195 87.2405 254.695 88.7471 252.843 88.7471C250.99 88.7471 249.49 87.2405 249.49 85.3882C249.49 83.5425 250.99 82.0359 252.843 82.0359C254.695 82.0359 256.195 83.5425 256.195 85.3882Z" fill="#00DDB6"/>
<path d="M284.937 85.3882C284.937 87.2405 283.437 88.7471 281.585 88.7471C279.732 88.7471 278.232 87.2405 278.232 85.3882C278.232 83.5425 279.732 82.0359 281.585 82.0359C283.437 82.0359 284.937 83.5425 284.937 85.3882Z" fill="#00DDB6"/>
<path d="M313.677 85.3882C313.677 87.2405 312.177 88.7471 310.325 88.7471C308.473 88.7471 306.973 87.2405 306.973 85.3882C306.973 83.5425 308.473 82.0359 310.325 82.0359C312.177 82.0359 313.677 83.5425 313.677 85.3882Z" fill="#00DDB6"/>
<path d="M342.422 85.3882C342.422 87.2405 340.922 88.7471 339.07 88.7471C337.218 88.7471 335.711 87.2405 335.711 85.3882C335.711 83.5425 337.218 82.0359 339.07 82.0359C340.922 82.0359 342.422 83.5425 342.422 85.3882Z" fill="#00DDB6"/>
<path d="M371.164 85.3882C371.164 87.2405 369.658 88.7471 367.805 88.7471C365.953 88.7471 364.453 87.2405 364.453 85.3882C364.453 83.5425 365.953 82.0359 367.805 82.0359C369.658 82.0359 371.164 83.5425 371.164 85.3882Z" fill="#00DDB6"/>
<path d="M198.715 113.949C198.715 115.801 197.208 117.301 195.356 117.301C193.504 117.301 192.004 115.801 192.004 113.949C192.004 112.097 193.504 110.597 195.356 110.597C197.208 110.597 198.715 112.097 198.715 113.949Z" fill="#00DDB6"/>
<path d="M227.449 113.949C227.449 115.801 225.949 117.301 224.096 117.301C222.244 117.301 220.744 115.801 220.744 113.949C220.744 112.097 222.244 110.597 224.096 110.597C225.949 110.597 227.449 112.097 227.449 113.949Z" fill="#00DDB6"/>
<path d="M256.195 113.949C256.195 115.801 254.695 117.301 252.843 117.301C250.99 117.301 249.49 115.801 249.49 113.949C249.49 112.097 250.99 110.597 252.843 110.597C254.695 110.597 256.195 112.097 256.195 113.949Z" fill="#00DDB6"/>
<path d="M284.937 113.949C284.937 115.801 283.437 117.301 281.585 117.301C279.732 117.301 278.232 115.801 278.232 113.949C278.232 112.097 279.732 110.597 281.585 110.597C283.437 110.597 284.937 112.097 284.937 113.949Z" fill="#00DDB6"/>
<path d="M313.677 113.949C313.677 115.801 312.177 117.301 310.325 117.301C308.473 117.301 306.973 115.801 306.973 113.949C306.973 112.097 308.473 110.597 310.325 110.597C312.177 110.597 313.677 112.097 313.677 113.949Z" fill="#00DDB6"/>
<path d="M342.422 113.949C342.422 115.801 340.922 117.301 339.07 117.301C337.218 117.301 335.711 115.801 335.711 113.949C335.711 112.097 337.218 110.597 339.07 110.597C340.922 110.597 342.422 112.097 342.422 113.949Z" fill="#00DDB6"/>
<path d="M371.164 113.949C371.164 115.801 369.658 117.301 367.805 117.301C365.953 117.301 364.453 115.801 364.453 113.949C364.453 112.097 365.953 110.597 367.805 110.597C369.658 110.597 371.164 112.097 371.164 113.949Z" fill="#00DDB6"/>
<path d="M198.715 142.69C198.715 144.536 197.208 146.042 195.356 146.042C193.504 146.042 192.004 144.536 192.004 142.69C192.004 140.838 193.504 139.331 195.356 139.331C197.208 139.331 198.715 140.838 198.715 142.69Z" fill="#00DDB6"/>
<path d="M227.449 142.69C227.449 144.536 225.949 146.042 224.096 146.042C222.244 146.042 220.744 144.536 220.744 142.69C220.744 140.838 222.244 139.331 224.096 139.331C225.949 139.331 227.449 140.838 227.449 142.69Z" fill="#00DDB6"/>
<path d="M256.195 142.69C256.195 144.536 254.695 146.042 252.843 146.042C250.99 146.042 249.49 144.536 249.49 142.69C249.49 140.838 250.99 139.331 252.843 139.331C254.695 139.331 256.195 140.838 256.195 142.69Z" fill="#00DDB6"/>
<path d="M284.937 142.69C284.937 144.536 283.437 146.042 281.585 146.042C279.732 146.042 278.232 144.536 278.232 142.69C278.232 140.838 279.732 139.331 281.585 139.331C283.437 139.331 284.937 140.838 284.937 142.69Z" fill="#00DDB6"/>
<path d="M313.677 142.69C313.677 144.536 312.177 146.042 310.325 146.042C308.473 146.042 306.973 144.536 306.973 142.69C306.973 140.838 308.473 139.331 310.325 139.331C312.177 139.331 313.677 140.838 313.677 142.69Z" fill="#00DDB6"/>
<path d="M342.422 142.69C342.422 144.536 340.922 146.042 339.07 146.042C337.218 146.042 335.711 144.536 335.711 142.69C335.711 140.838 337.218 139.331 339.07 139.331C340.922 139.331 342.422 140.838 342.422 142.69Z" fill="#00DDB6"/>
<path d="M371.164 142.69C371.164 144.536 369.658 146.042 367.805 146.042C365.953 146.042 364.453 144.536 364.453 142.69C364.453 140.838 365.953 139.331 367.805 139.331C369.658 139.331 371.164 140.838 371.164 142.69Z" fill="#00DDB6"/>
<path d="M198.715 171.421C198.715 173.273 197.208 174.773 195.356 174.773C193.504 174.773 192.004 173.273 192.004 171.421C192.004 169.575 193.504 168.068 195.356 168.068C197.208 168.068 198.715 169.575 198.715 171.421Z" fill="#00DDB6"/>
<path d="M227.449 171.421C227.449 173.273 225.949 174.773 224.096 174.773C222.244 174.773 220.744 173.273 220.744 171.421C220.744 169.575 222.244 168.068 224.096 168.068C225.949 168.068 227.449 169.575 227.449 171.421Z" fill="#00DDB6"/>
<path d="M256.195 171.421C256.195 173.273 254.695 174.773 252.843 174.773C250.99 174.773 249.49 173.273 249.49 171.421C249.49 169.575 250.99 168.068 252.843 168.068C254.695 168.068 256.195 169.575 256.195 171.421Z" fill="#00DDB6"/>
<path d="M284.937 171.421C284.937 173.273 283.437 174.773 281.585 174.773C279.732 174.773 278.232 173.273 278.232 171.421C278.232 169.575 279.732 168.068 281.585 168.068C283.437 168.068 284.937 169.575 284.937 171.421Z" fill="#00DDB6"/>
<path d="M313.677 171.421C313.677 173.273 312.177 174.773 310.325 174.773C308.473 174.773 306.973 173.273 306.973 171.421C306.973 169.575 308.473 168.068 310.325 168.068C312.177 168.068 313.677 169.575 313.677 171.421Z" fill="#00DDB6"/>
<path d="M342.422 171.421C342.422 173.273 340.922 174.773 339.07 174.773C337.218 174.773 335.711 173.273 335.711 171.421C335.711 169.575 337.218 168.068 339.07 168.068C340.922 168.068 342.422 169.575 342.422 171.421Z" fill="#00DDB6"/>
<path d="M371.164 171.421C371.164 173.273 369.658 174.773 367.805 174.773C365.953 174.773 364.453 173.273 364.453 171.421C364.453 169.575 365.953 168.068 367.805 168.068C369.658 168.068 371.164 169.575 371.164 171.421Z" fill="#00DDB6"/>
<path d="M198.715 199.982C198.715 201.835 197.208 203.334 195.356 203.334C193.504 203.334 192.004 201.835 192.004 199.982C192.004 198.13 193.504 196.63 195.356 196.63C197.208 196.63 198.715 198.13 198.715 199.982Z" fill="#00DDB6"/>
<path d="M227.449 199.982C227.449 201.835 225.949 203.334 224.096 203.334C222.244 203.334 220.744 201.835 220.744 199.982C220.744 198.13 222.244 196.63 224.096 196.63C225.949 196.63 227.449 198.13 227.449 199.982Z" fill="#00DDB6"/>
<path d="M256.195 199.982C256.195 201.835 254.695 203.334 252.843 203.334C250.99 203.334 249.49 201.835 249.49 199.982C249.49 198.13 250.99 196.63 252.843 196.63C254.695 196.63 256.195 198.13 256.195 199.982Z" fill="#00DDB6"/>
<path d="M284.937 199.982C284.937 201.835 283.437 203.334 281.585 203.334C279.732 203.334 278.232 201.835 278.232 199.982C278.232 198.13 279.732 196.63 281.585 196.63C283.437 196.63 284.937 198.13 284.937 199.982Z" fill="#00DDB6"/>
<path d="M313.677 199.982C313.677 201.835 312.177 203.334 310.325 203.334C308.473 203.334 306.973 201.835 306.973 199.982C306.973 198.13 308.473 196.63 310.325 196.63C312.177 196.63 313.677 198.13 313.677 199.982Z" fill="#00DDB6"/>
<path d="M342.422 199.982C342.422 201.835 340.922 203.334 339.07 203.334C337.218 203.334 335.711 201.835 335.711 199.982C335.711 198.13 337.218 196.63 339.07 196.63C340.922 196.63 342.422 198.13 342.422 199.982Z" fill="#00DDB6"/>
<path d="M371.164 199.982C371.164 201.835 369.658 203.334 367.805 203.334C365.953 203.334 364.453 201.835 364.453 199.982C364.453 198.13 365.953 196.63 367.805 196.63C369.658 196.63 371.164 198.13 371.164 199.982Z" fill="#00DDB6"/>
<path d="M7.56469 56.661C7.56469 58.5132 6.05811 60.0132 4.20586 60.0132C2.3536 60.0132 0.853516 58.5132 0.853516 56.661C0.853516 54.8087 2.3536 53.3086 4.20586 53.3086C6.05811 53.3086 7.56469 54.8087 7.56469 56.661Z" fill="#00DDB6"/>
<path d="M36.2983 56.661C36.2983 58.5132 34.7983 60.0132 32.9461 60.0132C31.0938 60.0132 29.5938 58.5132 29.5938 56.661C29.5938 54.8087 31.0938 53.3086 32.9461 53.3086C34.7983 53.3086 36.2983 54.8087 36.2983 56.661Z" fill="#00DDB6"/>
<path d="M65.0445 56.661C65.0445 58.5132 63.5444 60.0132 61.6922 60.0132C59.8399 60.0132 58.3398 58.5132 58.3398 56.661C58.3398 54.8087 59.8399 53.3086 61.6922 53.3086C63.5444 53.3086 65.0445 54.8087 65.0445 56.661Z" fill="#00DDB6"/>
<path d="M93.7866 56.661C93.7866 58.5132 92.2865 60.0132 90.4342 60.0132C88.582 60.0132 87.082 58.5132 87.082 56.661C87.082 54.8087 88.582 53.3086 90.4342 53.3086C92.2865 53.3086 93.7866 54.8087 93.7866 56.661Z" fill="#00DDB6"/>
<path d="M122.527 56.661C122.527 58.5132 121.027 60.0132 119.175 60.0132C117.322 60.0132 115.822 58.5132 115.822 56.661C115.822 54.8087 117.322 53.3086 119.175 53.3086C121.027 53.3086 122.527 54.8087 122.527 56.661Z" fill="#00DDB6"/>
<path d="M151.272 56.661C151.272 58.5132 149.772 60.0132 147.919 60.0132C146.067 60.0132 144.561 58.5132 144.561 56.661C144.561 54.8087 146.067 53.3086 147.919 53.3086C149.772 53.3086 151.272 54.8087 151.272 56.661Z" fill="#00DDB6"/>
<path d="M180.014 56.661C180.014 58.5132 178.507 60.0132 176.655 60.0132C174.803 60.0132 173.303 58.5132 173.303 56.661C173.303 54.8087 174.803 53.3086 176.655 53.3086C178.507 53.3086 180.014 54.8087 180.014 56.661Z" fill="#00DDB6"/>
<path d="M7.56469 85.3882C7.56469 87.2405 6.05811 88.7471 4.20586 88.7471C2.3536 88.7471 0.853516 87.2405 0.853516 85.3882C0.853516 83.5425 2.3536 82.0359 4.20586 82.0359C6.05811 82.0359 7.56469 83.5425 7.56469 85.3882Z" fill="#00DDB6"/>
<path d="M36.2983 85.3882C36.2983 87.2405 34.7983 88.7471 32.9461 88.7471C31.0938 88.7471 29.5938 87.2405 29.5938 85.3882C29.5938 83.5425 31.0938 82.0359 32.9461 82.0359C34.7983 82.0359 36.2983 83.5425 36.2983 85.3882Z" fill="#00DDB6"/>
<path d="M65.0445 85.3882C65.0445 87.2405 63.5444 88.7471 61.6922 88.7471C59.8399 88.7471 58.3398 87.2405 58.3398 85.3882C58.3398 83.5425 59.8399 82.0359 61.6922 82.0359C63.5444 82.0359 65.0445 83.5425 65.0445 85.3882Z" fill="#00DDB6"/>
<path d="M93.7866 85.3882C93.7866 87.2405 92.2865 88.7471 90.4342 88.7471C88.582 88.7471 87.082 87.2405 87.082 85.3882C87.082 83.5425 88.582 82.0359 90.4342 82.0359C92.2865 82.0359 93.7866 83.5425 93.7866 85.3882Z" fill="#00DDB6"/>
<path d="M122.527 85.3882C122.527 87.2405 121.027 88.7471 119.175 88.7471C117.322 88.7471 115.822 87.2405 115.822 85.3882C115.822 83.5425 117.322 82.0359 119.175 82.0359C121.027 82.0359 122.527 83.5425 122.527 85.3882Z" fill="#00DDB6"/>
<path d="M151.272 85.3882C151.272 87.2405 149.772 88.7471 147.919 88.7471C146.067 88.7471 144.561 87.2405 144.561 85.3882C144.561 83.5425 146.067 82.0359 147.919 82.0359C149.772 82.0359 151.272 83.5425 151.272 85.3882Z" fill="#00DDB6"/>
<path d="M180.014 85.3882C180.014 87.2405 178.507 88.7471 176.655 88.7471C174.803 88.7471 173.303 87.2405 173.303 85.3882C173.303 83.5425 174.803 82.0359 176.655 82.0359C178.507 82.0359 180.014 83.5425 180.014 85.3882Z" fill="#00DDB6"/>
<path d="M7.56469 113.949C7.56469 115.801 6.05811 117.301 4.20586 117.301C2.3536 117.301 0.853516 115.801 0.853516 113.949C0.853516 112.097 2.3536 110.597 4.20586 110.597C6.05811 110.597 7.56469 112.097 7.56469 113.949Z" fill="#00DDB6"/>
<path d="M36.2983 113.949C36.2983 115.801 34.7983 117.301 32.9461 117.301C31.0938 117.301 29.5938 115.801 29.5938 113.949C29.5938 112.097 31.0938 110.597 32.9461 110.597C34.7983 110.597 36.2983 112.097 36.2983 113.949Z" fill="#00DDB6"/>
<path d="M65.0445 113.949C65.0445 115.801 63.5444 117.301 61.6922 117.301C59.8399 117.301 58.3398 115.801 58.3398 113.949C58.3398 112.097 59.8399 110.597 61.6922 110.597C63.5444 110.597 65.0445 112.097 65.0445 113.949Z" fill="#00DDB6"/>
<path d="M93.7866 113.949C93.7866 115.801 92.2865 117.301 90.4342 117.301C88.582 117.301 87.082 115.801 87.082 113.949C87.082 112.097 88.582 110.597 90.4342 110.597C92.2865 110.597 93.7866 112.097 93.7866 113.949Z" fill="#00DDB6"/>
<path d="M122.527 113.949C122.527 115.801 121.027 117.301 119.175 117.301C117.322 117.301 115.822 115.801 115.822 113.949C115.822 112.097 117.322 110.597 119.175 110.597C121.027 110.597 122.527 112.097 122.527 113.949Z" fill="#00DDB6"/>
<path d="M151.272 113.949C151.272 115.801 149.772 117.301 147.919 117.301C146.067 117.301 144.561 115.801 144.561 113.949C144.561 112.097 146.067 110.597 147.919 110.597C149.772 110.597 151.272 112.097 151.272 113.949Z" fill="#00DDB6"/>
<path d="M180.014 113.949C180.014 115.801 178.507 117.301 176.655 117.301C174.803 117.301 173.303 115.801 173.303 113.949C173.303 112.097 174.803 110.597 176.655 110.597C178.507 110.597 180.014 112.097 180.014 113.949Z" fill="#00DDB6"/>
<path d="M7.56469 142.69C7.56469 144.536 6.05811 146.042 4.20586 146.042C2.3536 146.042 0.853516 144.536 0.853516 142.69C0.853516 140.838 2.3536 139.331 4.20586 139.331C6.05811 139.331 7.56469 140.838 7.56469 142.69Z" fill="#00DDB6"/>
<path d="M36.2983 142.69C36.2983 144.536 34.7983 146.042 32.9461 146.042C31.0938 146.042 29.5938 144.536 29.5938 142.69C29.5938 140.838 31.0938 139.331 32.9461 139.331C34.7983 139.331 36.2983 140.838 36.2983 142.69Z" fill="#00DDB6"/>
<path d="M65.0445 142.69C65.0445 144.536 63.5444 146.042 61.6922 146.042C59.8399 146.042 58.3398 144.536 58.3398 142.69C58.3398 140.838 59.8399 139.331 61.6922 139.331C63.5444 139.331 65.0445 140.838 65.0445 142.69Z" fill="#00DDB6"/>
<path d="M93.7866 142.69C93.7866 144.536 92.2865 146.042 90.4342 146.042C88.582 146.042 87.082 144.536 87.082 142.69C87.082 140.838 88.582 139.331 90.4342 139.331C92.2865 139.331 93.7866 140.838 93.7866 142.69Z" fill="#00DDB6"/>
<path d="M122.527 142.69C122.527 144.536 121.027 146.042 119.175 146.042C117.322 146.042 115.822 144.536 115.822 142.69C115.822 140.838 117.322 139.331 119.175 139.331C121.027 139.331 122.527 140.838 122.527 142.69Z" fill="#00DDB6"/>
<path d="M151.272 142.69C151.272 144.536 149.772 146.042 147.919 146.042C146.067 146.042 144.561 144.536 144.561 142.69C144.561 140.838 146.067 139.331 147.919 139.331C149.772 139.331 151.272 140.838 151.272 142.69Z" fill="#00DDB6"/>
<path d="M180.014 142.69C180.014 144.536 178.507 146.042 176.655 146.042C174.803 146.042 173.303 144.536 173.303 142.69C173.303 140.838 174.803 139.331 176.655 139.331C178.507 139.331 180.014 140.838 180.014 142.69Z" fill="#00DDB6"/>
<path d="M7.56469 171.421C7.56469 173.273 6.05811 174.773 4.20586 174.773C2.3536 174.773 0.853516 173.273 0.853516 171.421C0.853516 169.575 2.3536 168.068 4.20586 168.068C6.05811 168.068 7.56469 169.575 7.56469 171.421Z" fill="#00DDB6"/>
<path d="M36.2983 171.421C36.2983 173.273 34.7983 174.773 32.9461 174.773C31.0938 174.773 29.5938 173.273 29.5938 171.421C29.5938 169.575 31.0938 168.068 32.9461 168.068C34.7983 168.068 36.2983 169.575 36.2983 171.421Z" fill="#00DDB6"/>
<path d="M65.0445 171.421C65.0445 173.273 63.5444 174.773 61.6922 174.773C59.8399 174.773 58.3398 173.273 58.3398 171.421C58.3398 169.575 59.8399 168.068 61.6922 168.068C63.5444 168.068 65.0445 169.575 65.0445 171.421Z" fill="#00DDB6"/>
<path d="M93.7866 171.421C93.7866 173.273 92.2865 174.773 90.4342 174.773C88.582 174.773 87.082 173.273 87.082 171.421C87.082 169.575 88.582 168.068 90.4342 168.068C92.2865 168.068 93.7866 169.575 93.7866 171.421Z" fill="#00DDB6"/>
<path d="M122.527 171.421C122.527 173.273 121.027 174.773 119.175 174.773C117.322 174.773 115.822 173.273 115.822 171.421C115.822 169.575 117.322 168.068 119.175 168.068C121.027 168.068 122.527 169.575 122.527 171.421Z" fill="#00DDB6"/>
<path d="M151.272 171.421C151.272 173.273 149.772 174.773 147.919 174.773C146.067 174.773 144.561 173.273 144.561 171.421C144.561 169.575 146.067 168.068 147.919 168.068C149.772 168.068 151.272 169.575 151.272 171.421Z" fill="#00DDB6"/>
<path d="M180.014 171.421C180.014 173.273 178.507 174.773 176.655 174.773C174.803 174.773 173.303 173.273 173.303 171.421C173.303 169.575 174.803 168.068 176.655 168.068C178.507 168.068 180.014 169.575 180.014 171.421Z" fill="#00DDB6"/>
<path d="M7.56469 199.982C7.56469 201.835 6.05811 203.334 4.20586 203.334C2.3536 203.334 0.853516 201.835 0.853516 199.982C0.853516 198.13 2.3536 196.63 4.20586 196.63C6.05811 196.63 7.56469 198.13 7.56469 199.982Z" fill="#00DDB6"/>
<path d="M36.2983 199.982C36.2983 201.835 34.7983 203.334 32.9461 203.334C31.0938 203.334 29.5938 201.835 29.5938 199.982C29.5938 198.13 31.0938 196.63 32.9461 196.63C34.7983 196.63 36.2983 198.13 36.2983 199.982Z" fill="#00DDB6"/>
<path d="M65.0445 199.982C65.0445 201.835 63.5444 203.334 61.6922 203.334C59.8399 203.334 58.3398 201.835 58.3398 199.982C58.3398 198.13 59.8399 196.63 61.6922 196.63C63.5444 196.63 65.0445 198.13 65.0445 199.982Z" fill="#00DDB6"/>
<path d="M93.7866 199.982C93.7866 201.835 92.2865 203.334 90.4342 203.334C88.582 203.334 87.082 201.835 87.082 199.982C87.082 198.13 88.582 196.63 90.4342 196.63C92.2865 196.63 93.7866 198.13 93.7866 199.982Z" fill="#00DDB6"/>
<path d="M122.527 199.982C122.527 201.835 121.027 203.334 119.175 203.334C117.322 203.334 115.822 201.835 115.822 199.982C115.822 198.13 117.322 196.63 119.175 196.63C121.027 196.63 122.527 198.13 122.527 199.982Z" fill="#00DDB6"/>
<path d="M151.272 199.982C151.272 201.835 149.772 203.334 147.919 203.334C146.067 203.334 144.561 201.835 144.561 199.982C144.561 198.13 146.067 196.63 147.919 196.63C149.772 196.63 151.272 198.13 151.272 199.982Z" fill="#00DDB6"/>
<path d="M180.014 199.982C180.014 201.835 178.507 203.334 176.655 203.334C174.803 203.334 173.303 201.835 173.303 199.982C173.303 198.13 174.803 196.63 176.655 196.63C178.507 196.63 180.014 198.13 180.014 199.982Z" fill="#00DDB6"/>
<path d="M201.76 228.011C201.76 229.863 200.253 231.363 198.401 231.363C196.549 231.363 195.049 229.863 195.049 228.011C195.049 226.158 196.549 224.658 198.401 224.658C200.253 224.658 201.76 226.158 201.76 228.011Z" fill="#00DDB6"/>
<path d="M230.494 228.011C230.494 229.863 228.994 231.363 227.141 231.363C225.289 231.363 223.789 229.863 223.789 228.011C223.789 226.158 225.289 224.658 227.141 224.658C228.994 224.658 230.494 226.158 230.494 228.011Z" fill="#00DDB6"/>
<path d="M259.24 228.011C259.24 229.863 257.74 231.363 255.887 231.363C254.035 231.363 252.535 229.863 252.535 228.011C252.535 226.158 254.035 224.658 255.887 224.658C257.74 224.658 259.24 226.158 259.24 228.011Z" fill="#00DDB6"/>
<path d="M287.982 228.011C287.982 229.863 286.482 231.363 284.63 231.363C282.777 231.363 281.277 229.863 281.277 228.011C281.277 226.158 282.777 224.658 284.63 224.658C286.482 224.658 287.982 226.158 287.982 228.011Z" fill="#00DDB6"/>
<path d="M316.722 228.011C316.722 229.863 315.222 231.363 313.37 231.363C311.518 231.363 310.018 229.863 310.018 228.011C310.018 226.158 311.518 224.658 313.37 224.658C315.222 224.658 316.722 226.158 316.722 228.011Z" fill="#00DDB6"/>
<path d="M345.467 228.011C345.467 229.863 343.967 231.363 342.115 231.363C340.262 231.363 338.756 229.863 338.756 228.011C338.756 226.158 340.262 224.658 342.115 224.658C343.967 224.658 345.467 226.158 345.467 228.011Z" fill="#00DDB6"/>
<path d="M374.209 228.011C374.209 229.863 372.703 231.363 370.85 231.363C368.998 231.363 367.498 229.863 367.498 228.011C367.498 226.158 368.998 224.658 370.85 224.658C372.703 224.658 374.209 226.158 374.209 228.011Z" fill="#00DDB6"/>
<path d="M201.76 256.738C201.76 258.59 200.253 260.097 198.401 260.097C196.549 260.097 195.049 258.59 195.049 256.738C195.049 254.892 196.549 253.386 198.401 253.386C200.253 253.386 201.76 254.892 201.76 256.738Z" fill="#00DDB6"/>
<path d="M230.494 256.738C230.494 258.59 228.994 260.097 227.141 260.097C225.289 260.097 223.789 258.59 223.789 256.738C223.789 254.892 225.289 253.386 227.141 253.386C228.994 253.386 230.494 254.892 230.494 256.738Z" fill="#00DDB6"/>
<path d="M259.24 256.738C259.24 258.59 257.74 260.097 255.887 260.097C254.035 260.097 252.535 258.59 252.535 256.738C252.535 254.892 254.035 253.386 255.887 253.386C257.74 253.386 259.24 254.892 259.24 256.738Z" fill="#00DDB6"/>
<path d="M287.982 256.738C287.982 258.59 286.482 260.097 284.63 260.097C282.777 260.097 281.277 258.59 281.277 256.738C281.277 254.892 282.777 253.386 284.63 253.386C286.482 253.386 287.982 254.892 287.982 256.738Z" fill="#00DDB6"/>
<path d="M316.722 256.738C316.722 258.59 315.222 260.097 313.37 260.097C311.518 260.097 310.018 258.59 310.018 256.738C310.018 254.892 311.518 253.386 313.37 253.386C315.222 253.386 316.722 254.892 316.722 256.738Z" fill="#00DDB6"/>
<path d="M345.467 256.738C345.467 258.59 343.967 260.097 342.115 260.097C340.262 260.097 338.756 258.59 338.756 256.738C338.756 254.892 340.262 253.386 342.115 253.386C343.967 253.386 345.467 254.892 345.467 256.738Z" fill="#00DDB6"/>
<path d="M374.209 256.738C374.209 258.59 372.703 260.097 370.85 260.097C368.998 260.097 367.498 258.59 367.498 256.738C367.498 254.892 368.998 253.386 370.85 253.386C372.703 253.386 374.209 254.892 374.209 256.738Z" fill="#00DDB6"/>
<path d="M201.76 285.299C201.76 287.151 200.253 288.651 198.401 288.651C196.549 288.651 195.049 287.151 195.049 285.299C195.049 283.446 196.549 281.946 198.401 281.946C200.253 281.946 201.76 283.446 201.76 285.299Z" fill="#00DDB6"/>
<path d="M230.494 285.299C230.494 287.151 228.994 288.651 227.141 288.651C225.289 288.651 223.789 287.151 223.789 285.299C223.789 283.446 225.289 281.946 227.141 281.946C228.994 281.946 230.494 283.446 230.494 285.299Z" fill="#00DDB6"/>
<path d="M259.24 285.299C259.24 287.151 257.74 288.651 255.887 288.651C254.035 288.651 252.535 287.151 252.535 285.299C252.535 283.446 254.035 281.946 255.887 281.946C257.74 281.946 259.24 283.446 259.24 285.299Z" fill="#00DDB6"/>
<path d="M287.982 285.299C287.982 287.151 286.482 288.651 284.63 288.651C282.777 288.651 281.277 287.151 281.277 285.299C281.277 283.446 282.777 281.946 284.63 281.946C286.482 281.946 287.982 283.446 287.982 285.299Z" fill="#00DDB6"/>
<path d="M316.722 285.299C316.722 287.151 315.222 288.651 313.37 288.651C311.518 288.651 310.018 287.151 310.018 285.299C310.018 283.446 311.518 281.946 313.37 281.946C315.222 281.946 316.722 283.446 316.722 285.299Z" fill="#00DDB6"/>
<path d="M345.467 285.299C345.467 287.151 343.967 288.651 342.115 288.651C340.262 288.651 338.756 287.151 338.756 285.299C338.756 283.446 340.262 281.946 342.115 281.946C343.967 281.946 345.467 283.446 345.467 285.299Z" fill="#00DDB6"/>
<path d="M374.209 285.299C374.209 287.151 372.703 288.651 370.85 288.651C368.998 288.651 367.498 287.151 367.498 285.299C367.498 283.446 368.998 281.946 370.85 281.946C372.703 281.946 374.209 283.446 374.209 285.299Z" fill="#00DDB6"/>
<path d="M201.76 314.04C201.76 315.885 200.253 317.392 198.401 317.392C196.549 317.392 195.049 315.885 195.049 314.04C195.049 312.187 196.549 310.681 198.401 310.681C200.253 310.681 201.76 312.187 201.76 314.04Z" fill="#00DDB6"/>
<path d="M230.494 314.04C230.494 315.885 228.994 317.392 227.141 317.392C225.289 317.392 223.789 315.885 223.789 314.04C223.789 312.187 225.289 310.681 227.141 310.681C228.994 310.681 230.494 312.187 230.494 314.04Z" fill="#00DDB6"/>
<path d="M259.24 314.04C259.24 315.885 257.74 317.392 255.887 317.392C254.035 317.392 252.535 315.885 252.535 314.04C252.535 312.187 254.035 310.681 255.887 310.681C257.74 310.681 259.24 312.187 259.24 314.04Z" fill="#00DDB6"/>
<path d="M287.982 314.04C287.982 315.885 286.482 317.392 284.63 317.392C282.777 317.392 281.277 315.885 281.277 314.04C281.277 312.187 282.777 310.681 284.63 310.681C286.482 310.681 287.982 312.187 287.982 314.04Z" fill="#00DDB6"/>
<path d="M316.722 314.04C316.722 315.885 315.222 317.392 313.37 317.392C311.518 317.392 310.018 315.885 310.018 314.04C310.018 312.187 311.518 310.681 313.37 310.681C315.222 310.681 316.722 312.187 316.722 314.04Z" fill="#00DDB6"/>
<path d="M345.467 314.04C345.467 315.885 343.967 317.392 342.115 317.392C340.262 317.392 338.756 315.885 338.756 314.04C338.756 312.187 340.262 310.681 342.115 310.681C343.967 310.681 345.467 312.187 345.467 314.04Z" fill="#00DDB6"/>
<path d="M374.209 314.04C374.209 315.885 372.703 317.392 370.85 317.392C368.998 317.392 367.498 315.885 367.498 314.04C367.498 312.187 368.998 310.681 370.85 310.681C372.703 310.681 374.209 312.187 374.209 314.04Z" fill="#00DDB6"/>
<path d="M201.76 342.77C201.76 344.622 200.253 346.123 198.401 346.123C196.549 346.123 195.049 344.622 195.049 342.77C195.049 340.924 196.549 339.418 198.401 339.418C200.253 339.418 201.76 340.924 201.76 342.77Z" fill="#00DDB6"/>
<path d="M230.494 342.77C230.494 344.622 228.994 346.123 227.141 346.123C225.289 346.123 223.789 344.622 223.789 342.77C223.789 340.924 225.289 339.418 227.141 339.418C228.994 339.418 230.494 340.924 230.494 342.77Z" fill="#00DDB6"/>
<path d="M259.24 342.77C259.24 344.622 257.74 346.123 255.887 346.123C254.035 346.123 252.535 344.622 252.535 342.77C252.535 340.924 254.035 339.418 255.887 339.418C257.74 339.418 259.24 340.924 259.24 342.77Z" fill="#00DDB6"/>
<path d="M287.982 342.77C287.982 344.622 286.482 346.123 284.63 346.123C282.777 346.123 281.277 344.622 281.277 342.77C281.277 340.924 282.777 339.418 284.63 339.418C286.482 339.418 287.982 340.924 287.982 342.77Z" fill="#00DDB6"/>
<path d="M316.722 342.77C316.722 344.622 315.222 346.123 313.37 346.123C311.518 346.123 310.018 344.622 310.018 342.77C310.018 340.924 311.518 339.418 313.37 339.418C315.222 339.418 316.722 340.924 316.722 342.77Z" fill="#00DDB6"/>
<path d="M345.467 342.77C345.467 344.622 343.967 346.123 342.115 346.123C340.262 346.123 338.756 344.622 338.756 342.77C338.756 340.924 340.262 339.418 342.115 339.418C343.967 339.418 345.467 340.924 345.467 342.77Z" fill="#00DDB6"/>
<path d="M374.209 342.77C374.209 344.622 372.703 346.123 370.85 346.123C368.998 346.123 367.498 344.622 367.498 342.77C367.498 340.924 368.998 339.418 370.85 339.418C372.703 339.418 374.209 340.924 374.209 342.77Z" fill="#00DDB6"/>
<path d="M201.76 371.332C201.76 373.184 200.253 374.684 198.401 374.684C196.549 374.684 195.049 373.184 195.049 371.332C195.049 369.48 196.549 367.98 198.401 367.98C200.253 367.98 201.76 369.48 201.76 371.332Z" fill="#00DDB6"/>
<path d="M230.494 371.332C230.494 373.184 228.994 374.684 227.141 374.684C225.289 374.684 223.789 373.184 223.789 371.332C223.789 369.48 225.289 367.98 227.141 367.98C228.994 367.98 230.494 369.48 230.494 371.332Z" fill="#00DDB6"/>
<path d="M259.24 371.332C259.24 373.184 257.74 374.684 255.887 374.684C254.035 374.684 252.535 373.184 252.535 371.332C252.535 369.48 254.035 367.98 255.887 367.98C257.74 367.98 259.24 369.48 259.24 371.332Z" fill="#00DDB6"/>
<path d="M287.982 371.332C287.982 373.184 286.482 374.684 284.63 374.684C282.777 374.684 281.277 373.184 281.277 371.332C281.277 369.48 282.777 367.98 284.63 367.98C286.482 367.98 287.982 369.48 287.982 371.332Z" fill="#00DDB6"/>
<path d="M316.722 371.332C316.722 373.184 315.222 374.684 313.37 374.684C311.518 374.684 310.018 373.184 310.018 371.332C310.018 369.48 311.518 367.98 313.37 367.98C315.222 367.98 316.722 369.48 316.722 371.332Z" fill="#00DDB6"/>
<path d="M345.467 371.332C345.467 373.184 343.967 374.684 342.115 374.684C340.262 374.684 338.756 373.184 338.756 371.332C338.756 369.48 340.262 367.98 342.115 367.98C343.967 367.98 345.467 369.48 345.467 371.332Z" fill="#00DDB6"/>
<path d="M374.209 371.332C374.209 373.184 372.703 374.684 370.85 374.684C368.998 374.684 367.498 373.184 367.498 371.332C367.498 369.48 368.998 367.98 370.85 367.98C372.703 367.98 374.209 369.48 374.209 371.332Z" fill="#00DDB6"/>
<path d="M7.71118 224.964C7.71118 226.816 6.20459 228.316 4.35234 228.316C2.50009 228.316 1 226.816 1 224.964C1 223.111 2.50009 221.611 4.35234 221.611C6.20459 221.611 7.71118 223.111 7.71118 224.964Z" fill="#00DDB6"/>
<path d="M36.4448 224.964C36.4448 226.816 34.9448 228.316 33.0926 228.316C31.2403 228.316 29.7402 226.816 29.7402 224.964C29.7402 223.111 31.2403 221.611 33.0926 221.611C34.9448 221.611 36.4448 223.111 36.4448 224.964Z" fill="#00DDB6"/>
<path d="M65.191 224.964C65.191 226.816 63.6909 228.316 61.8387 228.316C59.9864 228.316 58.4863 226.816 58.4863 224.964C58.4863 223.111 59.9864 221.611 61.8387 221.611C63.6909 221.611 65.191 223.111 65.191 224.964Z" fill="#00DDB6"/>
<path d="M93.9331 224.964C93.9331 226.816 92.433 228.316 90.5807 228.316C88.7285 228.316 87.2285 226.816 87.2285 224.964C87.2285 223.111 88.7285 221.611 90.5807 221.611C92.433 221.611 93.9331 223.111 93.9331 224.964Z" fill="#00DDB6"/>
<path d="M122.673 224.964C122.673 226.816 121.173 228.316 119.321 228.316C117.469 228.316 115.969 226.816 115.969 224.964C115.969 223.111 117.469 221.611 119.321 221.611C121.173 221.611 122.673 223.111 122.673 224.964Z" fill="#00DDB6"/>
<path d="M151.418 224.964C151.418 226.816 149.918 228.316 148.066 228.316C146.214 228.316 144.707 226.816 144.707 224.964C144.707 223.111 146.214 221.611 148.066 221.611C149.918 221.611 151.418 223.111 151.418 224.964Z" fill="#00DDB6"/>
<path d="M180.16 224.964C180.16 226.816 178.654 228.316 176.801 228.316C174.949 228.316 173.449 226.816 173.449 224.964C173.449 223.111 174.949 221.611 176.801 221.611C178.654 221.611 180.16 223.111 180.16 224.964Z" fill="#00DDB6"/>
<path d="M7.71118 253.691C7.71118 255.543 6.20459 257.05 4.35234 257.05C2.50009 257.05 1 255.543 1 253.691C1 251.845 2.50009 250.339 4.35234 250.339C6.20459 250.339 7.71118 251.845 7.71118 253.691Z" fill="#00DDB6"/>
<path d="M36.4448 253.691C36.4448 255.543 34.9448 257.05 33.0926 257.05C31.2403 257.05 29.7402 255.543 29.7402 253.691C29.7402 251.845 31.2403 250.339 33.0926 250.339C34.9448 250.339 36.4448 251.845 36.4448 253.691Z" fill="#00DDB6"/>
<path d="M65.191 253.691C65.191 255.543 63.6909 257.05 61.8387 257.05C59.9864 257.05 58.4863 255.543 58.4863 253.691C58.4863 251.845 59.9864 250.339 61.8387 250.339C63.6909 250.339 65.191 251.845 65.191 253.691Z" fill="#00DDB6"/>
<path d="M93.9331 253.691C93.9331 255.543 92.433 257.05 90.5807 257.05C88.7285 257.05 87.2285 255.543 87.2285 253.691C87.2285 251.845 88.7285 250.339 90.5807 250.339C92.433 250.339 93.9331 251.845 93.9331 253.691Z" fill="#00DDB6"/>
<path d="M122.673 253.691C122.673 255.543 121.173 257.05 119.321 257.05C117.469 257.05 115.969 255.543 115.969 253.691C115.969 251.845 117.469 250.339 119.321 250.339C121.173 250.339 122.673 251.845 122.673 253.691Z" fill="#00DDB6"/>
<path d="M151.418 253.691C151.418 255.543 149.918 257.05 148.066 257.05C146.214 257.05 144.707 255.543 144.707 253.691C144.707 251.845 146.214 250.339 148.066 250.339C149.918 250.339 151.418 251.845 151.418 253.691Z" fill="#00DDB6"/>
<path d="M180.16 253.691C180.16 255.543 178.654 257.05 176.801 257.05C174.949 257.05 173.449 255.543 173.449 253.691C173.449 251.845 174.949 250.339 176.801 250.339C178.654 250.339 180.16 251.845 180.16 253.691Z" fill="#00DDB6"/>
<path d="M7.71118 282.252C7.71118 284.104 6.20459 285.604 4.35234 285.604C2.50009 285.604 1 284.104 1 282.252C1 280.399 2.50009 278.899 4.35234 278.899C6.20459 278.899 7.71118 280.399 7.71118 282.252Z" fill="#00DDB6"/>
<path d="M36.4448 282.252C36.4448 284.104 34.9448 285.604 33.0926 285.604C31.2403 285.604 29.7402 284.104 29.7402 282.252C29.7402 280.399 31.2403 278.899 33.0926 278.899C34.9448 278.899 36.4448 280.399 36.4448 282.252Z" fill="#00DDB6"/>
<path d="M65.191 282.252C65.191 284.104 63.6909 285.604 61.8387 285.604C59.9864 285.604 58.4863 284.104 58.4863 282.252C58.4863 280.399 59.9864 278.899 61.8387 278.899C63.6909 278.899 65.191 280.399 65.191 282.252Z" fill="#00DDB6"/>
<path d="M93.9331 282.252C93.9331 284.104 92.433 285.604 90.5807 285.604C88.7285 285.604 87.2285 284.104 87.2285 282.252C87.2285 280.399 88.7285 278.899 90.5807 278.899C92.433 278.899 93.9331 280.399 93.9331 282.252Z" fill="#00DDB6"/>
<path d="M122.673 282.252C122.673 284.104 121.173 285.604 119.321 285.604C117.469 285.604 115.969 284.104 115.969 282.252C115.969 280.399 117.469 278.899 119.321 278.899C121.173 278.899 122.673 280.399 122.673 282.252Z" fill="#00DDB6"/>
<path d="M151.418 282.252C151.418 284.104 149.918 285.604 148.066 285.604C146.214 285.604 144.707 284.104 144.707 282.252C144.707 280.399 146.214 278.899 148.066 278.899C149.918 278.899 151.418 280.399 151.418 282.252Z" fill="#00DDB6"/>
<path d="M180.16 282.252C180.16 284.104 178.654 285.604 176.801 285.604C174.949 285.604 173.449 284.104 173.449 282.252C173.449 280.399 174.949 278.899 176.801 278.899C178.654 278.899 180.16 280.399 180.16 282.252Z" fill="#00DDB6"/>
<path d="M7.71118 310.993C7.71118 312.839 6.20459 314.345 4.35234 314.345C2.50009 314.345 1 312.839 1 310.993C1 309.141 2.50009 307.634 4.35234 307.634C6.20459 307.634 7.71118 309.141 7.71118 310.993Z" fill="#00DDB6"/>
<path d="M36.4448 310.993C36.4448 312.839 34.9448 314.345 33.0926 314.345C31.2403 314.345 29.7402 312.839 29.7402 310.993C29.7402 309.141 31.2403 307.634 33.0926 307.634C34.9448 307.634 36.4448 309.141 36.4448 310.993Z" fill="#00DDB6"/>
<path d="M65.191 310.993C65.191 312.839 63.6909 314.345 61.8387 314.345C59.9864 314.345 58.4863 312.839 58.4863 310.993C58.4863 309.141 59.9864 307.634 61.8387 307.634C63.6909 307.634 65.191 309.141 65.191 310.993Z" fill="#00DDB6"/>
<path d="M93.9331 310.993C93.9331 312.839 92.433 314.345 90.5807 314.345C88.7285 314.345 87.2285 312.839 87.2285 310.993C87.2285 309.141 88.7285 307.634 90.5807 307.634C92.433 307.634 93.9331 309.141 93.9331 310.993Z" fill="#00DDB6"/>
<path d="M122.673 310.993C122.673 312.839 121.173 314.345 119.321 314.345C117.469 314.345 115.969 312.839 115.969 310.993C115.969 309.141 117.469 307.634 119.321 307.634C121.173 307.634 122.673 309.141 122.673 310.993Z" fill="#00DDB6"/>
<path d="M151.418 310.993C151.418 312.839 149.918 314.345 148.066 314.345C146.214 314.345 144.707 312.839 144.707 310.993C144.707 309.141 146.214 307.634 148.066 307.634C149.918 307.634 151.418 309.141 151.418 310.993Z" fill="#00DDB6"/>
<path d="M180.16 310.993C180.16 312.839 178.654 314.345 176.801 314.345C174.949 314.345 173.449 312.839 173.449 310.993C173.449 309.141 174.949 307.634 176.801 307.634C178.654 307.634 180.16 309.141 180.16 310.993Z" fill="#00DDB6"/>
<path d="M7.71118 339.723C7.71118 341.576 6.20459 343.076 4.35234 343.076C2.50009 343.076 1 341.576 1 339.723C1 337.878 2.50009 336.371 4.35234 336.371C6.20459 336.371 7.71118 337.878 7.71118 339.723Z" fill="#00DDB6"/>
<path d="M36.4448 339.723C36.4448 341.576 34.9448 343.076 33.0926 343.076C31.2403 343.076 29.7402 341.576 29.7402 339.723C29.7402 337.878 31.2403 336.371 33.0926 336.371C34.9448 336.371 36.4448 337.878 36.4448 339.723Z" fill="#00DDB6"/>
<path d="M65.191 339.723C65.191 341.576 63.6909 343.076 61.8387 343.076C59.9864 343.076 58.4863 341.576 58.4863 339.723C58.4863 337.878 59.9864 336.371 61.8387 336.371C63.6909 336.371 65.191 337.878 65.191 339.723Z" fill="#00DDB6"/>
<path d="M93.9331 339.723C93.9331 341.576 92.433 343.076 90.5807 343.076C88.7285 343.076 87.2285 341.576 87.2285 339.723C87.2285 337.878 88.7285 336.371 90.5807 336.371C92.433 336.371 93.9331 337.878 93.9331 339.723Z" fill="#00DDB6"/>
<path d="M122.673 339.723C122.673 341.576 121.173 343.076 119.321 343.076C117.469 343.076 115.969 341.576 115.969 339.723C115.969 337.878 117.469 336.371 119.321 336.371C121.173 336.371 122.673 337.878 122.673 339.723Z" fill="#00DDB6"/>
<path d="M151.418 339.723C151.418 341.576 149.918 343.076 148.066 343.076C146.214 343.076 144.707 341.576 144.707 339.723C144.707 337.878 146.214 336.371 148.066 336.371C149.918 336.371 151.418 337.878 151.418 339.723Z" fill="#00DDB6"/>
<path d="M180.16 339.723C180.16 341.576 178.654 343.076 176.801 343.076C174.949 343.076 173.449 341.576 173.449 339.723C173.449 337.878 174.949 336.371 176.801 336.371C178.654 336.371 180.16 337.878 180.16 339.723Z" fill="#00DDB6"/>
<path d="M7.71118 368.285C7.71118 370.137 6.20459 371.637 4.35234 371.637C2.50009 371.637 1 370.137 1 368.285C1 366.433 2.50009 364.933 4.35234 364.933C6.20459 364.933 7.71118 366.433 7.71118 368.285Z" fill="#00DDB6"/>
<path d="M36.4448 368.285C36.4448 370.137 34.9448 371.637 33.0926 371.637C31.2403 371.637 29.7402 370.137 29.7402 368.285C29.7402 366.433 31.2403 364.933 33.0926 364.933C34.9448 364.933 36.4448 366.433 36.4448 368.285Z" fill="#00DDB6"/>
<path d="M65.191 368.285C65.191 370.137 63.6909 371.637 61.8387 371.637C59.9864 371.637 58.4863 370.137 58.4863 368.285C58.4863 366.433 59.9864 364.933 61.8387 364.933C63.6909 364.933 65.191 366.433 65.191 368.285Z" fill="#00DDB6"/>
<path d="M93.9331 368.285C93.9331 370.137 92.433 371.637 90.5807 371.637C88.7285 371.637 87.2285 370.137 87.2285 368.285C87.2285 366.433 88.7285 364.933 90.5807 364.933C92.433 364.933 93.9331 366.433 93.9331 368.285Z" fill="#00DDB6"/>
<path d="M122.673 368.285C122.673 370.137 121.173 371.637 119.321 371.637C117.469 371.637 115.969 370.137 115.969 368.285C115.969 366.433 117.469 364.933 119.321 364.933C121.173 364.933 122.673 366.433 122.673 368.285Z" fill="#00DDB6"/>
<path d="M151.418 368.285C151.418 370.137 149.918 371.637 148.066 371.637C146.214 371.637 144.707 370.137 144.707 368.285C144.707 366.433 146.214 364.933 148.066 364.933C149.918 364.933 151.418 366.433 151.418 368.285Z" fill="#00DDB6"/>
<path d="M180.16 368.285C180.16 370.137 178.654 371.637 176.801 371.637C174.949 371.637 173.449 370.137 173.449 368.285C173.449 366.433 174.949 364.933 176.801 364.933C178.654 364.933 180.16 366.433 180.16 368.285Z" fill="#00DDB6"/>
<path d="M207.76 399.359C207.76 401.211 206.253 402.711 204.401 402.711C202.549 402.711 201.049 401.211 201.049 399.359C201.049 397.507 202.549 396.007 204.401 396.007C206.253 396.007 207.76 397.507 207.76 399.359Z" fill="#00DDB6"/>
<path d="M236.494 399.359C236.494 401.211 234.994 402.711 233.141 402.711C231.289 402.711 229.789 401.211 229.789 399.359C229.789 397.507 231.289 396.007 233.141 396.007C234.994 396.007 236.494 397.507 236.494 399.359Z" fill="#00DDB6"/>
<path d="M265.24 399.359C265.24 401.211 263.74 402.711 261.887 402.711C260.035 402.711 258.535 401.211 258.535 399.359C258.535 397.507 260.035 396.007 261.887 396.007C263.74 396.007 265.24 397.507 265.24 399.359Z" fill="#00DDB6"/>
<path d="M293.982 399.359C293.982 401.211 292.482 402.711 290.63 402.711C288.777 402.711 287.277 401.211 287.277 399.359C287.277 397.507 288.777 396.007 290.63 396.007C292.482 396.007 293.982 397.507 293.982 399.359Z" fill="#00DDB6"/>
<path d="M322.724 399.359C322.724 401.211 321.224 402.711 319.372 402.711C317.52 402.711 316.02 401.211 316.02 399.359C316.02 397.507 317.52 396.007 319.372 396.007C321.224 396.007 322.724 397.507 322.724 399.359Z" fill="#00DDB6"/>
<path d="M351.467 399.359C351.467 401.211 349.967 402.711 348.115 402.711C346.262 402.711 344.756 401.211 344.756 399.359C344.756 397.507 346.262 396.007 348.115 396.007C349.967 396.007 351.467 397.507 351.467 399.359Z" fill="#00DDB6"/>
<path d="M380.209 399.359C380.209 401.211 378.703 402.711 376.85 402.711C374.998 402.711 373.498 401.211 373.498 399.359C373.498 397.507 374.998 396.007 376.85 396.007C378.703 396.007 380.209 397.507 380.209 399.359Z" fill="#00DDB6"/>
<path d="M207.76 428.086C207.76 429.939 206.253 431.445 204.401 431.445C202.549 431.445 201.049 429.939 201.049 428.086C201.049 426.241 202.549 424.734 204.401 424.734C206.253 424.734 207.76 426.241 207.76 428.086Z" fill="#00DDB6"/>
<path d="M236.494 428.086C236.494 429.939 234.994 431.445 233.141 431.445C231.289 431.445 229.789 429.939 229.789 428.086C229.789 426.241 231.289 424.734 233.141 424.734C234.994 424.734 236.494 426.241 236.494 428.086Z" fill="#00DDB6"/>
<path d="M265.24 428.086C265.24 429.939 263.74 431.445 261.887 431.445C260.035 431.445 258.535 429.939 258.535 428.086C258.535 426.241 260.035 424.734 261.887 424.734C263.74 424.734 265.24 426.241 265.24 428.086Z" fill="#00DDB6"/>
<path d="M293.982 428.086C293.982 429.939 292.482 431.445 290.63 431.445C288.777 431.445 287.277 429.939 287.277 428.086C287.277 426.241 288.777 424.734 290.63 424.734C292.482 424.734 293.982 426.241 293.982 428.086Z" fill="#00DDB6"/>
<path d="M322.724 428.086C322.724 429.939 321.224 431.445 319.372 431.445C317.52 431.445 316.02 429.939 316.02 428.086C316.02 426.241 317.52 424.734 319.372 424.734C321.224 424.734 322.724 426.241 322.724 428.086Z" fill="#00DDB6"/>
<path d="M351.467 428.086C351.467 429.939 349.967 431.445 348.115 431.445C346.262 431.445 344.756 429.939 344.756 428.086C344.756 426.241 346.262 424.734 348.115 424.734C349.967 424.734 351.467 426.241 351.467 428.086Z" fill="#00DDB6"/>
<path d="M380.209 428.086C380.209 429.939 378.703 431.445 376.85 431.445C374.998 431.445 373.498 429.939 373.498 428.086C373.498 426.241 374.998 424.734 376.85 424.734C378.703 424.734 380.209 426.241 380.209 428.086Z" fill="#00DDB6"/>
<path d="M207.76 456.647C207.76 458.499 206.253 460 204.401 460C202.549 460 201.049 458.499 201.049 456.647C201.049 454.795 202.549 453.295 204.401 453.295C206.253 453.295 207.76 454.795 207.76 456.647Z" fill="#00DDB6"/>
<path d="M236.494 456.647C236.494 458.499 234.994 460 233.141 460C231.289 460 229.789 458.499 229.789 456.647C229.789 454.795 231.289 453.295 233.141 453.295C234.994 453.295 236.494 454.795 236.494 456.647Z" fill="#00DDB6"/>
<path d="M265.24 456.647C265.24 458.499 263.74 460 261.887 460C260.035 460 258.535 458.499 258.535 456.647C258.535 454.795 260.035 453.295 261.887 453.295C263.74 453.295 265.24 454.795 265.24 456.647Z" fill="#00DDB6"/>
<path d="M293.982 456.647C293.982 458.499 292.482 460 290.63 460C288.777 460 287.277 458.499 287.277 456.647C287.277 454.795 288.777 453.295 290.63 453.295C292.482 453.295 293.982 454.795 293.982 456.647Z" fill="#00DDB6"/>
<path d="M322.724 456.647C322.724 458.499 321.224 460 319.372 460C317.52 460 316.02 458.499 316.02 456.647C316.02 454.795 317.52 453.295 319.372 453.295C321.224 453.295 322.724 454.795 322.724 456.647Z" fill="#00DDB6"/>
<path d="M351.467 456.647C351.467 458.499 349.967 460 348.115 460C346.262 460 344.756 458.499 344.756 456.647C344.756 454.795 346.262 453.295 348.115 453.295C349.967 453.295 351.467 454.795 351.467 456.647Z" fill="#00DDB6"/>
<path d="M380.209 456.647C380.209 458.499 378.703 460 376.85 460C374.998 460 373.498 458.499 373.498 456.647C373.498 454.795 374.998 453.295 376.85 453.295C378.703 453.295 380.209 454.795 380.209 456.647Z" fill="#00DDB6"/>
<path d="M6.71118 399.359C6.71118 401.211 5.20459 402.711 3.35234 402.711C1.50009 402.711 0 401.211 0 399.359C0 397.507 1.50009 396.007 3.35234 396.007C5.20459 396.007 6.71118 397.507 6.71118 399.359Z" fill="#00DDB6"/>
<path d="M35.4448 399.359C35.4448 401.211 33.9448 402.711 32.0926 402.711C30.2403 402.711 28.7402 401.211 28.7402 399.359C28.7402 397.507 30.2403 396.007 32.0926 396.007C33.9448 396.007 35.4448 397.507 35.4448 399.359Z" fill="#00DDB6"/>
<path d="M64.191 399.359C64.191 401.211 62.6909 402.711 60.8387 402.711C58.9864 402.711 57.4863 401.211 57.4863 399.359C57.4863 397.507 58.9864 396.007 60.8387 396.007C62.6909 396.007 64.191 397.507 64.191 399.359Z" fill="#00DDB6"/>
<path d="M92.9331 399.359C92.9331 401.211 91.433 402.711 89.5807 402.711C87.7285 402.711 86.2285 401.211 86.2285 399.359C86.2285 397.507 87.7285 396.007 89.5807 396.007C91.433 396.007 92.9331 397.507 92.9331 399.359Z" fill="#00DDB6"/>
<path d="M121.675 399.359C121.675 401.211 120.175 402.711 118.323 402.711C116.471 402.711 114.971 401.211 114.971 399.359C114.971 397.507 116.471 396.007 118.323 396.007C120.175 396.007 121.675 397.507 121.675 399.359Z" fill="#00DDB6"/>
<path d="M150.418 399.359C150.418 401.211 148.918 402.711 147.066 402.711C145.214 402.711 143.707 401.211 143.707 399.359C143.707 397.507 145.214 396.007 147.066 396.007C148.918 396.007 150.418 397.507 150.418 399.359Z" fill="#00DDB6"/>
<path d="M179.16 399.359C179.16 401.211 177.654 402.711 175.801 402.711C173.949 402.711 172.449 401.211 172.449 399.359C172.449 397.507 173.949 396.007 175.801 396.007C177.654 396.007 179.16 397.507 179.16 399.359Z" fill="#00DDB6"/>
<path d="M6.71118 428.086C6.71118 429.939 5.20459 431.445 3.35234 431.445C1.50009 431.445 0 429.939 0 428.086C0 426.241 1.50009 424.734 3.35234 424.734C5.20459 424.734 6.71118 426.241 6.71118 428.086Z" fill="#00DDB6"/>
<path d="M35.4448 428.086C35.4448 429.939 33.9448 431.445 32.0926 431.445C30.2403 431.445 28.7402 429.939 28.7402 428.086C28.7402 426.241 30.2403 424.734 32.0926 424.734C33.9448 424.734 35.4448 426.241 35.4448 428.086Z" fill="#00DDB6"/>
<path d="M64.191 428.086C64.191 429.939 62.6909 431.445 60.8387 431.445C58.9864 431.445 57.4863 429.939 57.4863 428.086C57.4863 426.241 58.9864 424.734 60.8387 424.734C62.6909 424.734 64.191 426.241 64.191 428.086Z" fill="#00DDB6"/>
<path d="M92.9331 428.086C92.9331 429.939 91.433 431.445 89.5807 431.445C87.7285 431.445 86.2285 429.939 86.2285 428.086C86.2285 426.241 87.7285 424.734 89.5807 424.734C91.433 424.734 92.9331 426.241 92.9331 428.086Z" fill="#00DDB6"/>
<path d="M121.675 428.086C121.675 429.939 120.175 431.445 118.323 431.445C116.471 431.445 114.971 429.939 114.971 428.086C114.971 426.241 116.471 424.734 118.323 424.734C120.175 424.734 121.675 426.241 121.675 428.086Z" fill="#00DDB6"/>
<path d="M150.418 428.086C150.418 429.939 148.918 431.445 147.066 431.445C145.214 431.445 143.707 429.939 143.707 428.086C143.707 426.241 145.214 424.734 147.066 424.734C148.918 424.734 150.418 426.241 150.418 428.086Z" fill="#00DDB6"/>
<path d="M179.16 428.086C179.16 429.939 177.654 431.445 175.801 431.445C173.949 431.445 172.449 429.939 172.449 428.086C172.449 426.241 173.949 424.734 175.801 424.734C177.654 424.734 179.16 426.241 179.16 428.086Z" fill="#00DDB6"/>
<path d="M6.71118 456.647C6.71118 458.499 5.20459 460 3.35234 460C1.50009 460 0 458.499 0 456.647C0 454.795 1.50009 453.295 3.35234 453.295C5.20459 453.295 6.71118 454.795 6.71118 456.647Z" fill="#00DDB6"/>
<path d="M35.4448 456.647C35.4448 458.499 33.9448 460 32.0926 460C30.2403 460 28.7402 458.499 28.7402 456.647C28.7402 454.795 30.2403 453.295 32.0926 453.295C33.9448 453.295 35.4448 454.795 35.4448 456.647Z" fill="#00DDB6"/>
<path d="M64.191 456.647C64.191 458.499 62.6909 460 60.8387 460C58.9864 460 57.4863 458.499 57.4863 456.647C57.4863 454.795 58.9864 453.295 60.8387 453.295C62.6909 453.295 64.191 454.795 64.191 456.647Z" fill="#00DDB6"/>
<path d="M92.9331 456.647C92.9331 458.499 91.433 460 89.5807 460C87.7285 460 86.2285 458.499 86.2285 456.647C86.2285 454.795 87.7285 453.295 89.5807 453.295C91.433 453.295 92.9331 454.795 92.9331 456.647Z" fill="#00DDB6"/>
<path d="M121.675 456.647C121.675 458.499 120.175 460 118.323 460C116.471 460 114.971 458.499 114.971 456.647C114.971 454.795 116.471 453.295 118.323 453.295C120.175 453.295 121.675 454.795 121.675 456.647Z" fill="#00DDB6"/>
<path d="M150.418 456.647C150.418 458.499 148.918 460 147.066 460C145.214 460 143.707 458.499 143.707 456.647C143.707 454.795 145.214 453.295 147.066 453.295C148.918 453.295 150.418 454.795 150.418 456.647Z" fill="#00DDB6"/>
<path d="M179.16 456.647C179.16 458.499 177.654 460 175.801 460C173.949 460 172.449 458.499 172.449 456.647C172.449 454.795 173.949 453.295 175.801 453.295C177.654 453.295 179.16 454.795 179.16 456.647Z" fill="#00DDB6"/>
<rect x="50" width="407" height="408" fill="#00DDB6"/>
<path d="M208.184 332.258C167.194 332.258 137.514 324.582 136.056 311.827C134.118 294.872 182.816 275.364 244.846 268.246C260.226 266.482 274.977 265.65 288.503 265.65C329.516 265.65 359.206 273.325 360.663 286.076C362.616 303.045 313.904 322.548 251.879 329.657C236.485 331.425 221.719 332.263 208.184 332.258Z" fill="#02B999"/>
<path d="M332.203 129.601L360.154 134.307Z" fill="#253B4C"/>
<path d="M359.816 136.365L331.865 131.659L332.546 127.545L360.496 132.25L359.816 136.365Z" fill="#253B4C"/>
<path d="M351.892 166.798L350.648 164.953L358.206 159.855C359.577 158.947 360.533 157.518 360.863 155.906L363.568 142.867C363.937 141.165 363.568 139.424 362.59 137.972C361.587 136.53 360.084 135.608 358.357 135.323L355.779 134.913L356.12 132.737L358.712 133.149C361.029 133.512 363.062 134.78 364.401 136.719C365.735 138.658 366.222 140.999 365.735 143.331L363.015 156.36C362.565 158.522 361.265 160.46 359.444 161.69L351.892 166.798" fill="#253B4C"/>
<path d="M166.402 101.141C190.631 87.652 217.384 79.6226 244.635 77.0256C271.866 74.2918 299.66 76.9881 326.05 85.5333C349.5 93.1293 352.984 111.663 353.164 121.137C351.415 111.3 345.417 98.2555 326.703 92.1922C300.314 83.6567 272.52 80.9604 245.287 83.6942C218.038 86.29 191.293 94.3073 167.05 107.814C149.864 117.376 146.515 131.337 146.705 141.322C145.04 131.999 144.86 113.129 166.402 101.141" fill="#55748A"/>
<path d="M167.048 107.815C191.291 94.3087 218.036 86.2914 245.285 83.6956C272.518 80.9618 300.312 83.6581 326.701 92.1936C345.415 98.2569 351.413 111.301 353.162 121.138V121.975C341.873 125.418 324.535 126.899 299.422 120.121L297.938 116.928C294.296 107.233 284.978 100.707 274.622 100.919C265.447 101.1 256.272 101.667 247.13 102.584C237.978 103.45 228.875 104.68 219.832 106.273C209.626 108.076 201.751 116.276 200.064 126.505L197.41 137.25C195.864 141.838 190.922 145.929 186.367 146.369L157.769 153.888C153.228 154.338 148.901 151.216 148.12 146.913C148.12 146.913 147.308 144.76 146.703 141.323C146.513 131.338 149.861 117.378 167.048 107.815" fill="#4D627A"/>
<path d="M353.168 121.976C353.168 124.983 352.846 126.9 352.846 126.9C352.922 131.26 349.29 135.162 344.74 135.611L315.214 133.775C310.674 134.215 305.037 131.165 302.625 126.965L299.428 120.122C324.54 126.9 341.879 125.419 353.168 121.976" fill="#253B4C"/>
<path d="M146.766 142.159C147.356 145.106 148.043 146.926 148.043 146.926C148.823 151.215 153.141 154.346 157.691 153.897L186.294 146.377C190.834 145.928 195.777 141.852 197.337 137.25L199.129 129.933C175.813 141.435 158.518 143.342 146.766 142.159Z" fill="#253B4C"/>
<path d="M365.872 174.424C365.078 171.705 362.476 171.53 359.213 171.592C362.041 170.191 364.202 168.985 363.233 166.295C362.302 163.718 359.851 163.584 356.777 163.797C354.341 164.531 352.758 164.847 350.346 165.643C351.353 167.968 352.971 168.338 356.172 168.163C353.41 169.648 351.363 170.915 352.175 173.351C352.994 175.81 355.5 175.843 358.787 175.857C355.893 177.182 353.736 178.326 354.398 180.8C355.042 183.258 357.519 183.449 360.788 183.637C357.818 184.772 355.618 185.774 356.105 188.248C356.574 190.716 359.071 191.039 362.31 191.408C359.275 192.378 356.99 193.237 357.321 195.711C357.628 198.171 360.088 198.63 363.319 199.196C360.22 199.963 357.874 200.672 358.054 203.131C358.211 205.596 360.645 206.187 363.833 206.944C360.679 207.52 358.29 208.088 358.315 210.524C358.315 212.96 360.694 213.692 363.815 214.615C360.655 215.002 358.243 215.433 358.102 217.83C357.96 220.228 360.277 221.094 363.327 222.196C360.94 222.338 358.977 222.546 358.054 223.638L357.95 223.884L357.464 224.995V225.019L357.454 225.066C357.164 227.346 359.293 228.363 362.136 229.583C359.094 229.597 356.792 229.772 356.375 232.018L356.39 232.113L356.342 232.208L356.399 232.222C356.139 234.383 358.243 235.509 361.048 236.904C357.865 236.715 355.43 236.677 354.876 238.956C354.294 241.217 356.408 242.461 359.213 244.055C356.068 243.676 353.641 243.497 352.961 245.71C352.237 247.923 354.304 249.29 357.013 251.054C353.883 250.487 351.457 250.156 350.629 252.317C349.792 254.459 351.765 255.949 354.365 257.874C351.267 257.108 348.87 256.635 347.91 258.716C346.94 260.806 348.832 262.414 351.324 264.5C348.279 263.54 345.9 262.901 344.812 264.921C343.724 266.935 345.498 268.638 347.848 270.87C344.868 269.711 342.551 268.945 341.36 270.88C340.13 272.833 341.832 274.654 344.055 277.028C341.132 275.694 338.844 274.758 337.519 276.626C336.18 278.484 337.78 280.423 339.846 282.954L339.586 282.826C341.477 284.387 343.355 285.966 345.214 287.574L345.27 287.541C346.831 285.498 345.299 283.403 343.171 280.929C346.042 282.377 348.336 283.417 349.778 281.275C351.211 279.146 349.565 277.184 347.309 274.866C350.242 276.12 352.569 276.98 353.869 274.781C355.155 272.573 353.41 270.705 350.998 268.529C353.996 269.593 356.39 270.317 357.558 268.032C358.707 265.729 356.839 263.965 354.304 261.946C357.368 262.816 359.789 263.398 360.821 261.033C361.838 258.659 359.866 257.013 357.213 255.145C360.324 255.831 362.769 256.247 363.659 253.811C364.524 251.385 362.461 249.858 359.734 248.16C362.855 248.642 365.314 248.916 366.046 246.419C366.756 243.927 364.604 242.518 361.766 240.981C364.926 241.274 367.405 241.397 367.986 238.843C368.515 236.407 366.487 235.116 363.739 233.816C366.709 233.896 369.026 233.768 369.428 231.276V231.191L369.452 231.129C369.854 228.58 367.631 227.422 364.713 226.249C367.016 226.178 368.946 226.026 369.869 224.868L370.114 224.215L370.459 223.326V223.316H370.445C370.691 220.668 368.316 219.651 365.234 218.611C368.402 218.341 370.871 217.996 370.98 215.315C371.06 212.628 368.624 211.744 365.48 210.893C368.624 210.405 371.074 209.923 370.998 207.212C370.918 204.493 368.421 203.746 365.234 203.066C368.341 202.404 370.752 201.764 370.516 199.032C370.256 196.303 367.726 195.697 364.486 195.201C367.551 194.349 369.916 193.554 369.499 190.825C369.065 188.092 366.52 187.634 363.267 187.326C366.259 186.285 368.554 185.354 367.962 182.635C367.348 179.887 364.761 179.579 361.483 179.452C364.406 178.236 366.648 177.158 365.872 174.424Z" fill="#253B4C"/>
<path d="M316.916 281.605L344.867 286.311Z" fill="#253B4C"/>
<path d="M344.529 288.368L316.578 283.662L317.263 279.548L345.214 284.253L344.529 288.368Z" fill="#253B4C"/>
<path d="M211.357 167.91L221.487 150.467C222.055 149.512 223.143 148.983 224.239 149.134L234.508 150.553C235.793 150.742 236.787 151.796 236.872 153.092L238.215 172.686L211.357 167.91Z" fill="#253B4C"/>
<path d="M314.386 182.219L309.388 162.686C309.118 161.599 308.205 160.795 307.108 160.644L296.84 159.21C295.555 159.035 294.31 159.778 293.875 161.007L287.244 179.499L314.386 182.219Z" fill="#253B4C"/>
<path d="M193.939 274.829L181.988 273.164C179.931 272.881 178.039 274.309 177.755 276.371L176.488 285.498C176.209 287.556 177.637 289.443 179.685 289.731L191.651 291.396C193.708 291.68 195.594 290.237 195.883 288.19L197.146 279.062C197.43 277.009 195.996 275.113 193.939 274.829Z" fill="#253B4C"/>
<path d="M313.298 291.393L301.342 289.737C299.29 289.454 297.392 290.886 297.109 292.93L295.846 302.067C295.563 304.114 296.991 306.006 299.039 306.29L311.005 307.955C313.062 308.243 314.953 306.81 315.237 304.767L316.505 295.625C316.783 293.568 315.355 291.676 313.298 291.393Z" fill="#253B4C"/>
<path d="M314.281 181.522C299.596 177.818 284.802 174.839 269.914 172.554C265.563 171.897 261.203 171.291 256.829 170.738C241.898 168.88 226.844 167.721 211.695 167.272C195.124 194.064 179.952 220.084 170.92 245.259C195.237 249.951 219.655 254.07 244.139 257.579C248.915 258.265 253.683 258.927 258.474 259.565C282.996 262.862 307.597 265.562 332.285 267.662C330.44 240.979 322.93 211.8 314.281 181.522" fill="#4D627A"/>
<path d="M332.287 267.661C307.599 265.561 282.997 262.861 258.475 259.564C253.685 258.926 248.917 258.264 244.14 257.578C219.656 254.069 195.239 249.949 170.921 245.258C169.312 256.788 168.754 268.361 169.384 279.986L171.016 282.038C220.286 297.115 270.662 304.115 322.165 303.027L324.308 301.49C328.064 290.485 330.687 279.201 332.287 267.661" fill="#394759"/>
<path d="M294.314 223.095C291.949 240.13 273.481 251.636 253.065 248.808C232.658 245.97 218.021 229.867 220.385 212.827C222.75 195.807 241.218 184.29 261.625 187.128C282.047 189.952 296.67 206.064 294.314 223.095Z" fill="#2E3647"/>
<path d="M293.695 221.543C291.354 238.38 273.099 249.754 252.914 246.954C232.733 244.149 218.276 228.235 220.613 211.398C222.953 194.548 241.208 183.179 261.379 185.978C281.564 188.783 296.036 204.706 293.695 221.543" fill="white"/>
<path d="M275.577 219.022C274.394 227.512 265.187 233.249 255.013 231.83C244.836 230.421 237.553 222.395 238.72 213.906C239.908 205.416 249.107 199.685 259.284 201.104C269.452 202.508 276.75 210.539 275.577 219.022Z" fill="#253B4C"/>
<path d="M260.318 240.515C259.931 243.367 256.819 245.306 253.399 244.833C249.97 244.346 247.526 241.655 247.913 238.789C248.315 235.927 251.418 234.003 254.833 234.475C258.261 234.948 260.72 237.658 260.318 240.515Z" fill="#2E3647"/>
<path d="M254.701 194.608C254.984 197.574 252.345 200.056 248.812 200.142C245.289 200.237 242.192 197.895 241.917 194.916C241.638 191.936 244.272 189.463 247.804 189.368C251.342 189.288 254.426 191.629 254.701 194.608Z" fill="#2E3647"/>
<path d="M267.828 191.171C270.08 193.57 269.664 196.951 266.92 198.715C264.178 200.489 260.12 199.964 257.887 197.566C255.641 195.163 256.058 191.796 258.795 190.022C261.553 188.258 265.597 188.769 267.828 191.171Z" fill="#2E3647"/>
<path d="M241.084 197.926C243.331 200.344 242.915 203.725 240.173 205.485C237.415 207.258 233.362 206.738 231.13 204.334C228.878 201.937 229.294 198.556 232.038 196.796C234.79 195.018 238.834 195.543 241.084 197.926" fill="#2E3647"/>
<path d="M233.104 229.904C229.698 230.632 226.103 228.873 225.078 225.979C224.046 223.079 225.962 220.133 229.368 219.415C232.772 218.696 236.367 220.455 237.398 223.354C238.424 226.248 236.508 229.18 233.104 229.904" fill="#2E3647"/>
<path d="M278.324 205.415C275.231 206.668 271.372 205.524 269.721 202.837C268.075 200.165 269.258 196.982 272.356 195.729C275.468 194.481 279.322 195.625 280.963 198.297C282.603 200.969 281.436 204.147 278.324 205.415" fill="#2E3647"/>
<path d="M227.556 217.169C224.221 216.176 222.353 213.135 223.379 210.391C224.396 207.639 227.919 206.206 231.253 207.213C234.587 208.207 236.456 211.247 235.43 213.986C234.413 216.744 230.89 218.171 227.556 217.169Z" fill="#2E3647"/>
<path d="M283.269 216.444C279.822 216.01 277.31 213.305 277.664 210.42C278.034 207.53 281.122 205.558 284.57 206.007C288.022 206.447 290.528 209.152 290.173 212.037C289.819 214.922 286.726 216.898 283.269 216.444Z" fill="#2E3647"/>
<path d="M245.044 237.809C242.845 239.947 238.919 240.103 236.247 238.164C233.584 236.215 233.197 232.89 235.396 230.753C237.586 228.596 241.521 228.445 244.178 230.398C246.84 232.347 247.234 235.657 245.044 237.809" fill="#2E3647"/>
<path d="M289.557 225.811C287.878 228.351 283.985 229.164 280.878 227.632C277.757 226.09 276.599 222.784 278.277 220.24C279.956 217.701 283.848 216.882 286.955 218.419C290.077 219.956 291.236 223.267 289.557 225.811Z" fill="#2E3647"/>
<path d="M260.295 240.918C259.903 243.685 256.899 245.567 253.579 245.104C250.269 244.645 247.89 242.02 248.268 239.253C248.66 236.487 251.649 234.605 254.969 235.068C258.295 235.527 260.668 238.152 260.295 240.918Z" fill="#253B4C"/>
<path d="M254.63 194.93C254.9 197.729 252.407 200.071 249.068 200.151C245.748 200.237 242.83 198.029 242.57 195.223C242.305 192.424 244.793 190.068 248.127 189.998C251.462 189.912 254.365 192.126 254.63 194.93Z" fill="#253B4C"/>
<path d="M267.787 191.607C269.891 193.862 269.514 197.045 266.922 198.715C264.335 200.379 260.513 199.896 258.399 197.636C256.295 195.375 256.673 192.183 259.275 190.518C261.862 188.849 265.673 189.336 267.787 191.607" fill="#253B4C"/>
<path d="M240.901 198.477C243.005 200.733 242.628 203.916 240.036 205.581C237.448 207.25 233.627 206.762 231.513 204.502C229.409 202.232 229.787 199.054 232.379 197.384C234.966 195.729 238.787 196.207 240.901 198.477Z" fill="#253B4C"/>
<path d="M233.225 229.892C230.033 230.577 226.652 228.922 225.682 226.188C224.712 223.469 226.518 220.702 229.716 220.03C232.917 219.345 236.29 221 237.255 223.729C238.224 226.449 236.432 229.215 233.225 229.892Z" fill="#253B4C"/>
<path d="M278.468 205.567C275.526 206.764 271.861 205.662 270.286 203.123C268.725 200.583 269.837 197.556 272.792 196.36C275.749 195.162 279.413 196.264 280.974 198.804C282.549 201.349 281.423 204.376 278.468 205.567Z" fill="#253B4C"/>
<path d="M227.786 217.308C224.594 216.348 222.797 213.43 223.767 210.791C224.745 208.158 228.141 206.786 231.334 207.746C234.526 208.701 236.323 211.609 235.339 214.258C234.361 216.897 230.979 218.255 227.786 217.308" fill="#253B4C"/>
<path d="M283.457 216.376C280.123 215.945 277.711 213.349 278.056 210.583C278.411 207.802 281.376 205.896 284.71 206.321C288.021 206.752 290.442 209.348 290.087 212.129C289.747 214.895 286.782 216.796 283.457 216.376Z" fill="#253B4C"/>
<path d="M245.196 238.071C243.068 240.142 239.261 240.303 236.669 238.416C234.091 236.52 233.719 233.304 235.847 231.223C237.961 229.156 241.782 228.99 244.36 230.882C246.947 232.774 247.31 235.99 245.196 238.071Z" fill="#253B4C"/>
<path d="M289.408 225.831C287.823 228.248 284.149 229.014 281.202 227.557C278.261 226.105 277.158 222.97 278.758 220.573C280.336 218.169 284.007 217.403 286.948 218.861C289.895 220.312 290.992 223.433 289.408 225.831Z" fill="#253B4C"/>
<path d="M262.48 219.098C260.895 221.495 257.231 222.276 254.274 220.824C251.342 219.368 250.24 216.237 251.83 213.833C253.408 211.436 257.079 210.665 260.02 212.117C262.967 213.565 264.064 216.694 262.48 219.098Z" fill="#30506A"/>
<path d="M282.048 244.053L273.167 234.665L272.008 235.199L273.308 247.836L274.239 248.38L281.821 245.14L282.048 244.053" fill="#30506A"/>
</svg>
