<svg width="130" height="130" viewBox="0 0 130 130" fill="none" xmlns="http://www.w3.org/2000/svg">
<path d="M124.914 110.027H115.548V62.2456C115.548 60.2963 113.963 58.7106 112.014 58.7106H83.0748V44.9339C83.0748 42.9846 81.4891 41.3989 79.5401 41.3989H50.3333C48.384 41.3989 46.7986 42.9846 46.7986 44.9339V58.4101C46.7986 59.4603 47.6498 60.3118 48.7002 60.3118C49.7507 60.3118 50.6018 59.4603 50.6018 58.4101V45.2022H79.2718V110.027H50.6016V66.5141C50.6016 65.4639 49.7504 64.6125 48.7 64.6125C47.6495 64.6125 46.7983 65.4639 46.7983 66.5141V73.3149H17.8596C15.9103 73.3149 14.3248 74.9006 14.3248 76.8499V110.027H4.95945C2.22491 110.027 0 112.252 0 114.987V127.819C0 128.87 0.851169 129.721 1.90163 129.721H127.972C129.022 129.721 129.873 128.87 129.873 127.819V114.987C129.873 112.252 127.649 110.027 124.914 110.027V110.027ZM18.1281 77.1181H46.7983V110.027H18.1281V77.1181ZM126.07 125.918H3.80326V114.987C3.80326 114.349 4.32177 113.831 4.95945 113.831H94.3677C95.4182 113.831 96.2693 112.979 96.2693 111.929C96.2693 110.879 95.4182 110.027 94.3677 110.027H83.0751V62.5139H111.745V110.027H102.472C101.421 110.027 100.57 110.879 100.57 111.929C100.57 112.979 101.421 113.831 102.472 113.831H124.914C125.552 113.831 126.07 114.349 126.07 114.987V125.918H126.07Z" fill="#00DDB6"/>
<path d="M53.6299 23.1814L52.1225 31.9704C51.9024 33.2524 52.4194 34.524 53.4717 35.2884C54.5239 36.0529 55.8926 36.152 57.0447 35.5468L64.938 31.3969L72.8313 35.5468C73.3323 35.81 73.8739 35.94 74.4132 35.94C75.1137 35.94 75.8095 35.7205 76.4043 35.2884C77.4565 34.5237 77.9735 33.2524 77.7534 31.9704L76.2461 23.1811L82.6323 16.9564C83.5636 16.0485 83.8927 14.7161 83.4905 13.479C83.0887 12.2419 82.0392 11.357 80.7519 11.1702L71.9269 9.88771L67.9798 1.89123C67.4043 0.724648 66.2387 0 64.9377 0C63.6368 0 62.4709 0.724647 61.8956 1.89098L57.9491 9.88771L49.124 11.1702C47.8368 11.357 46.7873 12.2419 46.3854 13.479C45.9833 14.7161 46.3124 16.0485 47.2437 16.9564L53.6299 23.1814ZM58.7098 13.6205C59.8147 13.46 60.7699 12.766 61.264 11.7647L64.9377 4.32075L68.6114 11.7647C69.1056 12.766 70.0607 13.46 71.166 13.6205L79.3807 14.8142L73.4362 20.6088C72.6365 21.3885 72.2717 22.511 72.4606 23.6116L73.8637 31.7935L66.5163 27.9309C65.5275 27.4106 64.347 27.4108 63.3586 27.9306L56.011 31.7935L57.4144 23.6116C57.603 22.5112 57.2384 21.3885 56.4385 20.6088L50.494 14.8145L58.7098 13.6205Z" fill="#00DDB6"/>
<path d="M92.4648 17.97C92.4648 19.0202 93.316 19.8716 94.3665 19.8716H97.0899C98.1403 19.8716 98.9915 19.0202 98.9915 17.97C98.9915 16.9198 98.1403 16.0684 97.0899 16.0684H94.3665C93.316 16.0684 92.4648 16.9195 92.4648 17.97Z" fill="#00DDB6"/>
<path d="M91.0908 6.58768C91.3534 6.58768 91.6207 6.53291 91.8755 6.4173L94.3555 5.29178C95.3116 4.85771 95.735 3.73042 95.301 2.77428C94.8671 1.81814 93.7399 1.39471 92.7835 1.82854L90.3035 2.95405C89.3473 3.38813 88.9239 4.51541 89.358 5.47155C89.6762 6.17287 90.3674 6.58768 91.0908 6.58768V6.58768Z" fill="#00DDB6"/>
<path d="M90.3035 32.9861L92.7835 34.1116C93.0385 34.2273 93.3055 34.282 93.5682 34.282C94.2916 34.282 94.9828 33.8672 95.301 33.1659C95.735 32.2097 95.3116 31.0825 94.3555 30.6484L91.8755 29.5229C90.9186 29.089 89.7916 29.5125 89.358 30.4686C88.9239 31.4248 89.3473 32.552 90.3035 32.9861V32.9861Z" fill="#00DDB6"/>
<path d="M33.0344 19.8716H35.7578C36.8083 19.8716 37.6595 19.0202 37.6595 17.97C37.6595 16.9198 36.8083 16.0684 35.7578 16.0684H33.0344C31.984 16.0684 31.1328 16.9198 31.1328 17.97C31.1328 19.0202 31.984 19.8716 33.0344 19.8716Z" fill="#00DDB6"/>
<path d="M35.7742 5.29189L38.2542 6.4174C38.5092 6.53302 38.7762 6.58779 39.0389 6.58779C39.7623 6.58779 40.4535 6.17298 40.7717 5.47166C41.2057 4.51552 40.7823 3.38824 39.8262 2.95416L37.3462 1.82865C36.389 1.39457 35.2623 1.81825 34.8287 2.77439C34.3946 3.73053 34.818 4.85781 35.7742 5.29189Z" fill="#00DDB6"/>
<path d="M38.2542 29.5228L35.7742 30.6483C34.818 31.0824 34.3946 32.2096 34.8287 33.1658C35.1469 33.8674 35.8381 34.2819 36.5615 34.2819C36.8241 34.2819 37.0914 34.2271 37.3462 34.1115L39.8262 32.986C40.7823 32.5519 41.2057 31.4246 40.7717 30.4685C40.3378 29.5124 39.2108 29.0892 38.2542 29.5228V29.5228Z" fill="#00DDB6"/>
<line x1="48.8302" y1="54.46" x2="48.8302" y2="77.0356" stroke="#00DDB6" stroke-width="3.80489"/>
<line x1="108.82" y1="111.914" x2="86.2447" y2="111.914" stroke="#00DDB6" stroke-width="3.80489"/>
</svg>
