<svg width="281" height="280" viewBox="0 0 281 280" fill="none" xmlns="http://www.w3.org/2000/svg">
<path d="M20.5383 203.027C48.0466 237.68 70.286 225.8 102.504 246.111C120.864 257.68 133.559 281.79 159.383 279.894C178.806 278.465 196.467 263.64 205.174 246.841C209.24 238.993 208.681 227.16 213.112 219.895C222.261 204.907 237.361 201.247 251.817 191.628C268.478 180.533 282.018 166.29 280.94 142.911C279.892 120.106 261.851 103.944 255.519 82.7015C248.892 60.4639 256.015 43.0282 233.559 27.4418C215.696 15.0487 195.629 22.368 177.06 17.8071C129.594 6.15994 103.661 -20.2423 67.9891 27.6749C53.0671 47.7213 46.3239 73.0901 30.2923 91.2484C1.79851 123.548 -15.9558 157.052 20.5383 203.027Z" fill="url(#paint0_linear)"/>
<path fill-rule="evenodd" clip-rule="evenodd" d="M114.391 103.876L69.2129 137.779L144.511 224.42L147.899 220.521L121.1 143.428L151.219 109.526L181.338 143.428L158.964 207.789L219.808 137.779L174.63 103.876L114.391 103.876Z" fill="#A6FFEA"/>
<path d="M153.102 111.41L175.691 137.779L153.102 201.818" stroke="black" stroke-width="1.95782" stroke-linecap="round" stroke-linejoin="round"/>
<path d="M138.04 111.41L115.451 137.779L138.04 201.818" stroke="black" stroke-width="1.95782" stroke-linecap="round" stroke-linejoin="round"/>
<path d="M69.6859 136.996L68.8447 137.627L69.5346 138.421L144.832 225.062L145.571 225.912L146.31 225.062L221.608 138.421L222.297 137.627L221.456 136.996L176.278 103.093L176.017 102.897L175.69 102.897L115.452 102.897L115.126 102.897L114.864 103.093L69.6859 136.996Z" stroke="black" stroke-width="1.95782"/>
<path d="M81.5684 137.779H209.574" stroke="black" stroke-width="1.95782" stroke-linecap="round" stroke-linejoin="round"/>
<defs>
<linearGradient id="paint0_linear" x1="64.8398" y1="25.7376" x2="222.314" y2="246.005" gradientUnits="userSpaceOnUse">
<stop stop-color="#C9FDBC"/>
<stop offset="1" stop-color="#CAFFF2"/>
</linearGradient>
</defs>
</svg>
