<svg width="501" height="761" viewBox="0 0 501 761" fill="none" xmlns="http://www.w3.org/2000/svg">
<path d="M271.812 4.4019C271.812 6.8341 269.834 8.80371 267.402 8.80371C264.97 8.80371 263 6.8341 263 4.4019C263 1.96969 264.97 -8.77576e-05 267.402 -8.77576e-05C269.834 -8.77576e-05 271.812 1.96969 271.812 4.4019Z" fill="#00DDB6"/>
<path d="M309.546 4.4019C309.546 6.8341 307.576 8.80371 305.144 8.80371C302.712 8.80371 300.742 6.8341 300.742 4.4019C300.742 1.96969 302.712 -8.77576e-05 305.144 -8.77576e-05C307.576 -8.77576e-05 309.546 1.96969 309.546 4.4019Z" fill="#00DDB6"/>
<path d="M347.292 4.4019C347.292 6.8341 345.322 8.80371 342.89 8.80371C340.458 8.80371 338.488 6.8341 338.488 4.4019C338.488 1.96969 340.458 -8.77576e-05 342.89 -8.77576e-05C345.322 -8.77576e-05 347.292 1.96969 347.292 4.4019Z" fill="#00DDB6"/>
<path d="M385.03 4.4019C385.03 6.8341 383.061 8.80371 380.628 8.80371C378.196 8.80371 376.227 6.8341 376.227 4.4019C376.227 1.96969 378.196 -8.77576e-05 380.628 -8.77576e-05C383.061 -8.77576e-05 385.03 1.96969 385.03 4.4019Z" fill="#00DDB6"/>
<path d="M422.773 4.4019C422.773 6.8341 420.803 8.80371 418.371 8.80371C415.939 8.80371 413.969 6.8341 413.969 4.4019C413.969 1.96969 415.939 -8.77576e-05 418.371 -8.77576e-05C420.803 -8.77576e-05 422.773 1.96969 422.773 4.4019Z" fill="#00DDB6"/>
<path d="M460.516 4.4019C460.516 6.8341 458.546 8.80371 456.114 8.80371C453.681 8.80371 451.703 6.8341 451.703 4.4019C451.703 1.96969 453.681 -8.77576e-05 456.114 -8.77576e-05C458.546 -8.77576e-05 460.516 1.96969 460.516 4.4019Z" fill="#00DDB6"/>
<path d="M498.258 4.4019C498.258 6.8341 496.279 8.80371 493.847 8.80371C491.415 8.80371 489.445 6.8341 489.445 4.4019C489.445 1.96969 491.415 -8.77576e-05 493.847 -8.77576e-05C496.279 -8.77576e-05 498.258 1.96969 498.258 4.4019Z" fill="#00DDB6"/>
<path d="M271.812 42.1237C271.812 44.5559 269.834 46.5342 267.402 46.5342C264.97 46.5342 263 44.5559 263 42.1237C263 39.7 264.97 37.7217 267.402 37.7217C269.834 37.7217 271.812 39.7 271.812 42.1237Z" fill="#00DDB6"/>
<path d="M309.546 42.1237C309.546 44.5559 307.576 46.5342 305.144 46.5342C302.712 46.5342 300.742 44.5559 300.742 42.1237C300.742 39.7 302.712 37.7217 305.144 37.7217C307.576 37.7217 309.546 39.7 309.546 42.1237Z" fill="#00DDB6"/>
<path d="M347.292 42.1237C347.292 44.5559 345.322 46.5342 342.89 46.5342C340.458 46.5342 338.488 44.5559 338.488 42.1237C338.488 39.7 340.458 37.7217 342.89 37.7217C345.322 37.7217 347.292 39.7 347.292 42.1237Z" fill="#00DDB6"/>
<path d="M385.03 42.1237C385.03 44.5559 383.061 46.5342 380.628 46.5342C378.196 46.5342 376.227 44.5559 376.227 42.1237C376.227 39.7 378.196 37.7217 380.628 37.7217C383.061 37.7217 385.03 39.7 385.03 42.1237Z" fill="#00DDB6"/>
<path d="M422.773 42.1237C422.773 44.5559 420.803 46.5342 418.371 46.5342C415.939 46.5342 413.969 44.5559 413.969 42.1237C413.969 39.7 415.939 37.7217 418.371 37.7217C420.803 37.7217 422.773 39.7 422.773 42.1237Z" fill="#00DDB6"/>
<path d="M460.516 42.1237C460.516 44.5559 458.546 46.5342 456.114 46.5342C453.681 46.5342 451.703 44.5559 451.703 42.1237C451.703 39.7 453.681 37.7217 456.114 37.7217C458.546 37.7217 460.516 39.7 460.516 42.1237Z" fill="#00DDB6"/>
<path d="M498.258 42.1237C498.258 44.5559 496.279 46.5342 493.847 46.5342C491.415 46.5342 489.445 44.5559 489.445 42.1237C489.445 39.7 491.415 37.7217 493.847 37.7217C496.279 37.7217 498.258 39.7 498.258 42.1237Z" fill="#00DDB6"/>
<path d="M271.812 79.6271C271.812 82.0593 269.834 84.0291 267.402 84.0291C264.97 84.0291 263 82.0593 263 79.6271C263 77.1949 264.97 75.2253 267.402 75.2253C269.834 75.2253 271.812 77.1949 271.812 79.6271Z" fill="#00DDB6"/>
<path d="M309.546 79.6273C309.546 82.0595 307.576 84.0293 305.144 84.0293C302.712 84.0293 300.742 82.0595 300.742 79.6273C300.742 77.1951 302.712 75.2255 305.144 75.2255C307.576 75.2255 309.546 77.1951 309.546 79.6273Z" fill="#00DDB6"/>
<path d="M347.292 79.6273C347.292 82.0595 345.322 84.0293 342.89 84.0293C340.458 84.0293 338.488 82.0595 338.488 79.6273C338.488 77.1951 340.458 75.2255 342.89 75.2255C345.322 75.2255 347.292 77.1951 347.292 79.6273Z" fill="#00DDB6"/>
<path d="M385.03 79.6271C385.03 82.0593 383.061 84.0291 380.628 84.0291C378.196 84.0291 376.227 82.0593 376.227 79.6271C376.227 77.1949 378.196 75.2253 380.628 75.2253C383.061 75.2253 385.03 77.1949 385.03 79.6271Z" fill="#00DDB6"/>
<path d="M422.773 79.6273C422.773 82.0595 420.803 84.0293 418.371 84.0293C415.939 84.0293 413.969 82.0595 413.969 79.6273C413.969 77.1951 415.939 75.2255 418.371 75.2255C420.803 75.2255 422.773 77.1951 422.773 79.6273Z" fill="#00DDB6"/>
<path d="M460.516 79.6271C460.516 82.0593 458.546 84.0291 456.114 84.0291C453.681 84.0291 451.703 82.0593 451.703 79.6271C451.703 77.1949 453.681 75.2253 456.114 75.2253C458.546 75.2253 460.516 77.1949 460.516 79.6271Z" fill="#00DDB6"/>
<path d="M498.258 79.6273C498.258 82.0595 496.279 84.0293 493.847 84.0293C491.415 84.0293 489.445 82.0595 489.445 79.6273C489.445 77.1951 491.415 75.2255 493.847 75.2255C496.279 75.2255 498.258 77.1951 498.258 79.6273Z" fill="#00DDB6"/>
<path d="M271.812 117.368C271.812 119.791 269.834 121.77 267.402 121.77C264.97 121.77 263 119.791 263 117.368C263 114.936 264.97 112.957 267.402 112.957C269.834 112.957 271.812 114.936 271.812 117.368Z" fill="#00DDB6"/>
<path d="M309.546 117.368C309.546 119.791 307.576 121.77 305.144 121.77C302.712 121.77 300.742 119.791 300.742 117.368C300.742 114.936 302.712 112.957 305.144 112.957C307.576 112.957 309.546 114.936 309.546 117.368Z" fill="#00DDB6"/>
<path d="M347.292 117.368C347.292 119.791 345.322 121.77 342.89 121.77C340.458 121.77 338.488 119.791 338.488 117.368C338.488 114.936 340.458 112.957 342.89 112.957C345.322 112.957 347.292 114.936 347.292 117.368Z" fill="#00DDB6"/>
<path d="M385.03 117.368C385.03 119.791 383.061 121.77 380.628 121.77C378.196 121.77 376.227 119.791 376.227 117.368C376.227 114.936 378.196 112.957 380.628 112.957C383.061 112.957 385.03 114.936 385.03 117.368Z" fill="#00DDB6"/>
<path d="M422.773 117.368C422.773 119.791 420.803 121.77 418.371 121.77C415.939 121.77 413.969 119.791 413.969 117.368C413.969 114.936 415.939 112.957 418.371 112.957C420.803 112.957 422.773 114.936 422.773 117.368Z" fill="#00DDB6"/>
<path d="M460.516 117.368C460.516 119.791 458.546 121.77 456.114 121.77C453.681 121.77 451.703 119.791 451.703 117.368C451.703 114.936 453.681 112.957 456.114 112.957C458.546 112.957 460.516 114.936 460.516 117.368Z" fill="#00DDB6"/>
<path d="M498.258 117.368C498.258 119.791 496.279 121.77 493.847 121.77C491.415 121.77 489.445 119.791 489.445 117.368C489.445 114.936 491.415 112.957 493.847 112.957C496.279 112.957 498.258 114.936 498.258 117.368Z" fill="#00DDB6"/>
<path d="M271.812 155.093C271.812 157.526 269.834 159.495 267.402 159.495C264.97 159.495 263 157.526 263 155.093C263 152.67 264.97 150.691 267.402 150.691C269.834 150.691 271.812 152.67 271.812 155.093Z" fill="#00DDB6"/>
<path d="M309.546 155.093C309.546 157.526 307.576 159.495 305.144 159.495C302.712 159.495 300.742 157.526 300.742 155.093C300.742 152.67 302.712 150.691 305.144 150.691C307.576 150.691 309.546 152.67 309.546 155.093Z" fill="#00DDB6"/>
<path d="M347.292 155.093C347.292 157.526 345.322 159.495 342.89 159.495C340.458 159.495 338.488 157.526 338.488 155.093C338.488 152.67 340.458 150.691 342.89 150.691C345.322 150.691 347.292 152.67 347.292 155.093Z" fill="#00DDB6"/>
<path d="M385.03 155.093C385.03 157.526 383.061 159.495 380.628 159.495C378.196 159.495 376.227 157.526 376.227 155.093C376.227 152.67 378.196 150.691 380.628 150.691C383.061 150.691 385.03 152.67 385.03 155.093Z" fill="#00DDB6"/>
<path d="M422.773 155.093C422.773 157.526 420.803 159.495 418.371 159.495C415.939 159.495 413.969 157.526 413.969 155.093C413.969 152.67 415.939 150.691 418.371 150.691C420.803 150.691 422.773 152.67 422.773 155.093Z" fill="#00DDB6"/>
<path d="M460.516 155.093C460.516 157.526 458.546 159.495 456.114 159.495C453.681 159.495 451.703 157.526 451.703 155.093C451.703 152.67 453.681 150.691 456.114 150.691C458.546 150.691 460.516 152.67 460.516 155.093Z" fill="#00DDB6"/>
<path d="M498.258 155.093C498.258 157.526 496.279 159.495 493.847 159.495C491.415 159.495 489.445 157.526 489.445 155.093C489.445 152.67 491.415 150.691 493.847 150.691C496.279 150.691 498.258 152.67 498.258 155.093Z" fill="#00DDB6"/>
<path d="M271.812 192.598C271.812 195.03 269.834 197 267.402 197C264.97 197 263 195.03 263 192.598C263 190.166 264.97 188.196 267.402 188.196C269.834 188.196 271.812 190.166 271.812 192.598Z" fill="#00DDB6"/>
<path d="M309.546 192.598C309.546 195.03 307.576 197 305.144 197C302.712 197 300.742 195.03 300.742 192.598C300.742 190.166 302.712 188.196 305.144 188.196C307.576 188.196 309.546 190.166 309.546 192.598Z" fill="#00DDB6"/>
<path d="M347.292 192.598C347.292 195.03 345.322 197 342.89 197C340.458 197 338.488 195.03 338.488 192.598C338.488 190.166 340.458 188.196 342.89 188.196C345.322 188.196 347.292 190.166 347.292 192.598Z" fill="#00DDB6"/>
<path d="M385.03 192.598C385.03 195.03 383.061 197 380.628 197C378.196 197 376.227 195.03 376.227 192.598C376.227 190.166 378.196 188.196 380.628 188.196C383.061 188.196 385.03 190.166 385.03 192.598Z" fill="#00DDB6"/>
<path d="M422.773 192.598C422.773 195.03 420.803 197 418.371 197C415.939 197 413.969 195.03 413.969 192.598C413.969 190.166 415.939 188.196 418.371 188.196C420.803 188.196 422.773 190.166 422.773 192.598Z" fill="#00DDB6"/>
<path d="M460.516 192.598C460.516 195.03 458.546 197 456.114 197C453.681 197 451.703 195.03 451.703 192.598C451.703 190.166 453.681 188.196 456.114 188.196C458.546 188.196 460.516 190.166 460.516 192.598Z" fill="#00DDB6"/>
<path d="M498.258 192.598C498.258 195.03 496.279 197 493.847 197C491.415 197 489.445 195.03 489.445 192.598C489.445 190.166 491.415 188.196 493.847 188.196C496.279 188.196 498.258 190.166 498.258 192.598Z" fill="#00DDB6"/>
<path d="M9.8125 4.4019C9.8125 6.8341 7.83419 8.80371 5.40198 8.80371C2.96978 8.80371 1 6.8341 1 4.4019C1 1.96969 2.96978 -8.77576e-05 5.40198 -8.77576e-05C7.83419 -8.77576e-05 9.8125 1.96969 9.8125 4.4019Z" fill="#00DDB6"/>
<path d="M47.546 4.4019C47.546 6.8341 45.5764 8.80371 43.1442 8.80371C40.712 8.80371 38.7422 6.8341 38.7422 4.4019C38.7422 1.96969 40.712 -8.77576e-05 43.1442 -8.77576e-05C45.5764 -8.77576e-05 47.546 1.96969 47.546 4.4019Z" fill="#00DDB6"/>
<path d="M85.2922 4.4019C85.2922 6.8341 83.3225 8.80371 80.8903 8.80371C78.4581 8.80371 76.4883 6.8341 76.4883 4.4019C76.4883 1.96969 78.4581 -8.77576e-05 80.8903 -8.77576e-05C83.3225 -8.77576e-05 85.2922 1.96969 85.2922 4.4019Z" fill="#00DDB6"/>
<path d="M123.03 4.4019C123.03 6.8341 121.061 8.80371 118.628 8.80371C116.196 8.80371 114.227 6.8341 114.227 4.4019C114.227 1.96969 116.196 -8.77576e-05 118.628 -8.77576e-05C121.061 -8.77576e-05 123.03 1.96969 123.03 4.4019Z" fill="#00DDB6"/>
<path d="M160.773 4.4019C160.773 6.8341 158.803 8.80371 156.371 8.80371C153.939 8.80371 151.969 6.8341 151.969 4.4019C151.969 1.96969 153.939 -8.77576e-05 156.371 -8.77576e-05C158.803 -8.77576e-05 160.773 1.96969 160.773 4.4019Z" fill="#00DDB6"/>
<path d="M198.516 4.4019C198.516 6.8341 196.546 8.80371 194.114 8.80371C191.681 8.80371 189.703 6.8341 189.703 4.4019C189.703 1.96969 191.681 -8.77576e-05 194.114 -8.77576e-05C196.546 -8.77576e-05 198.516 1.96969 198.516 4.4019Z" fill="#00DDB6"/>
<path d="M236.258 4.4019C236.258 6.8341 234.279 8.80371 231.847 8.80371C229.415 8.80371 227.445 6.8341 227.445 4.4019C227.445 1.96969 229.415 -8.77576e-05 231.847 -8.77576e-05C234.279 -8.77576e-05 236.258 1.96969 236.258 4.4019Z" fill="#00DDB6"/>
<path d="M9.8125 42.1237C9.8125 44.5559 7.83419 46.5342 5.40198 46.5342C2.96978 46.5342 1 44.5559 1 42.1237C1 39.7 2.96978 37.7217 5.40198 37.7217C7.83419 37.7217 9.8125 39.7 9.8125 42.1237Z" fill="#00DDB6"/>
<path d="M47.546 42.1237C47.546 44.5559 45.5764 46.5342 43.1442 46.5342C40.712 46.5342 38.7422 44.5559 38.7422 42.1237C38.7422 39.7 40.712 37.7217 43.1442 37.7217C45.5764 37.7217 47.546 39.7 47.546 42.1237Z" fill="#00DDB6"/>
<path d="M85.2922 42.1237C85.2922 44.5559 83.3225 46.5342 80.8903 46.5342C78.4581 46.5342 76.4883 44.5559 76.4883 42.1237C76.4883 39.7 78.4581 37.7217 80.8903 37.7217C83.3225 37.7217 85.2922 39.7 85.2922 42.1237Z" fill="#00DDB6"/>
<path d="M123.03 42.1237C123.03 44.5559 121.061 46.5342 118.628 46.5342C116.196 46.5342 114.227 44.5559 114.227 42.1237C114.227 39.7 116.196 37.7217 118.628 37.7217C121.061 37.7217 123.03 39.7 123.03 42.1237Z" fill="#00DDB6"/>
<path d="M160.773 42.1237C160.773 44.5559 158.803 46.5342 156.371 46.5342C153.939 46.5342 151.969 44.5559 151.969 42.1237C151.969 39.7 153.939 37.7217 156.371 37.7217C158.803 37.7217 160.773 39.7 160.773 42.1237Z" fill="#00DDB6"/>
<path d="M198.516 42.1237C198.516 44.5559 196.546 46.5342 194.114 46.5342C191.681 46.5342 189.703 44.5559 189.703 42.1237C189.703 39.7 191.681 37.7217 194.114 37.7217C196.546 37.7217 198.516 39.7 198.516 42.1237Z" fill="#00DDB6"/>
<path d="M236.258 42.1237C236.258 44.5559 234.279 46.5342 231.847 46.5342C229.415 46.5342 227.445 44.5559 227.445 42.1237C227.445 39.7 229.415 37.7217 231.847 37.7217C234.279 37.7217 236.258 39.7 236.258 42.1237Z" fill="#00DDB6"/>
<path d="M9.8125 79.6271C9.8125 82.0593 7.83419 84.0291 5.40198 84.0291C2.96978 84.0291 1 82.0593 1 79.6271C1 77.1949 2.96978 75.2253 5.40198 75.2253C7.83419 75.2253 9.8125 77.1949 9.8125 79.6271Z" fill="#00DDB6"/>
<path d="M47.546 79.6271C47.546 82.0593 45.5764 84.0291 43.1442 84.0291C40.712 84.0291 38.7422 82.0593 38.7422 79.6271C38.7422 77.1949 40.712 75.2253 43.1442 75.2253C45.5764 75.2253 47.546 77.1949 47.546 79.6271Z" fill="#00DDB6"/>
<path d="M85.2922 79.6271C85.2922 82.0593 83.3225 84.0291 80.8903 84.0291C78.4581 84.0291 76.4883 82.0593 76.4883 79.6271C76.4883 77.1949 78.4581 75.2253 80.8903 75.2253C83.3225 75.2253 85.2922 77.1949 85.2922 79.6271Z" fill="#00DDB6"/>
<path d="M123.03 79.6271C123.03 82.0593 121.061 84.0291 118.628 84.0291C116.196 84.0291 114.227 82.0593 114.227 79.6271C114.227 77.1949 116.196 75.2253 118.628 75.2253C121.061 75.2253 123.03 77.1949 123.03 79.6271Z" fill="#00DDB6"/>
<path d="M160.773 79.6271C160.773 82.0593 158.803 84.0291 156.371 84.0291C153.939 84.0291 151.969 82.0593 151.969 79.6271C151.969 77.1949 153.939 75.2253 156.371 75.2253C158.803 75.2253 160.773 77.1949 160.773 79.6271Z" fill="#00DDB6"/>
<path d="M198.516 79.6271C198.516 82.0593 196.546 84.0291 194.114 84.0291C191.681 84.0291 189.703 82.0593 189.703 79.6271C189.703 77.1949 191.681 75.2253 194.114 75.2253C196.546 75.2253 198.516 77.1949 198.516 79.6271Z" fill="#00DDB6"/>
<path d="M236.258 79.6271C236.258 82.0593 234.279 84.0291 231.847 84.0291C229.415 84.0291 227.445 82.0593 227.445 79.6271C227.445 77.1949 229.415 75.2253 231.847 75.2253C234.279 75.2253 236.258 77.1949 236.258 79.6271Z" fill="#00DDB6"/>
<path d="M9.8125 117.368C9.8125 119.791 7.83419 121.77 5.40198 121.77C2.96978 121.77 1 119.791 1 117.368C1 114.936 2.96978 112.957 5.40198 112.957C7.83419 112.957 9.8125 114.936 9.8125 117.368Z" fill="#00DDB6"/>
<path d="M47.546 117.368C47.546 119.791 45.5764 121.77 43.1442 121.77C40.712 121.77 38.7422 119.791 38.7422 117.368C38.7422 114.936 40.712 112.957 43.1442 112.957C45.5764 112.957 47.546 114.936 47.546 117.368Z" fill="#00DDB6"/>
<path d="M85.2922 117.368C85.2922 119.791 83.3225 121.77 80.8903 121.77C78.4581 121.77 76.4883 119.791 76.4883 117.368C76.4883 114.936 78.4581 112.957 80.8903 112.957C83.3225 112.957 85.2922 114.936 85.2922 117.368Z" fill="#00DDB6"/>
<path d="M123.03 117.368C123.03 119.791 121.061 121.77 118.628 121.77C116.196 121.77 114.227 119.791 114.227 117.368C114.227 114.936 116.196 112.957 118.628 112.957C121.061 112.957 123.03 114.936 123.03 117.368Z" fill="#00DDB6"/>
<path d="M160.773 117.368C160.773 119.791 158.803 121.77 156.371 121.77C153.939 121.77 151.969 119.791 151.969 117.368C151.969 114.936 153.939 112.957 156.371 112.957C158.803 112.957 160.773 114.936 160.773 117.368Z" fill="#00DDB6"/>
<path d="M198.516 117.368C198.516 119.791 196.546 121.77 194.114 121.77C191.681 121.77 189.703 119.791 189.703 117.368C189.703 114.936 191.681 112.957 194.114 112.957C196.546 112.957 198.516 114.936 198.516 117.368Z" fill="#00DDB6"/>
<path d="M236.258 117.368C236.258 119.791 234.279 121.77 231.847 121.77C229.415 121.77 227.445 119.791 227.445 117.368C227.445 114.936 229.415 112.957 231.847 112.957C234.279 112.957 236.258 114.936 236.258 117.368Z" fill="#00DDB6"/>
<path d="M9.8125 155.093C9.8125 157.526 7.83419 159.495 5.40198 159.495C2.96978 159.495 1 157.526 1 155.093C1 152.67 2.96978 150.691 5.40198 150.691C7.83419 150.691 9.8125 152.67 9.8125 155.093Z" fill="#00DDB6"/>
<path d="M47.546 155.093C47.546 157.526 45.5764 159.495 43.1442 159.495C40.712 159.495 38.7422 157.526 38.7422 155.093C38.7422 152.67 40.712 150.691 43.1442 150.691C45.5764 150.691 47.546 152.67 47.546 155.093Z" fill="#00DDB6"/>
<path d="M85.2922 155.093C85.2922 157.526 83.3225 159.495 80.8903 159.495C78.4581 159.495 76.4883 157.526 76.4883 155.093C76.4883 152.67 78.4581 150.691 80.8903 150.691C83.3225 150.691 85.2922 152.67 85.2922 155.093Z" fill="#00DDB6"/>
<path d="M123.03 155.093C123.03 157.526 121.061 159.495 118.628 159.495C116.196 159.495 114.227 157.526 114.227 155.093C114.227 152.67 116.196 150.691 118.628 150.691C121.061 150.691 123.03 152.67 123.03 155.093Z" fill="#00DDB6"/>
<path d="M160.773 155.093C160.773 157.526 158.803 159.495 156.371 159.495C153.939 159.495 151.969 157.526 151.969 155.093C151.969 152.67 153.939 150.691 156.371 150.691C158.803 150.691 160.773 152.67 160.773 155.093Z" fill="#00DDB6"/>
<path d="M198.516 155.093C198.516 157.526 196.546 159.495 194.114 159.495C191.681 159.495 189.703 157.526 189.703 155.093C189.703 152.67 191.681 150.691 194.114 150.691C196.546 150.691 198.516 152.67 198.516 155.093Z" fill="#00DDB6"/>
<path d="M236.258 155.093C236.258 157.526 234.279 159.495 231.847 159.495C229.415 159.495 227.445 157.526 227.445 155.093C227.445 152.67 229.415 150.691 231.847 150.691C234.279 150.691 236.258 152.67 236.258 155.093Z" fill="#00DDB6"/>
<path d="M9.8125 192.598C9.8125 195.03 7.83419 197 5.40198 197C2.96978 197 1 195.03 1 192.598C1 190.166 2.96978 188.196 5.40198 188.196C7.83419 188.196 9.8125 190.166 9.8125 192.598Z" fill="#00DDB6"/>
<path d="M47.546 192.598C47.546 195.03 45.5764 197 43.1442 197C40.712 197 38.7422 195.03 38.7422 192.598C38.7422 190.166 40.712 188.196 43.1442 188.196C45.5764 188.196 47.546 190.166 47.546 192.598Z" fill="#00DDB6"/>
<path d="M85.2922 192.598C85.2922 195.03 83.3225 197 80.8903 197C78.4581 197 76.4883 195.03 76.4883 192.598C76.4883 190.166 78.4581 188.196 80.8903 188.196C83.3225 188.196 85.2922 190.166 85.2922 192.598Z" fill="#00DDB6"/>
<path d="M123.03 192.598C123.03 195.03 121.061 197 118.628 197C116.196 197 114.227 195.03 114.227 192.598C114.227 190.166 116.196 188.196 118.628 188.196C121.061 188.196 123.03 190.166 123.03 192.598Z" fill="#00DDB6"/>
<path d="M160.773 192.598C160.773 195.03 158.803 197 156.371 197C153.939 197 151.969 195.03 151.969 192.598C151.969 190.166 153.939 188.196 156.371 188.196C158.803 188.196 160.773 190.166 160.773 192.598Z" fill="#00DDB6"/>
<path d="M198.516 192.598C198.516 195.03 196.546 197 194.114 197C191.681 197 189.703 195.03 189.703 192.598C189.703 190.166 191.681 188.196 194.114 188.196C196.546 188.196 198.516 190.166 198.516 192.598Z" fill="#00DDB6"/>
<path d="M236.258 192.598C236.258 195.03 234.279 197 231.847 197C229.415 197 227.445 195.03 227.445 192.598C227.445 190.166 229.415 188.196 231.847 188.196C234.279 188.196 236.258 190.166 236.258 192.598Z" fill="#00DDB6"/>
<path d="M272.812 229.402C272.812 231.834 270.834 233.804 268.402 233.804C265.97 233.804 264 231.834 264 229.402C264 226.97 265.97 225 268.402 225C270.834 225 272.812 226.97 272.812 229.402Z" fill="#00DDB6"/>
<path d="M310.546 229.402C310.546 231.834 308.576 233.804 306.144 233.804C303.712 233.804 301.742 231.834 301.742 229.402C301.742 226.97 303.712 225 306.144 225C308.576 225 310.546 226.97 310.546 229.402Z" fill="#00DDB6"/>
<path d="M348.292 229.402C348.292 231.834 346.322 233.804 343.89 233.804C341.458 233.804 339.488 231.834 339.488 229.402C339.488 226.97 341.458 225 343.89 225C346.322 225 348.292 226.97 348.292 229.402Z" fill="#00DDB6"/>
<path d="M386.03 229.402C386.03 231.834 384.061 233.804 381.628 233.804C379.196 233.804 377.227 231.834 377.227 229.402C377.227 226.97 379.196 225 381.628 225C384.061 225 386.03 226.97 386.03 229.402Z" fill="#00DDB6"/>
<path d="M423.773 229.402C423.773 231.834 421.803 233.804 419.371 233.804C416.939 233.804 414.969 231.834 414.969 229.402C414.969 226.97 416.939 225 419.371 225C421.803 225 423.773 226.97 423.773 229.402Z" fill="#00DDB6"/>
<path d="M461.516 229.402C461.516 231.834 459.546 233.804 457.114 233.804C454.681 233.804 452.703 231.834 452.703 229.402C452.703 226.97 454.681 225 457.114 225C459.546 225 461.516 226.97 461.516 229.402Z" fill="#00DDB6"/>
<path d="M499.258 229.402C499.258 231.834 497.279 233.804 494.847 233.804C492.415 233.804 490.445 231.834 490.445 229.402C490.445 226.97 492.415 225 494.847 225C497.279 225 499.258 226.97 499.258 229.402Z" fill="#00DDB6"/>
<path d="M272.812 267.124C272.812 269.556 270.834 271.534 268.402 271.534C265.97 271.534 264 269.556 264 267.124C264 264.7 265.97 262.722 268.402 262.722C270.834 262.722 272.812 264.7 272.812 267.124Z" fill="#00DDB6"/>
<path d="M310.546 267.124C310.546 269.556 308.576 271.534 306.144 271.534C303.712 271.534 301.742 269.556 301.742 267.124C301.742 264.7 303.712 262.722 306.144 262.722C308.576 262.722 310.546 264.7 310.546 267.124Z" fill="#00DDB6"/>
<path d="M348.292 267.124C348.292 269.556 346.322 271.534 343.89 271.534C341.458 271.534 339.488 269.556 339.488 267.124C339.488 264.7 341.458 262.722 343.89 262.722C346.322 262.722 348.292 264.7 348.292 267.124Z" fill="#00DDB6"/>
<path d="M386.03 267.124C386.03 269.556 384.061 271.534 381.628 271.534C379.196 271.534 377.227 269.556 377.227 267.124C377.227 264.7 379.196 262.722 381.628 262.722C384.061 262.722 386.03 264.7 386.03 267.124Z" fill="#00DDB6"/>
<path d="M423.773 267.124C423.773 269.556 421.803 271.534 419.371 271.534C416.939 271.534 414.969 269.556 414.969 267.124C414.969 264.7 416.939 262.722 419.371 262.722C421.803 262.722 423.773 264.7 423.773 267.124Z" fill="#00DDB6"/>
<path d="M461.516 267.124C461.516 269.556 459.546 271.534 457.114 271.534C454.681 271.534 452.703 269.556 452.703 267.124C452.703 264.7 454.681 262.722 457.114 262.722C459.546 262.722 461.516 264.7 461.516 267.124Z" fill="#00DDB6"/>
<path d="M499.258 267.124C499.258 269.556 497.279 271.534 494.847 271.534C492.415 271.534 490.445 269.556 490.445 267.124C490.445 264.7 492.415 262.722 494.847 262.722C497.279 262.722 499.258 264.7 499.258 267.124Z" fill="#00DDB6"/>
<path d="M272.812 304.627C272.812 307.059 270.834 309.029 268.402 309.029C265.97 309.029 264 307.059 264 304.627C264 302.195 265.97 300.225 268.402 300.225C270.834 300.225 272.812 302.195 272.812 304.627Z" fill="#00DDB6"/>
<path d="M310.546 304.627C310.546 307.06 308.576 309.029 306.144 309.029C303.712 309.029 301.742 307.06 301.742 304.627C301.742 302.195 303.712 300.225 306.144 300.225C308.576 300.225 310.546 302.195 310.546 304.627Z" fill="#00DDB6"/>
<path d="M348.292 304.627C348.292 307.06 346.322 309.029 343.89 309.029C341.458 309.029 339.488 307.06 339.488 304.627C339.488 302.195 341.458 300.225 343.89 300.225C346.322 300.225 348.292 302.195 348.292 304.627Z" fill="#00DDB6"/>
<path d="M386.03 304.627C386.03 307.059 384.061 309.029 381.628 309.029C379.196 309.029 377.227 307.059 377.227 304.627C377.227 302.195 379.196 300.225 381.628 300.225C384.061 300.225 386.03 302.195 386.03 304.627Z" fill="#00DDB6"/>
<path d="M423.773 304.627C423.773 307.06 421.803 309.029 419.371 309.029C416.939 309.029 414.969 307.06 414.969 304.627C414.969 302.195 416.939 300.225 419.371 300.225C421.803 300.225 423.773 302.195 423.773 304.627Z" fill="#00DDB6"/>
<path d="M461.516 304.627C461.516 307.059 459.546 309.029 457.114 309.029C454.681 309.029 452.703 307.059 452.703 304.627C452.703 302.195 454.681 300.225 457.114 300.225C459.546 300.225 461.516 302.195 461.516 304.627Z" fill="#00DDB6"/>
<path d="M499.258 304.627C499.258 307.06 497.279 309.029 494.847 309.029C492.415 309.029 490.445 307.06 490.445 304.627C490.445 302.195 492.415 300.225 494.847 300.225C497.279 300.225 499.258 302.195 499.258 304.627Z" fill="#00DDB6"/>
<path d="M272.812 342.368C272.812 344.791 270.834 346.77 268.402 346.77C265.97 346.77 264 344.791 264 342.368C264 339.936 265.97 337.957 268.402 337.957C270.834 337.957 272.812 339.936 272.812 342.368Z" fill="#00DDB6"/>
<path d="M310.546 342.368C310.546 344.791 308.576 346.77 306.144 346.77C303.712 346.77 301.742 344.791 301.742 342.368C301.742 339.936 303.712 337.957 306.144 337.957C308.576 337.957 310.546 339.936 310.546 342.368Z" fill="#00DDB6"/>
<path d="M348.292 342.368C348.292 344.791 346.322 346.77 343.89 346.77C341.458 346.77 339.488 344.791 339.488 342.368C339.488 339.936 341.458 337.957 343.89 337.957C346.322 337.957 348.292 339.936 348.292 342.368Z" fill="#00DDB6"/>
<path d="M386.03 342.368C386.03 344.791 384.061 346.77 381.628 346.77C379.196 346.77 377.227 344.791 377.227 342.368C377.227 339.936 379.196 337.957 381.628 337.957C384.061 337.957 386.03 339.936 386.03 342.368Z" fill="#00DDB6"/>
<path d="M423.773 342.368C423.773 344.791 421.803 346.77 419.371 346.77C416.939 346.77 414.969 344.791 414.969 342.368C414.969 339.936 416.939 337.957 419.371 337.957C421.803 337.957 423.773 339.936 423.773 342.368Z" fill="#00DDB6"/>
<path d="M461.516 342.368C461.516 344.791 459.546 346.77 457.114 346.77C454.681 346.77 452.703 344.791 452.703 342.368C452.703 339.936 454.681 337.957 457.114 337.957C459.546 337.957 461.516 339.936 461.516 342.368Z" fill="#00DDB6"/>
<path d="M499.258 342.368C499.258 344.791 497.279 346.77 494.847 346.77C492.415 346.77 490.445 344.791 490.445 342.368C490.445 339.936 492.415 337.957 494.847 337.957C497.279 337.957 499.258 339.936 499.258 342.368Z" fill="#00DDB6"/>
<path d="M272.812 380.093C272.812 382.526 270.834 384.495 268.402 384.495C265.97 384.495 264 382.526 264 380.093C264 377.67 265.97 375.691 268.402 375.691C270.834 375.691 272.812 377.67 272.812 380.093Z" fill="#00DDB6"/>
<path d="M310.546 380.093C310.546 382.526 308.576 384.495 306.144 384.495C303.712 384.495 301.742 382.526 301.742 380.093C301.742 377.67 303.712 375.691 306.144 375.691C308.576 375.691 310.546 377.67 310.546 380.093Z" fill="#00DDB6"/>
<path d="M348.292 380.093C348.292 382.526 346.322 384.495 343.89 384.495C341.458 384.495 339.488 382.526 339.488 380.093C339.488 377.67 341.458 375.691 343.89 375.691C346.322 375.691 348.292 377.67 348.292 380.093Z" fill="#00DDB6"/>
<path d="M386.03 380.093C386.03 382.526 384.061 384.495 381.628 384.495C379.196 384.495 377.227 382.526 377.227 380.093C377.227 377.67 379.196 375.691 381.628 375.691C384.061 375.691 386.03 377.67 386.03 380.093Z" fill="#00DDB6"/>
<path d="M423.773 380.093C423.773 382.526 421.803 384.495 419.371 384.495C416.939 384.495 414.969 382.526 414.969 380.093C414.969 377.67 416.939 375.691 419.371 375.691C421.803 375.691 423.773 377.67 423.773 380.093Z" fill="#00DDB6"/>
<path d="M461.516 380.093C461.516 382.526 459.546 384.495 457.114 384.495C454.681 384.495 452.703 382.526 452.703 380.093C452.703 377.67 454.681 375.691 457.114 375.691C459.546 375.691 461.516 377.67 461.516 380.093Z" fill="#00DDB6"/>
<path d="M499.258 380.093C499.258 382.526 497.279 384.495 494.847 384.495C492.415 384.495 490.445 382.526 490.445 380.093C490.445 377.67 492.415 375.691 494.847 375.691C497.279 375.691 499.258 377.67 499.258 380.093Z" fill="#00DDB6"/>
<path d="M272.812 417.598C272.812 420.03 270.834 422 268.402 422C265.97 422 264 420.03 264 417.598C264 415.166 265.97 413.196 268.402 413.196C270.834 413.196 272.812 415.166 272.812 417.598Z" fill="#00DDB6"/>
<path d="M310.546 417.598C310.546 420.03 308.576 422 306.144 422C303.712 422 301.742 420.03 301.742 417.598C301.742 415.166 303.712 413.196 306.144 413.196C308.576 413.196 310.546 415.166 310.546 417.598Z" fill="#00DDB6"/>
<path d="M348.292 417.598C348.292 420.03 346.322 422 343.89 422C341.458 422 339.488 420.03 339.488 417.598C339.488 415.166 341.458 413.196 343.89 413.196C346.322 413.196 348.292 415.166 348.292 417.598Z" fill="#00DDB6"/>
<path d="M386.03 417.598C386.03 420.03 384.061 422 381.628 422C379.196 422 377.227 420.03 377.227 417.598C377.227 415.166 379.196 413.196 381.628 413.196C384.061 413.196 386.03 415.166 386.03 417.598Z" fill="#00DDB6"/>
<path d="M423.773 417.598C423.773 420.03 421.803 422 419.371 422C416.939 422 414.969 420.03 414.969 417.598C414.969 415.166 416.939 413.196 419.371 413.196C421.803 413.196 423.773 415.166 423.773 417.598Z" fill="#00DDB6"/>
<path d="M461.516 417.598C461.516 420.03 459.546 422 457.114 422C454.681 422 452.703 420.03 452.703 417.598C452.703 415.166 454.681 413.196 457.114 413.196C459.546 413.196 461.516 415.166 461.516 417.598Z" fill="#00DDB6"/>
<path d="M499.258 417.598C499.258 420.03 497.279 422 494.847 422C492.415 422 490.445 420.03 490.445 417.598C490.445 415.166 492.415 413.196 494.847 413.196C497.279 413.196 499.258 415.166 499.258 417.598Z" fill="#00DDB6"/>
<path d="M9.8125 225.402C9.8125 227.834 7.83419 229.804 5.40198 229.804C2.96978 229.804 1 227.834 1 225.402C1 222.97 2.96978 221 5.40198 221C7.83419 221 9.8125 222.97 9.8125 225.402Z" fill="#00DDB6"/>
<path d="M47.546 225.402C47.546 227.834 45.5764 229.804 43.1442 229.804C40.712 229.804 38.7422 227.834 38.7422 225.402C38.7422 222.97 40.712 221 43.1442 221C45.5764 221 47.546 222.97 47.546 225.402Z" fill="#00DDB6"/>
<path d="M85.2922 225.402C85.2922 227.834 83.3225 229.804 80.8903 229.804C78.4581 229.804 76.4883 227.834 76.4883 225.402C76.4883 222.97 78.4581 221 80.8903 221C83.3225 221 85.2922 222.97 85.2922 225.402Z" fill="#00DDB6"/>
<path d="M123.03 225.402C123.03 227.834 121.061 229.804 118.628 229.804C116.196 229.804 114.227 227.834 114.227 225.402C114.227 222.97 116.196 221 118.628 221C121.061 221 123.03 222.97 123.03 225.402Z" fill="#00DDB6"/>
<path d="M160.773 225.402C160.773 227.834 158.803 229.804 156.371 229.804C153.939 229.804 151.969 227.834 151.969 225.402C151.969 222.97 153.939 221 156.371 221C158.803 221 160.773 222.97 160.773 225.402Z" fill="#00DDB6"/>
<path d="M198.516 225.402C198.516 227.834 196.546 229.804 194.114 229.804C191.681 229.804 189.703 227.834 189.703 225.402C189.703 222.97 191.681 221 194.114 221C196.546 221 198.516 222.97 198.516 225.402Z" fill="#00DDB6"/>
<path d="M236.258 225.402C236.258 227.834 234.279 229.804 231.847 229.804C229.415 229.804 227.445 227.834 227.445 225.402C227.445 222.97 229.415 221 231.847 221C234.279 221 236.258 222.97 236.258 225.402Z" fill="#00DDB6"/>
<path d="M9.8125 263.124C9.8125 265.556 7.83419 267.534 5.40198 267.534C2.96978 267.534 1 265.556 1 263.124C1 260.7 2.96978 258.722 5.40198 258.722C7.83419 258.722 9.8125 260.7 9.8125 263.124Z" fill="#00DDB6"/>
<path d="M47.546 263.124C47.546 265.556 45.5764 267.534 43.1442 267.534C40.712 267.534 38.7422 265.556 38.7422 263.124C38.7422 260.7 40.712 258.722 43.1442 258.722C45.5764 258.722 47.546 260.7 47.546 263.124Z" fill="#00DDB6"/>
<path d="M85.2922 263.124C85.2922 265.556 83.3225 267.534 80.8903 267.534C78.4581 267.534 76.4883 265.556 76.4883 263.124C76.4883 260.7 78.4581 258.722 80.8903 258.722C83.3225 258.722 85.2922 260.7 85.2922 263.124Z" fill="#00DDB6"/>
<path d="M123.03 263.124C123.03 265.556 121.061 267.534 118.628 267.534C116.196 267.534 114.227 265.556 114.227 263.124C114.227 260.7 116.196 258.722 118.628 258.722C121.061 258.722 123.03 260.7 123.03 263.124Z" fill="#00DDB6"/>
<path d="M160.773 263.124C160.773 265.556 158.803 267.534 156.371 267.534C153.939 267.534 151.969 265.556 151.969 263.124C151.969 260.7 153.939 258.722 156.371 258.722C158.803 258.722 160.773 260.7 160.773 263.124Z" fill="#00DDB6"/>
<path d="M198.516 263.124C198.516 265.556 196.546 267.534 194.114 267.534C191.681 267.534 189.703 265.556 189.703 263.124C189.703 260.7 191.681 258.722 194.114 258.722C196.546 258.722 198.516 260.7 198.516 263.124Z" fill="#00DDB6"/>
<path d="M236.258 263.124C236.258 265.556 234.279 267.534 231.847 267.534C229.415 267.534 227.445 265.556 227.445 263.124C227.445 260.7 229.415 258.722 231.847 258.722C234.279 258.722 236.258 260.7 236.258 263.124Z" fill="#00DDB6"/>
<path d="M9.8125 300.627C9.8125 303.059 7.83419 305.029 5.40198 305.029C2.96978 305.029 1 303.059 1 300.627C1 298.195 2.96978 296.225 5.40198 296.225C7.83419 296.225 9.8125 298.195 9.8125 300.627Z" fill="#00DDB6"/>
<path d="M47.546 300.627C47.546 303.059 45.5764 305.029 43.1442 305.029C40.712 305.029 38.7422 303.059 38.7422 300.627C38.7422 298.195 40.712 296.225 43.1442 296.225C45.5764 296.225 47.546 298.195 47.546 300.627Z" fill="#00DDB6"/>
<path d="M85.2922 300.627C85.2922 303.059 83.3225 305.029 80.8903 305.029C78.4581 305.029 76.4883 303.059 76.4883 300.627C76.4883 298.195 78.4581 296.225 80.8903 296.225C83.3225 296.225 85.2922 298.195 85.2922 300.627Z" fill="#00DDB6"/>
<path d="M123.03 300.627C123.03 303.059 121.061 305.029 118.628 305.029C116.196 305.029 114.227 303.059 114.227 300.627C114.227 298.195 116.196 296.225 118.628 296.225C121.061 296.225 123.03 298.195 123.03 300.627Z" fill="#00DDB6"/>
<path d="M160.773 300.627C160.773 303.059 158.803 305.029 156.371 305.029C153.939 305.029 151.969 303.059 151.969 300.627C151.969 298.195 153.939 296.225 156.371 296.225C158.803 296.225 160.773 298.195 160.773 300.627Z" fill="#00DDB6"/>
<path d="M198.516 300.627C198.516 303.059 196.546 305.029 194.114 305.029C191.681 305.029 189.703 303.059 189.703 300.627C189.703 298.195 191.681 296.225 194.114 296.225C196.546 296.225 198.516 298.195 198.516 300.627Z" fill="#00DDB6"/>
<path d="M236.258 300.627C236.258 303.059 234.279 305.029 231.847 305.029C229.415 305.029 227.445 303.059 227.445 300.627C227.445 298.195 229.415 296.225 231.847 296.225C234.279 296.225 236.258 298.195 236.258 300.627Z" fill="#00DDB6"/>
<path d="M9.8125 338.368C9.8125 340.791 7.83419 342.77 5.40198 342.77C2.96978 342.77 1 340.791 1 338.368C1 335.936 2.96978 333.957 5.40198 333.957C7.83419 333.957 9.8125 335.936 9.8125 338.368Z" fill="#00DDB6"/>
<path d="M47.546 338.368C47.546 340.791 45.5764 342.77 43.1442 342.77C40.712 342.77 38.7422 340.791 38.7422 338.368C38.7422 335.936 40.712 333.957 43.1442 333.957C45.5764 333.957 47.546 335.936 47.546 338.368Z" fill="#00DDB6"/>
<path d="M85.2922 338.368C85.2922 340.791 83.3225 342.77 80.8903 342.77C78.4581 342.77 76.4883 340.791 76.4883 338.368C76.4883 335.936 78.4581 333.957 80.8903 333.957C83.3225 333.957 85.2922 335.936 85.2922 338.368Z" fill="#00DDB6"/>
<path d="M123.03 338.368C123.03 340.791 121.061 342.77 118.628 342.77C116.196 342.77 114.227 340.791 114.227 338.368C114.227 335.936 116.196 333.957 118.628 333.957C121.061 333.957 123.03 335.936 123.03 338.368Z" fill="#00DDB6"/>
<path d="M160.773 338.368C160.773 340.791 158.803 342.77 156.371 342.77C153.939 342.77 151.969 340.791 151.969 338.368C151.969 335.936 153.939 333.957 156.371 333.957C158.803 333.957 160.773 335.936 160.773 338.368Z" fill="#00DDB6"/>
<path d="M198.516 338.368C198.516 340.791 196.546 342.77 194.114 342.77C191.681 342.77 189.703 340.791 189.703 338.368C189.703 335.936 191.681 333.957 194.114 333.957C196.546 333.957 198.516 335.936 198.516 338.368Z" fill="#00DDB6"/>
<path d="M236.258 338.368C236.258 340.791 234.279 342.77 231.847 342.77C229.415 342.77 227.445 340.791 227.445 338.368C227.445 335.936 229.415 333.957 231.847 333.957C234.279 333.957 236.258 335.936 236.258 338.368Z" fill="#00DDB6"/>
<path d="M9.8125 376.093C9.8125 378.526 7.83419 380.495 5.40198 380.495C2.96978 380.495 1 378.526 1 376.093C1 373.67 2.96978 371.691 5.40198 371.691C7.83419 371.691 9.8125 373.67 9.8125 376.093Z" fill="#00DDB6"/>
<path d="M47.546 376.093C47.546 378.526 45.5764 380.495 43.1442 380.495C40.712 380.495 38.7422 378.526 38.7422 376.093C38.7422 373.67 40.712 371.691 43.1442 371.691C45.5764 371.691 47.546 373.67 47.546 376.093Z" fill="#00DDB6"/>
<path d="M85.2922 376.093C85.2922 378.526 83.3225 380.495 80.8903 380.495C78.4581 380.495 76.4883 378.526 76.4883 376.093C76.4883 373.67 78.4581 371.691 80.8903 371.691C83.3225 371.691 85.2922 373.67 85.2922 376.093Z" fill="#00DDB6"/>
<path d="M123.03 376.093C123.03 378.526 121.061 380.495 118.628 380.495C116.196 380.495 114.227 378.526 114.227 376.093C114.227 373.67 116.196 371.691 118.628 371.691C121.061 371.691 123.03 373.67 123.03 376.093Z" fill="#00DDB6"/>
<path d="M160.773 376.093C160.773 378.526 158.803 380.495 156.371 380.495C153.939 380.495 151.969 378.526 151.969 376.093C151.969 373.67 153.939 371.691 156.371 371.691C158.803 371.691 160.773 373.67 160.773 376.093Z" fill="#00DDB6"/>
<path d="M198.516 376.093C198.516 378.526 196.546 380.495 194.114 380.495C191.681 380.495 189.703 378.526 189.703 376.093C189.703 373.67 191.681 371.691 194.114 371.691C196.546 371.691 198.516 373.67 198.516 376.093Z" fill="#00DDB6"/>
<path d="M236.258 376.093C236.258 378.526 234.279 380.495 231.847 380.495C229.415 380.495 227.445 378.526 227.445 376.093C227.445 373.67 229.415 371.691 231.847 371.691C234.279 371.691 236.258 373.67 236.258 376.093Z" fill="#00DDB6"/>
<path d="M9.8125 413.598C9.8125 416.03 7.83419 418 5.40198 418C2.96978 418 1 416.03 1 413.598C1 411.166 2.96978 409.196 5.40198 409.196C7.83419 409.196 9.8125 411.166 9.8125 413.598Z" fill="#00DDB6"/>
<path d="M47.546 413.598C47.546 416.03 45.5764 418 43.1442 418C40.712 418 38.7422 416.03 38.7422 413.598C38.7422 411.166 40.712 409.196 43.1442 409.196C45.5764 409.196 47.546 411.166 47.546 413.598Z" fill="#00DDB6"/>
<path d="M85.2922 413.598C85.2922 416.03 83.3225 418 80.8903 418C78.4581 418 76.4883 416.03 76.4883 413.598C76.4883 411.166 78.4581 409.196 80.8903 409.196C83.3225 409.196 85.2922 411.166 85.2922 413.598Z" fill="#00DDB6"/>
<path d="M123.03 413.598C123.03 416.03 121.061 418 118.628 418C116.196 418 114.227 416.03 114.227 413.598C114.227 411.166 116.196 409.196 118.628 409.196C121.061 409.196 123.03 411.166 123.03 413.598Z" fill="#00DDB6"/>
<path d="M160.773 413.598C160.773 416.03 158.803 418 156.371 418C153.939 418 151.969 416.03 151.969 413.598C151.969 411.166 153.939 409.196 156.371 409.196C158.803 409.196 160.773 411.166 160.773 413.598Z" fill="#00DDB6"/>
<path d="M198.516 413.598C198.516 416.03 196.546 418 194.114 418C191.681 418 189.703 416.03 189.703 413.598C189.703 411.166 191.681 409.196 194.114 409.196C196.546 409.196 198.516 411.166 198.516 413.598Z" fill="#00DDB6"/>
<path d="M236.258 413.598C236.258 416.03 234.279 418 231.847 418C229.415 418 227.445 416.03 227.445 413.598C227.445 411.166 229.415 409.196 231.847 409.196C234.279 409.196 236.258 411.166 236.258 413.598Z" fill="#00DDB6"/>
<path d="M273.812 454.402C273.812 456.834 271.834 458.804 269.402 458.804C266.97 458.804 265 456.834 265 454.402C265 451.97 266.97 450 269.402 450C271.834 450 273.812 451.97 273.812 454.402Z" fill="#00DDB6"/>
<path d="M311.546 454.402C311.546 456.834 309.576 458.804 307.144 458.804C304.712 458.804 302.742 456.834 302.742 454.402C302.742 451.97 304.712 450 307.144 450C309.576 450 311.546 451.97 311.546 454.402Z" fill="#00DDB6"/>
<path d="M349.288 454.402C349.288 456.834 347.319 458.804 344.886 458.804C342.454 458.804 340.484 456.834 340.484 454.402C340.484 451.97 342.454 450 344.886 450C347.319 450 349.288 451.97 349.288 454.402Z" fill="#00DDB6"/>
<path d="M387.03 454.402C387.03 456.834 385.061 458.804 382.628 458.804C380.196 458.804 378.227 456.834 378.227 454.402C378.227 451.97 380.196 450 382.628 450C385.061 450 387.03 451.97 387.03 454.402Z" fill="#00DDB6"/>
<path d="M424.773 454.402C424.773 456.834 422.803 458.804 420.371 458.804C417.939 458.804 415.969 456.834 415.969 454.402C415.969 451.97 417.939 450 420.371 450C422.803 450 424.773 451.97 424.773 454.402Z" fill="#00DDB6"/>
<path d="M462.516 454.402C462.516 456.834 460.546 458.804 458.114 458.804C455.681 458.804 453.703 456.834 453.703 454.402C453.703 451.97 455.681 450 458.114 450C460.546 450 462.516 451.97 462.516 454.402Z" fill="#00DDB6"/>
<path d="M500.258 454.402C500.258 456.834 498.279 458.804 495.847 458.804C493.415 458.804 491.445 456.834 491.445 454.402C491.445 451.97 493.415 450 495.847 450C498.279 450 500.258 451.97 500.258 454.402Z" fill="#00DDB6"/>
<path d="M273.812 492.124C273.812 494.556 271.834 496.534 269.402 496.534C266.97 496.534 265 494.556 265 492.124C265 489.7 266.97 487.722 269.402 487.722C271.834 487.722 273.812 489.7 273.812 492.124Z" fill="#00DDB6"/>
<path d="M311.546 492.124C311.546 494.556 309.576 496.534 307.144 496.534C304.712 496.534 302.742 494.556 302.742 492.124C302.742 489.7 304.712 487.722 307.144 487.722C309.576 487.722 311.546 489.7 311.546 492.124Z" fill="#00DDB6"/>
<path d="M349.288 492.124C349.288 494.556 347.319 496.534 344.886 496.534C342.454 496.534 340.484 494.556 340.484 492.124C340.484 489.7 342.454 487.722 344.886 487.722C347.319 487.722 349.288 489.7 349.288 492.124Z" fill="#00DDB6"/>
<path d="M387.03 492.124C387.03 494.556 385.061 496.534 382.628 496.534C380.196 496.534 378.227 494.556 378.227 492.124C378.227 489.7 380.196 487.722 382.628 487.722C385.061 487.722 387.03 489.7 387.03 492.124Z" fill="#00DDB6"/>
<path d="M424.773 492.124C424.773 494.556 422.803 496.534 420.371 496.534C417.939 496.534 415.969 494.556 415.969 492.124C415.969 489.7 417.939 487.722 420.371 487.722C422.803 487.722 424.773 489.7 424.773 492.124Z" fill="#00DDB6"/>
<path d="M462.516 492.124C462.516 494.556 460.546 496.534 458.114 496.534C455.681 496.534 453.703 494.556 453.703 492.124C453.703 489.7 455.681 487.722 458.114 487.722C460.546 487.722 462.516 489.7 462.516 492.124Z" fill="#00DDB6"/>
<path d="M500.258 492.124C500.258 494.556 498.279 496.534 495.847 496.534C493.415 496.534 491.445 494.556 491.445 492.124C491.445 489.7 493.415 487.722 495.847 487.722C498.279 487.722 500.258 489.7 500.258 492.124Z" fill="#00DDB6"/>
<path d="M273.812 529.627C273.812 532.06 271.834 534.029 269.402 534.029C266.97 534.029 265 532.06 265 529.627C265 527.195 266.97 525.225 269.402 525.225C271.834 525.225 273.812 527.195 273.812 529.627Z" fill="#00DDB6"/>
<path d="M311.546 529.627C311.546 532.06 309.576 534.029 307.144 534.029C304.712 534.029 302.742 532.06 302.742 529.627C302.742 527.195 304.712 525.225 307.144 525.225C309.576 525.225 311.546 527.195 311.546 529.627Z" fill="#00DDB6"/>
<path d="M349.288 529.627C349.288 532.06 347.319 534.029 344.886 534.029C342.454 534.029 340.484 532.06 340.484 529.627C340.484 527.195 342.454 525.225 344.886 525.225C347.319 525.225 349.288 527.195 349.288 529.627Z" fill="#00DDB6"/>
<path d="M387.03 529.627C387.03 532.06 385.061 534.029 382.628 534.029C380.196 534.029 378.227 532.06 378.227 529.627C378.227 527.195 380.196 525.225 382.628 525.225C385.061 525.225 387.03 527.195 387.03 529.627Z" fill="#00DDB6"/>
<path d="M424.773 529.627C424.773 532.06 422.803 534.029 420.371 534.029C417.939 534.029 415.969 532.06 415.969 529.627C415.969 527.195 417.939 525.225 420.371 525.225C422.803 525.225 424.773 527.195 424.773 529.627Z" fill="#00DDB6"/>
<path d="M462.516 529.627C462.516 532.06 460.546 534.029 458.114 534.029C455.681 534.029 453.703 532.06 453.703 529.627C453.703 527.195 455.681 525.225 458.114 525.225C460.546 525.225 462.516 527.195 462.516 529.627Z" fill="#00DDB6"/>
<path d="M500.258 529.627C500.258 532.06 498.279 534.029 495.847 534.029C493.415 534.029 491.445 532.06 491.445 529.627C491.445 527.195 493.415 525.225 495.847 525.225C498.279 525.225 500.258 527.195 500.258 529.627Z" fill="#00DDB6"/>
<path d="M9.8125 454.402C9.8125 456.834 7.83419 458.804 5.40198 458.804C2.96978 458.804 1 456.834 1 454.402C1 451.97 2.96978 450 5.40198 450C7.83419 450 9.8125 451.97 9.8125 454.402Z" fill="#00DDB6"/>
<path d="M47.546 454.402C47.546 456.834 45.5764 458.804 43.1442 458.804C40.712 458.804 38.7422 456.834 38.7422 454.402C38.7422 451.97 40.712 450 43.1442 450C45.5764 450 47.546 451.97 47.546 454.402Z" fill="#00DDB6"/>
<path d="M85.2883 454.402C85.2883 456.834 83.3186 458.804 80.8864 458.804C78.4542 458.804 76.4844 456.834 76.4844 454.402C76.4844 451.97 78.4542 450 80.8864 450C83.3186 450 85.2883 451.97 85.2883 454.402Z" fill="#00DDB6"/>
<path d="M123.03 454.402C123.03 456.834 121.061 458.804 118.628 458.804C116.196 458.804 114.227 456.834 114.227 454.402C114.227 451.97 116.196 450 118.628 450C121.061 450 123.03 451.97 123.03 454.402Z" fill="#00DDB6"/>
<path d="M160.773 454.402C160.773 456.834 158.803 458.804 156.371 458.804C153.939 458.804 151.969 456.834 151.969 454.402C151.969 451.97 153.939 450 156.371 450C158.803 450 160.773 451.97 160.773 454.402Z" fill="#00DDB6"/>
<path d="M198.516 454.402C198.516 456.834 196.546 458.804 194.114 458.804C191.681 458.804 189.703 456.834 189.703 454.402C189.703 451.97 191.681 450 194.114 450C196.546 450 198.516 451.97 198.516 454.402Z" fill="#00DDB6"/>
<path d="M236.258 454.402C236.258 456.834 234.279 458.804 231.847 458.804C229.415 458.804 227.445 456.834 227.445 454.402C227.445 451.97 229.415 450 231.847 450C234.279 450 236.258 451.97 236.258 454.402Z" fill="#00DDB6"/>
<path d="M9.8125 492.124C9.8125 494.556 7.83419 496.534 5.40198 496.534C2.96978 496.534 1 494.556 1 492.124C1 489.7 2.96978 487.722 5.40198 487.722C7.83419 487.722 9.8125 489.7 9.8125 492.124Z" fill="#00DDB6"/>
<path d="M47.546 492.124C47.546 494.556 45.5764 496.534 43.1442 496.534C40.712 496.534 38.7422 494.556 38.7422 492.124C38.7422 489.7 40.712 487.722 43.1442 487.722C45.5764 487.722 47.546 489.7 47.546 492.124Z" fill="#00DDB6"/>
<path d="M85.2883 492.124C85.2883 494.556 83.3186 496.534 80.8864 496.534C78.4542 496.534 76.4844 494.556 76.4844 492.124C76.4844 489.7 78.4542 487.722 80.8864 487.722C83.3186 487.722 85.2883 489.7 85.2883 492.124Z" fill="#00DDB6"/>
<path d="M123.03 492.124C123.03 494.556 121.061 496.534 118.628 496.534C116.196 496.534 114.227 494.556 114.227 492.124C114.227 489.7 116.196 487.722 118.628 487.722C121.061 487.722 123.03 489.7 123.03 492.124Z" fill="#00DDB6"/>
<path d="M160.773 492.124C160.773 494.556 158.803 496.534 156.371 496.534C153.939 496.534 151.969 494.556 151.969 492.124C151.969 489.7 153.939 487.722 156.371 487.722C158.803 487.722 160.773 489.7 160.773 492.124Z" fill="#00DDB6"/>
<path d="M198.516 492.124C198.516 494.556 196.546 496.534 194.114 496.534C191.681 496.534 189.703 494.556 189.703 492.124C189.703 489.7 191.681 487.722 194.114 487.722C196.546 487.722 198.516 489.7 198.516 492.124Z" fill="#00DDB6"/>
<path d="M236.258 492.124C236.258 494.556 234.279 496.534 231.847 496.534C229.415 496.534 227.445 494.556 227.445 492.124C227.445 489.7 229.415 487.722 231.847 487.722C234.279 487.722 236.258 489.7 236.258 492.124Z" fill="#00DDB6"/>
<path d="M9.8125 529.627C9.8125 532.06 7.83419 534.029 5.40198 534.029C2.96978 534.029 1 532.06 1 529.627C1 527.195 2.96978 525.225 5.40198 525.225C7.83419 525.225 9.8125 527.195 9.8125 529.627Z" fill="#00DDB6"/>
<path d="M47.546 529.627C47.546 532.06 45.5764 534.029 43.1442 534.029C40.712 534.029 38.7422 532.06 38.7422 529.627C38.7422 527.195 40.712 525.225 43.1442 525.225C45.5764 525.225 47.546 527.195 47.546 529.627Z" fill="#00DDB6"/>
<path d="M85.2883 529.627C85.2883 532.06 83.3186 534.029 80.8864 534.029C78.4542 534.029 76.4844 532.06 76.4844 529.627C76.4844 527.195 78.4542 525.225 80.8864 525.225C83.3186 525.225 85.2883 527.195 85.2883 529.627Z" fill="#00DDB6"/>
<path d="M123.03 529.627C123.03 532.06 121.061 534.029 118.628 534.029C116.196 534.029 114.227 532.06 114.227 529.627C114.227 527.195 116.196 525.225 118.628 525.225C121.061 525.225 123.03 527.195 123.03 529.627Z" fill="#00DDB6"/>
<path d="M160.773 529.627C160.773 532.06 158.803 534.029 156.371 534.029C153.939 534.029 151.969 532.06 151.969 529.627C151.969 527.195 153.939 525.225 156.371 525.225C158.803 525.225 160.773 527.195 160.773 529.627Z" fill="#00DDB6"/>
<path d="M198.516 529.627C198.516 532.06 196.546 534.029 194.114 534.029C191.681 534.029 189.703 532.06 189.703 529.627C189.703 527.195 191.681 525.225 194.114 525.225C196.546 525.225 198.516 527.195 198.516 529.627Z" fill="#00DDB6"/>
<path d="M236.258 529.627C236.258 532.06 234.279 534.029 231.847 534.029C229.415 534.029 227.445 532.06 227.445 529.627C227.445 527.195 229.415 525.225 231.847 525.225C234.279 525.225 236.258 527.195 236.258 529.627Z" fill="#00DDB6"/>
<path d="M272.812 568.402C272.812 570.834 270.834 572.804 268.402 572.804C265.97 572.804 264 570.834 264 568.402C264 565.97 265.97 564 268.402 564C270.834 564 272.812 565.97 272.812 568.402Z" fill="#00DDB6"/>
<path d="M310.546 568.402C310.546 570.834 308.576 572.804 306.144 572.804C303.712 572.804 301.742 570.834 301.742 568.402C301.742 565.97 303.712 564 306.144 564C308.576 564 310.546 565.97 310.546 568.402Z" fill="#00DDB6"/>
<path d="M348.292 568.402C348.292 570.834 346.322 572.804 343.89 572.804C341.458 572.804 339.488 570.834 339.488 568.402C339.488 565.97 341.458 564 343.89 564C346.322 564 348.292 565.97 348.292 568.402Z" fill="#00DDB6"/>
<path d="M386.03 568.402C386.03 570.834 384.061 572.804 381.628 572.804C379.196 572.804 377.227 570.834 377.227 568.402C377.227 565.97 379.196 564 381.628 564C384.061 564 386.03 565.97 386.03 568.402Z" fill="#00DDB6"/>
<path d="M423.773 568.402C423.773 570.834 421.803 572.804 419.371 572.804C416.939 572.804 414.969 570.834 414.969 568.402C414.969 565.97 416.939 564 419.371 564C421.803 564 423.773 565.97 423.773 568.402Z" fill="#00DDB6"/>
<path d="M461.516 568.402C461.516 570.834 459.546 572.804 457.114 572.804C454.681 572.804 452.703 570.834 452.703 568.402C452.703 565.97 454.681 564 457.114 564C459.546 564 461.516 565.97 461.516 568.402Z" fill="#00DDB6"/>
<path d="M499.258 568.402C499.258 570.834 497.279 572.804 494.847 572.804C492.415 572.804 490.445 570.834 490.445 568.402C490.445 565.97 492.415 564 494.847 564C497.279 564 499.258 565.97 499.258 568.402Z" fill="#00DDB6"/>
<path d="M272.812 606.124C272.812 608.556 270.834 610.534 268.402 610.534C265.97 610.534 264 608.556 264 606.124C264 603.7 265.97 601.722 268.402 601.722C270.834 601.722 272.812 603.7 272.812 606.124Z" fill="#00DDB6"/>
<path d="M310.546 606.124C310.546 608.556 308.576 610.534 306.144 610.534C303.712 610.534 301.742 608.556 301.742 606.124C301.742 603.7 303.712 601.722 306.144 601.722C308.576 601.722 310.546 603.7 310.546 606.124Z" fill="#00DDB6"/>
<path d="M348.292 606.124C348.292 608.556 346.322 610.534 343.89 610.534C341.458 610.534 339.488 608.556 339.488 606.124C339.488 603.7 341.458 601.722 343.89 601.722C346.322 601.722 348.292 603.7 348.292 606.124Z" fill="#00DDB6"/>
<path d="M386.03 606.124C386.03 608.556 384.061 610.534 381.628 610.534C379.196 610.534 377.227 608.556 377.227 606.124C377.227 603.7 379.196 601.722 381.628 601.722C384.061 601.722 386.03 603.7 386.03 606.124Z" fill="#00DDB6"/>
<path d="M423.773 606.124C423.773 608.556 421.803 610.534 419.371 610.534C416.939 610.534 414.969 608.556 414.969 606.124C414.969 603.7 416.939 601.722 419.371 601.722C421.803 601.722 423.773 603.7 423.773 606.124Z" fill="#00DDB6"/>
<path d="M461.516 606.124C461.516 608.556 459.546 610.534 457.114 610.534C454.681 610.534 452.703 608.556 452.703 606.124C452.703 603.7 454.681 601.722 457.114 601.722C459.546 601.722 461.516 603.7 461.516 606.124Z" fill="#00DDB6"/>
<path d="M499.258 606.124C499.258 608.556 497.279 610.534 494.847 610.534C492.415 610.534 490.445 608.556 490.445 606.124C490.445 603.7 492.415 601.722 494.847 601.722C497.279 601.722 499.258 603.7 499.258 606.124Z" fill="#00DDB6"/>
<path d="M272.812 643.627C272.812 646.059 270.834 648.029 268.402 648.029C265.97 648.029 264 646.059 264 643.627C264 641.195 265.97 639.225 268.402 639.225C270.834 639.225 272.812 641.195 272.812 643.627Z" fill="#00DDB6"/>
<path d="M310.546 643.627C310.546 646.059 308.576 648.029 306.144 648.029C303.712 648.029 301.742 646.059 301.742 643.627C301.742 641.195 303.712 639.225 306.144 639.225C308.576 639.225 310.546 641.195 310.546 643.627Z" fill="#00DDB6"/>
<path d="M348.292 643.627C348.292 646.059 346.322 648.029 343.89 648.029C341.458 648.029 339.488 646.059 339.488 643.627C339.488 641.195 341.458 639.225 343.89 639.225C346.322 639.225 348.292 641.195 348.292 643.627Z" fill="#00DDB6"/>
<path d="M386.03 643.627C386.03 646.059 384.061 648.029 381.628 648.029C379.196 648.029 377.227 646.059 377.227 643.627C377.227 641.195 379.196 639.225 381.628 639.225C384.061 639.225 386.03 641.195 386.03 643.627Z" fill="#00DDB6"/>
<path d="M423.773 643.627C423.773 646.059 421.803 648.029 419.371 648.029C416.939 648.029 414.969 646.059 414.969 643.627C414.969 641.195 416.939 639.225 419.371 639.225C421.803 639.225 423.773 641.195 423.773 643.627Z" fill="#00DDB6"/>
<path d="M461.516 643.627C461.516 646.059 459.546 648.029 457.114 648.029C454.681 648.029 452.703 646.059 452.703 643.627C452.703 641.195 454.681 639.225 457.114 639.225C459.546 639.225 461.516 641.195 461.516 643.627Z" fill="#00DDB6"/>
<path d="M499.258 643.627C499.258 646.059 497.279 648.029 494.847 648.029C492.415 648.029 490.445 646.059 490.445 643.627C490.445 641.195 492.415 639.225 494.847 639.225C497.279 639.225 499.258 641.195 499.258 643.627Z" fill="#00DDB6"/>
<path d="M272.812 681.368C272.812 683.791 270.834 685.77 268.402 685.77C265.97 685.77 264 683.791 264 681.368C264 678.936 265.97 676.957 268.402 676.957C270.834 676.957 272.812 678.936 272.812 681.368Z" fill="#00DDB6"/>
<path d="M310.546 681.368C310.546 683.791 308.576 685.77 306.144 685.77C303.712 685.77 301.742 683.791 301.742 681.368C301.742 678.936 303.712 676.957 306.144 676.957C308.576 676.957 310.546 678.936 310.546 681.368Z" fill="#00DDB6"/>
<path d="M348.292 681.368C348.292 683.791 346.322 685.77 343.89 685.77C341.458 685.77 339.488 683.791 339.488 681.368C339.488 678.936 341.458 676.957 343.89 676.957C346.322 676.957 348.292 678.936 348.292 681.368Z" fill="#00DDB6"/>
<path d="M386.03 681.368C386.03 683.791 384.061 685.77 381.628 685.77C379.196 685.77 377.227 683.791 377.227 681.368C377.227 678.936 379.196 676.957 381.628 676.957C384.061 676.957 386.03 678.936 386.03 681.368Z" fill="#00DDB6"/>
<path d="M423.773 681.368C423.773 683.791 421.803 685.77 419.371 685.77C416.939 685.77 414.969 683.791 414.969 681.368C414.969 678.936 416.939 676.957 419.371 676.957C421.803 676.957 423.773 678.936 423.773 681.368Z" fill="#00DDB6"/>
<path d="M461.516 681.368C461.516 683.791 459.546 685.77 457.114 685.77C454.681 685.77 452.703 683.791 452.703 681.368C452.703 678.936 454.681 676.957 457.114 676.957C459.546 676.957 461.516 678.936 461.516 681.368Z" fill="#00DDB6"/>
<path d="M499.258 681.368C499.258 683.791 497.279 685.77 494.847 685.77C492.415 685.77 490.445 683.791 490.445 681.368C490.445 678.936 492.415 676.957 494.847 676.957C497.279 676.957 499.258 678.936 499.258 681.368Z" fill="#00DDB6"/>
<path d="M272.812 719.093C272.812 721.526 270.834 723.495 268.402 723.495C265.97 723.495 264 721.526 264 719.093C264 716.67 265.97 714.691 268.402 714.691C270.834 714.691 272.812 716.67 272.812 719.093Z" fill="#00DDB6"/>
<path d="M310.546 719.093C310.546 721.526 308.576 723.495 306.144 723.495C303.712 723.495 301.742 721.526 301.742 719.093C301.742 716.67 303.712 714.691 306.144 714.691C308.576 714.691 310.546 716.67 310.546 719.093Z" fill="#00DDB6"/>
<path d="M348.292 719.093C348.292 721.526 346.322 723.495 343.89 723.495C341.458 723.495 339.488 721.526 339.488 719.093C339.488 716.67 341.458 714.691 343.89 714.691C346.322 714.691 348.292 716.67 348.292 719.093Z" fill="#00DDB6"/>
<path d="M386.03 719.093C386.03 721.526 384.061 723.495 381.628 723.495C379.196 723.495 377.227 721.526 377.227 719.093C377.227 716.67 379.196 714.691 381.628 714.691C384.061 714.691 386.03 716.67 386.03 719.093Z" fill="#00DDB6"/>
<path d="M423.773 719.093C423.773 721.526 421.803 723.495 419.371 723.495C416.939 723.495 414.969 721.526 414.969 719.093C414.969 716.67 416.939 714.691 419.371 714.691C421.803 714.691 423.773 716.67 423.773 719.093Z" fill="#00DDB6"/>
<path d="M461.516 719.093C461.516 721.526 459.546 723.495 457.114 723.495C454.681 723.495 452.703 721.526 452.703 719.093C452.703 716.67 454.681 714.691 457.114 714.691C459.546 714.691 461.516 716.67 461.516 719.093Z" fill="#00DDB6"/>
<path d="M499.258 719.093C499.258 721.526 497.279 723.495 494.847 723.495C492.415 723.495 490.445 721.526 490.445 719.093C490.445 716.67 492.415 714.691 494.847 714.691C497.279 714.691 499.258 716.67 499.258 719.093Z" fill="#00DDB6"/>
<path d="M272.812 756.598C272.812 759.03 270.834 761 268.402 761C265.97 761 264 759.03 264 756.598C264 754.166 265.97 752.196 268.402 752.196C270.834 752.196 272.812 754.166 272.812 756.598Z" fill="#00DDB6"/>
<path d="M310.546 756.598C310.546 759.03 308.576 761 306.144 761C303.712 761 301.742 759.03 301.742 756.598C301.742 754.166 303.712 752.196 306.144 752.196C308.576 752.196 310.546 754.166 310.546 756.598Z" fill="#00DDB6"/>
<path d="M348.292 756.598C348.292 759.03 346.322 761 343.89 761C341.458 761 339.488 759.03 339.488 756.598C339.488 754.166 341.458 752.196 343.89 752.196C346.322 752.196 348.292 754.166 348.292 756.598Z" fill="#00DDB6"/>
<path d="M386.03 756.598C386.03 759.03 384.061 761 381.628 761C379.196 761 377.227 759.03 377.227 756.598C377.227 754.166 379.196 752.196 381.628 752.196C384.061 752.196 386.03 754.166 386.03 756.598Z" fill="#00DDB6"/>
<path d="M423.773 756.598C423.773 759.03 421.803 761 419.371 761C416.939 761 414.969 759.03 414.969 756.598C414.969 754.166 416.939 752.196 419.371 752.196C421.803 752.196 423.773 754.166 423.773 756.598Z" fill="#00DDB6"/>
<path d="M461.516 756.598C461.516 759.03 459.546 761 457.114 761C454.681 761 452.703 759.03 452.703 756.598C452.703 754.166 454.681 752.196 457.114 752.196C459.546 752.196 461.516 754.166 461.516 756.598Z" fill="#00DDB6"/>
<path d="M499.258 756.598C499.258 759.03 497.279 761 494.847 761C492.415 761 490.445 759.03 490.445 756.598C490.445 754.166 492.415 752.196 494.847 752.196C497.279 752.196 499.258 754.166 499.258 756.598Z" fill="#00DDB6"/>
<path d="M8.8125 564.402C8.8125 566.834 6.83419 568.804 4.40198 568.804C1.96978 568.804 0 566.834 0 564.402C0 561.97 1.96978 560 4.40198 560C6.83419 560 8.8125 561.97 8.8125 564.402Z" fill="#00DDB6"/>
<path d="M46.546 564.402C46.546 566.834 44.5764 568.804 42.1442 568.804C39.712 568.804 37.7422 566.834 37.7422 564.402C37.7422 561.97 39.712 560 42.1442 560C44.5764 560 46.546 561.97 46.546 564.402Z" fill="#00DDB6"/>
<path d="M84.2922 564.402C84.2922 566.834 82.3225 568.804 79.8903 568.804C77.4581 568.804 75.4883 566.834 75.4883 564.402C75.4883 561.97 77.4581 560 79.8903 560C82.3225 560 84.2922 561.97 84.2922 564.402Z" fill="#00DDB6"/>
<path d="M122.03 564.402C122.03 566.834 120.061 568.804 117.628 568.804C115.196 568.804 113.227 566.834 113.227 564.402C113.227 561.97 115.196 560 117.628 560C120.061 560 122.03 561.97 122.03 564.402Z" fill="#00DDB6"/>
<path d="M159.773 564.402C159.773 566.834 157.803 568.804 155.371 568.804C152.939 568.804 150.969 566.834 150.969 564.402C150.969 561.97 152.939 560 155.371 560C157.803 560 159.773 561.97 159.773 564.402Z" fill="#00DDB6"/>
<path d="M197.516 564.402C197.516 566.834 195.546 568.804 193.114 568.804C190.681 568.804 188.703 566.834 188.703 564.402C188.703 561.97 190.681 560 193.114 560C195.546 560 197.516 561.97 197.516 564.402Z" fill="#00DDB6"/>
<path d="M235.258 564.402C235.258 566.834 233.279 568.804 230.847 568.804C228.415 568.804 226.445 566.834 226.445 564.402C226.445 561.97 228.415 560 230.847 560C233.279 560 235.258 561.97 235.258 564.402Z" fill="#00DDB6"/>
<path d="M8.8125 602.124C8.8125 604.556 6.83419 606.534 4.40198 606.534C1.96978 606.534 0 604.556 0 602.124C0 599.7 1.96978 597.722 4.40198 597.722C6.83419 597.722 8.8125 599.7 8.8125 602.124Z" fill="#00DDB6"/>
<path d="M46.546 602.124C46.546 604.556 44.5764 606.534 42.1442 606.534C39.712 606.534 37.7422 604.556 37.7422 602.124C37.7422 599.7 39.712 597.722 42.1442 597.722C44.5764 597.722 46.546 599.7 46.546 602.124Z" fill="#00DDB6"/>
<path d="M84.2922 602.124C84.2922 604.556 82.3225 606.534 79.8903 606.534C77.4581 606.534 75.4883 604.556 75.4883 602.124C75.4883 599.7 77.4581 597.722 79.8903 597.722C82.3225 597.722 84.2922 599.7 84.2922 602.124Z" fill="#00DDB6"/>
<path d="M122.03 602.124C122.03 604.556 120.061 606.534 117.628 606.534C115.196 606.534 113.227 604.556 113.227 602.124C113.227 599.7 115.196 597.722 117.628 597.722C120.061 597.722 122.03 599.7 122.03 602.124Z" fill="#00DDB6"/>
<path d="M159.773 602.124C159.773 604.556 157.803 606.534 155.371 606.534C152.939 606.534 150.969 604.556 150.969 602.124C150.969 599.7 152.939 597.722 155.371 597.722C157.803 597.722 159.773 599.7 159.773 602.124Z" fill="#00DDB6"/>
<path d="M197.516 602.124C197.516 604.556 195.546 606.534 193.114 606.534C190.681 606.534 188.703 604.556 188.703 602.124C188.703 599.7 190.681 597.722 193.114 597.722C195.546 597.722 197.516 599.7 197.516 602.124Z" fill="#00DDB6"/>
<path d="M235.258 602.124C235.258 604.556 233.279 606.534 230.847 606.534C228.415 606.534 226.445 604.556 226.445 602.124C226.445 599.7 228.415 597.722 230.847 597.722C233.279 597.722 235.258 599.7 235.258 602.124Z" fill="#00DDB6"/>
<path d="M8.8125 639.627C8.8125 642.059 6.83419 644.029 4.40198 644.029C1.96978 644.029 0 642.059 0 639.627C0 637.195 1.96978 635.225 4.40198 635.225C6.83419 635.225 8.8125 637.195 8.8125 639.627Z" fill="#00DDB6"/>
<path d="M46.546 639.627C46.546 642.059 44.5764 644.029 42.1442 644.029C39.712 644.029 37.7422 642.059 37.7422 639.627C37.7422 637.195 39.712 635.225 42.1442 635.225C44.5764 635.225 46.546 637.195 46.546 639.627Z" fill="#00DDB6"/>
<path d="M84.2922 639.627C84.2922 642.059 82.3225 644.029 79.8903 644.029C77.4581 644.029 75.4883 642.059 75.4883 639.627C75.4883 637.195 77.4581 635.225 79.8903 635.225C82.3225 635.225 84.2922 637.195 84.2922 639.627Z" fill="#00DDB6"/>
<path d="M122.03 639.627C122.03 642.059 120.061 644.029 117.628 644.029C115.196 644.029 113.227 642.059 113.227 639.627C113.227 637.195 115.196 635.225 117.628 635.225C120.061 635.225 122.03 637.195 122.03 639.627Z" fill="#00DDB6"/>
<path d="M159.773 639.627C159.773 642.059 157.803 644.029 155.371 644.029C152.939 644.029 150.969 642.059 150.969 639.627C150.969 637.195 152.939 635.225 155.371 635.225C157.803 635.225 159.773 637.195 159.773 639.627Z" fill="#00DDB6"/>
<path d="M197.516 639.627C197.516 642.059 195.546 644.029 193.114 644.029C190.681 644.029 188.703 642.059 188.703 639.627C188.703 637.195 190.681 635.225 193.114 635.225C195.546 635.225 197.516 637.195 197.516 639.627Z" fill="#00DDB6"/>
<path d="M235.258 639.627C235.258 642.059 233.279 644.029 230.847 644.029C228.415 644.029 226.445 642.059 226.445 639.627C226.445 637.195 228.415 635.225 230.847 635.225C233.279 635.225 235.258 637.195 235.258 639.627Z" fill="#00DDB6"/>
<path d="M8.8125 677.368C8.8125 679.791 6.83419 681.77 4.40198 681.77C1.96978 681.77 0 679.791 0 677.368C0 674.936 1.96978 672.957 4.40198 672.957C6.83419 672.957 8.8125 674.936 8.8125 677.368Z" fill="#00DDB6"/>
<path d="M46.546 677.368C46.546 679.791 44.5764 681.77 42.1442 681.77C39.712 681.77 37.7422 679.791 37.7422 677.368C37.7422 674.936 39.712 672.957 42.1442 672.957C44.5764 672.957 46.546 674.936 46.546 677.368Z" fill="#00DDB6"/>
<path d="M84.2922 677.368C84.2922 679.791 82.3225 681.77 79.8903 681.77C77.4581 681.77 75.4883 679.791 75.4883 677.368C75.4883 674.936 77.4581 672.957 79.8903 672.957C82.3225 672.957 84.2922 674.936 84.2922 677.368Z" fill="#00DDB6"/>
<path d="M122.03 677.368C122.03 679.791 120.061 681.77 117.628 681.77C115.196 681.77 113.227 679.791 113.227 677.368C113.227 674.936 115.196 672.957 117.628 672.957C120.061 672.957 122.03 674.936 122.03 677.368Z" fill="#00DDB6"/>
<path d="M159.773 677.368C159.773 679.791 157.803 681.77 155.371 681.77C152.939 681.77 150.969 679.791 150.969 677.368C150.969 674.936 152.939 672.957 155.371 672.957C157.803 672.957 159.773 674.936 159.773 677.368Z" fill="#00DDB6"/>
<path d="M197.516 677.368C197.516 679.791 195.546 681.77 193.114 681.77C190.681 681.77 188.703 679.791 188.703 677.368C188.703 674.936 190.681 672.957 193.114 672.957C195.546 672.957 197.516 674.936 197.516 677.368Z" fill="#00DDB6"/>
<path d="M235.258 677.368C235.258 679.791 233.279 681.77 230.847 681.77C228.415 681.77 226.445 679.791 226.445 677.368C226.445 674.936 228.415 672.957 230.847 672.957C233.279 672.957 235.258 674.936 235.258 677.368Z" fill="#00DDB6"/>
<path d="M8.8125 715.093C8.8125 717.526 6.83419 719.495 4.40198 719.495C1.96978 719.495 0 717.526 0 715.093C0 712.67 1.96978 710.691 4.40198 710.691C6.83419 710.691 8.8125 712.67 8.8125 715.093Z" fill="#00DDB6"/>
<path d="M46.546 715.093C46.546 717.526 44.5764 719.495 42.1442 719.495C39.712 719.495 37.7422 717.526 37.7422 715.093C37.7422 712.67 39.712 710.691 42.1442 710.691C44.5764 710.691 46.546 712.67 46.546 715.093Z" fill="#00DDB6"/>
<path d="M84.2922 715.093C84.2922 717.526 82.3225 719.495 79.8903 719.495C77.4581 719.495 75.4883 717.526 75.4883 715.093C75.4883 712.67 77.4581 710.691 79.8903 710.691C82.3225 710.691 84.2922 712.67 84.2922 715.093Z" fill="#00DDB6"/>
<path d="M122.03 715.093C122.03 717.526 120.061 719.495 117.628 719.495C115.196 719.495 113.227 717.526 113.227 715.093C113.227 712.67 115.196 710.691 117.628 710.691C120.061 710.691 122.03 712.67 122.03 715.093Z" fill="#00DDB6"/>
<path d="M159.773 715.093C159.773 717.526 157.803 719.495 155.371 719.495C152.939 719.495 150.969 717.526 150.969 715.093C150.969 712.67 152.939 710.691 155.371 710.691C157.803 710.691 159.773 712.67 159.773 715.093Z" fill="#00DDB6"/>
<path d="M197.516 715.093C197.516 717.526 195.546 719.495 193.114 719.495C190.681 719.495 188.703 717.526 188.703 715.093C188.703 712.67 190.681 710.691 193.114 710.691C195.546 710.691 197.516 712.67 197.516 715.093Z" fill="#00DDB6"/>
<path d="M235.258 715.093C235.258 717.526 233.279 719.495 230.847 719.495C228.415 719.495 226.445 717.526 226.445 715.093C226.445 712.67 228.415 710.691 230.847 710.691C233.279 710.691 235.258 712.67 235.258 715.093Z" fill="#00DDB6"/>
<path d="M8.8125 752.598C8.8125 755.03 6.83419 757 4.40198 757C1.96978 757 0 755.03 0 752.598C0 750.166 1.96978 748.196 4.40198 748.196C6.83419 748.196 8.8125 750.166 8.8125 752.598Z" fill="#00DDB6"/>
<path d="M46.546 752.598C46.546 755.03 44.5764 757 42.1442 757C39.712 757 37.7422 755.03 37.7422 752.598C37.7422 750.166 39.712 748.196 42.1442 748.196C44.5764 748.196 46.546 750.166 46.546 752.598Z" fill="#00DDB6"/>
<path d="M84.2922 752.598C84.2922 755.03 82.3225 757 79.8903 757C77.4581 757 75.4883 755.03 75.4883 752.598C75.4883 750.166 77.4581 748.196 79.8903 748.196C82.3225 748.196 84.2922 750.166 84.2922 752.598Z" fill="#00DDB6"/>
<path d="M122.03 752.598C122.03 755.03 120.061 757 117.628 757C115.196 757 113.227 755.03 113.227 752.598C113.227 750.166 115.196 748.196 117.628 748.196C120.061 748.196 122.03 750.166 122.03 752.598Z" fill="#00DDB6"/>
<path d="M159.773 752.598C159.773 755.03 157.803 757 155.371 757C152.939 757 150.969 755.03 150.969 752.598C150.969 750.166 152.939 748.196 155.371 748.196C157.803 748.196 159.773 750.166 159.773 752.598Z" fill="#00DDB6"/>
<path d="M197.516 752.598C197.516 755.03 195.546 757 193.114 757C190.681 757 188.703 755.03 188.703 752.598C188.703 750.166 190.681 748.196 193.114 748.196C195.546 748.196 197.516 750.166 197.516 752.598Z" fill="#00DDB6"/>
<path d="M235.258 752.598C235.258 755.03 233.279 757 230.847 757C228.415 757 226.445 755.03 226.445 752.598C226.445 750.166 228.415 748.196 230.847 748.196C233.279 748.196 235.258 750.166 235.258 752.598Z" fill="#00DDB6"/>
</svg>
