<svg width="109" height="130" viewBox="0 0 109 130" fill="none" xmlns="http://www.w3.org/2000/svg">
<path d="M54.1978 75.7589C33.3154 75.7589 16.3184 58.7673 16.3184 37.8795C16.3184 16.9916 33.3154 0 54.1978 0C75.0802 0 92.0773 16.9916 92.0773 37.8795C92.0773 58.7673 75.0802 75.7589 54.1978 75.7589ZM54.1978 5.41135C36.2917 5.41135 21.7297 19.9787 21.7297 37.8795C21.7297 55.7802 36.2917 70.3476 54.1978 70.3476C72.104 70.3476 86.6659 55.7856 86.6659 37.8795C86.6659 19.9733 72.104 5.41135 54.1978 5.41135Z" fill="#00DDB6"/>
<path d="M65.9003 59.5242C65.4512 59.5242 65.0021 59.4106 64.5908 59.1887L54.1956 53.4419L43.8004 59.1887C42.8913 59.692 41.7765 59.627 40.9324 59.0318C40.0882 58.4365 39.6553 57.4084 39.823 56.3856L41.8361 44.0261L33.324 35.2976C32.6151 34.5725 32.3716 33.5118 32.6909 32.5486C33.0156 31.5854 33.8489 30.8873 34.85 30.7358L46.5061 28.9501L51.7497 17.7919C52.6371 15.8871 55.7541 15.8871 56.6415 17.7919L61.8851 28.9501L73.5412 30.7358C74.5477 30.8873 75.381 31.5908 75.7003 32.5486C76.0196 33.5118 75.7761 34.5725 75.0672 35.2976L66.5551 44.0261L68.5681 56.3856C68.7359 57.4084 68.303 58.4365 67.4588 59.0318C66.9934 59.3619 66.4523 59.5242 65.9003 59.5242V59.5242ZM54.1956 47.6463C54.6447 47.6463 55.0993 47.7599 55.5051 47.9818L62.3343 51.7589L60.9977 43.5499C60.8624 42.7003 61.1275 41.8399 61.7336 41.223L67.5238 35.2868L59.6448 34.08C58.752 33.9502 57.9835 33.3766 57.6047 32.5595L54.1956 25.3082L50.7864 32.5595C50.4076 33.3766 49.6392 33.9502 48.7464 34.0855L40.8674 35.2868L46.6576 41.223C47.2582 41.8345 47.5288 42.7003 47.3935 43.5499L46.0569 51.7589L52.886 47.9818C53.2919 47.7599 53.7465 47.6463 54.1956 47.6463V47.6463Z" fill="#00DDB6"/>
<path d="M30.7915 129.873C30.759 129.873 30.7319 129.873 30.6995 129.873C29.6984 129.841 28.8001 129.262 28.3618 128.363L20.5586 112.508L2.87973 113.634C1.87322 113.661 0.937055 113.206 0.406743 112.362C-0.12357 111.518 -0.134392 110.446 0.368863 109.581L27.6421 62.307C28.3834 61.0137 30.0339 60.57 31.338 61.3167C32.6313 62.0635 33.0751 63.7194 32.3283 65.0127L7.58219 107.914L22.0197 106.994C23.1019 106.94 24.1409 107.519 24.6171 108.498L30.9809 121.431L51.663 85.6624C52.4206 84.3691 54.0765 83.9362 55.359 84.6721C56.6523 85.4243 57.096 87.0747 56.3493 88.3735L33.1346 128.526C32.653 129.359 31.7547 129.873 30.7915 129.873V129.873Z" fill="#00DDB6"/>
<path d="M77.2186 129.874C76.2554 129.874 75.3571 129.36 74.8755 128.521L43.2569 73.5255C42.5156 72.2267 42.9756 70.5763 44.2743 69.8349C45.5514 69.1044 47.2235 69.5535 47.9594 70.8523L56.3578 85.674L77.0346 121.438L83.4579 108.477C83.9449 107.503 85.0001 106.924 86.0553 106.978L100.493 107.898L75.8224 65.1325C75.0757 63.8392 75.5194 62.1833 76.8181 61.4365C78.1114 60.6843 79.7673 61.1281 80.5195 62.4268L107.706 109.57C108.204 110.436 108.188 111.502 107.657 112.352C107.127 113.201 106.191 113.661 105.184 113.624L87.5001 112.493L79.6429 128.359C79.1991 129.252 78.3008 129.825 77.2997 129.858C77.2781 129.874 77.2456 129.874 77.2186 129.874V129.874Z" fill="#00DDB6"/>
</svg>
