<svg width="281" height="280" viewBox="0 0 281 280" fill="none" xmlns="http://www.w3.org/2000/svg">
<path d="M20.5383 203.027C48.0466 237.68 70.286 225.8 102.504 246.111C120.864 257.68 133.559 281.79 159.383 279.894C178.806 278.465 196.467 263.64 205.174 246.841C209.24 238.993 208.681 227.16 213.112 219.895C222.261 204.907 237.361 201.247 251.817 191.628C268.478 180.533 282.018 166.29 280.94 142.911C279.892 120.106 261.851 103.944 255.519 82.7015C248.892 60.4639 256.015 43.0282 233.559 27.4418C215.696 15.0487 195.629 22.368 177.06 17.8071C129.594 6.15994 103.661 -20.2423 67.9891 27.6749C53.0671 47.7213 46.3239 73.0901 30.2923 91.2484C1.79851 123.548 -15.9558 157.052 20.5383 203.027Z" fill="url(#paint0_linear)"/>
<path d="M88.8965 137.971V40.4558L209.319 75.6838L212.891 176.262L88.8965 137.971Z" fill="white" stroke="black" stroke-width="1.02246"/>
<path d="M209.828 76.1946C214.421 97.9781 221.666 148.386 213.91 175.752L209.828 76.1946Z" fill="black" stroke="black" stroke-width="1.02246"/>
<path d="M103.182 77.2155V61.3884L198.092 88.9582V104.785L103.182 77.2155Z" fill="#F2FDFB"/>
<path d="M102.162 100.701V82.321L198.092 110.912V127.25L102.162 100.701Z" fill="#F2FDFB"/>
<path d="M167.986 135.418V123.676L198.092 130.823V143.077L167.986 135.418Z" fill="#F2FDFB"/>
<path d="M132.778 160.946C138.085 159.312 140.432 156.521 140.942 155.33L141.963 152.777L169.007 160.946C169.007 163.328 169.925 169.217 173.599 173.71C177.273 178.203 172.068 183.41 169.007 185.452L124.103 169.625C124.784 167.413 127.471 162.58 132.778 160.946Z" fill="#F2FDFB"/>
<path d="M92.9772 169.625L66.4434 189.537L146.045 220.17L170.538 197.195L92.9772 169.625Z" fill="#F2FDFB"/>
<path d="M185.846 206.895L175.13 220.17C174.62 220.802 174.62 223.744 180.233 226.807C184.723 229.258 188.567 227.147 189.928 225.786C191.629 223.914 195.847 219.455 199.112 216.596C203.195 213.022 199.623 209.448 195.03 206.895C191.356 204.853 187.376 206.045 185.846 206.895Z" fill="#F2FDFB"/>
<path d="M92.9772 181.368L99.1004 183.921L104.713 179.836M91.4464 192.089L98.0798 194.642L102.672 188.516M108.795 186.984L114.408 189.537L119.001 185.452M110.836 197.195L115.429 199.237L119.001 194.642M127.165 194.642L132.778 197.195L137.881 192.089M129.206 204.853L132.778 206.895L137.881 201.79M145.024 200.769L150.637 203.832L155.74 199.237M103.182 61.3884V77.2155L198.092 104.785V88.9582L103.182 61.3884ZM102.162 82.321V100.701L198.092 127.25V110.912L102.162 82.321ZM167.986 123.676V135.418L198.092 143.077V130.823L167.986 123.676ZM140.942 155.33C140.432 156.521 138.085 159.312 132.778 160.946C127.471 162.58 124.784 167.413 124.103 169.625L169.007 185.452C172.068 183.41 177.273 178.203 173.599 173.71C169.925 169.217 169.007 163.328 169.007 160.946L141.963 152.777L140.942 155.33ZM66.4434 189.537L92.9772 169.625L170.538 197.195L146.045 220.17L66.4434 189.537ZM175.13 220.17L185.846 206.895C187.376 206.045 191.356 204.853 195.03 206.895C199.623 209.448 203.195 213.022 199.112 216.596C195.847 219.455 191.629 223.914 189.928 225.786C188.567 227.147 184.723 229.258 180.233 226.807C174.62 223.744 174.62 220.802 175.13 220.17Z" stroke="black" stroke-width="1.02246"/>
<path d="M197.577 130.823L168.492 123.676V135.418L197.577 143.077V130.823Z" fill="#00DDB6"/>
<path d="M129.205 162.478C136.961 162.069 140.942 155.841 141.962 152.777L169.517 160.946C170.027 163.329 171.762 169.217 174.619 173.71C177.477 178.203 172.408 183.41 169.517 185.453L124.613 170.136C122.98 168.911 126.994 164.52 129.205 162.478Z" fill="#00DDB6" stroke="black" stroke-width="1.02246"/>
<defs>
<linearGradient id="paint0_linear" x1="64.8398" y1="25.7376" x2="222.314" y2="246.005" gradientUnits="userSpaceOnUse">
<stop stop-color="#C9FDBC"/>
<stop offset="1" stop-color="#95FFEC"/>
</linearGradient>
</defs>
</svg>
