<svg width="281" height="279" viewBox="0 0 281 279" fill="none" xmlns="http://www.w3.org/2000/svg">
<path d="M20.5383 202.301C48.0466 236.832 70.286 224.994 102.504 245.232C120.864 256.76 133.559 280.784 159.383 278.895C178.806 277.47 196.467 262.698 205.174 245.96C209.24 238.14 208.681 226.349 213.112 219.11C222.261 204.175 237.361 200.528 251.817 190.944C268.478 179.888 282.018 165.696 280.94 142.4C279.892 119.677 261.851 103.573 255.519 82.4061C248.892 60.248 256.015 42.8746 233.559 27.3438C215.696 14.995 195.629 22.2881 177.06 17.7435C129.594 6.13794 103.661 -20.17 67.9891 27.576C53.0671 47.5508 46.3239 72.829 30.2923 90.9225C1.79851 123.107 -15.9558 156.491 20.5383 202.301Z" fill="url(#paint0_linear)"/>
<path d="M71.9805 126.965C71.9805 125.441 73.22 124.205 74.7489 124.205H96.8967C98.4257 124.205 99.6652 125.441 99.6652 126.965V179.408H71.9805V126.965Z" fill="#F2FDFB"/>
<path d="M113.508 71.7631C113.508 70.2387 114.747 69.0029 116.276 69.0029H138.424C139.953 69.0029 141.193 70.2387 141.193 71.7631V179.408H113.508V71.7631Z" fill="#F2FDFB"/>
<path d="M155.033 104.884C155.033 103.36 156.273 102.124 157.802 102.124H179.949C181.478 102.124 182.718 103.36 182.718 104.884V179.408H155.033V104.884Z" fill="#F2FDFB"/>
<path fill-rule="evenodd" clip-rule="evenodd" d="M98.2803 175.268C98.2803 176.792 97.0408 178.028 95.5118 178.028H67.8271C66.2981 178.028 65.0586 176.792 65.0586 175.268V120.065C65.0586 117.016 67.5376 114.545 70.5955 114.545H92.7433C95.8013 114.545 98.2803 117.016 98.2803 120.065V175.268ZM70.5955 117.305C69.0666 117.305 67.8271 118.541 67.8271 120.065V175.268H95.5118V120.065C95.5118 118.541 94.2723 117.305 92.7433 117.305H70.5955Z" fill="black"/>
<path fill-rule="evenodd" clip-rule="evenodd" d="M73.3633 146.286C73.3633 145.524 73.983 144.906 74.7475 144.906H88.5899C89.3544 144.906 89.9741 145.524 89.9741 146.286C89.9741 147.049 89.3544 147.666 88.5899 147.666H74.7475C73.983 147.666 73.3633 147.049 73.3633 146.286Z" fill="black"/>
<path fill-rule="evenodd" clip-rule="evenodd" d="M73.3633 157.327C73.3633 156.564 73.983 155.947 74.7475 155.947H88.5899C89.3544 155.947 89.9741 156.564 89.9741 157.327C89.9741 158.089 89.3544 158.707 88.5899 158.707H74.7475C73.983 158.707 73.3633 158.089 73.3633 157.327Z" fill="black"/>
<path fill-rule="evenodd" clip-rule="evenodd" d="M73.3633 168.367C73.3633 167.605 73.983 166.987 74.7475 166.987H88.5899C89.3544 166.987 89.9741 167.605 89.9741 168.367C89.9741 169.129 89.3544 169.747 88.5899 169.747H74.7475C73.983 169.747 73.3633 169.129 73.3633 168.367Z" fill="black"/>
<path fill-rule="evenodd" clip-rule="evenodd" d="M139.808 175.268C139.808 176.792 138.568 178.028 137.039 178.028H109.354C107.825 178.028 106.586 176.792 106.586 175.268V75.9031C106.586 72.8543 109.065 70.3828 112.123 70.3828H134.271C137.329 70.3828 139.808 72.8543 139.808 75.9031V175.268ZM112.123 73.1429C110.594 73.1429 109.354 74.3787 109.354 75.9031V175.268H137.039V75.9031C137.039 74.3787 135.8 73.1429 134.271 73.1429H112.123Z" fill="black"/>
<path fill-rule="evenodd" clip-rule="evenodd" d="M181.335 175.268C181.335 176.792 180.095 178.028 178.566 178.028H150.882C149.353 178.028 148.113 176.792 148.113 175.268V97.9841C148.113 94.9354 150.592 92.4639 153.65 92.4639H175.798C178.856 92.4639 181.335 94.9354 181.335 97.9841V175.268ZM153.65 95.224C152.121 95.224 150.882 96.4597 150.882 97.9841V175.268H178.566V97.9841C178.566 96.4597 177.327 95.224 175.798 95.224H153.65Z" fill="black"/>
<path fill-rule="evenodd" clip-rule="evenodd" d="M114.891 124.205C114.891 123.443 115.51 122.825 116.275 122.825H130.117C130.882 122.825 131.501 123.443 131.501 124.205C131.501 124.967 130.882 125.585 130.117 125.585H116.275C115.51 125.585 114.891 124.967 114.891 124.205Z" fill="black"/>
<path fill-rule="evenodd" clip-rule="evenodd" d="M156.418 135.246C156.418 134.483 157.038 133.865 157.802 133.865H171.645C172.409 133.865 173.029 134.483 173.029 135.246C173.029 136.008 172.409 136.626 171.645 136.626H157.802C157.038 136.626 156.418 136.008 156.418 135.246Z" fill="black"/>
<path fill-rule="evenodd" clip-rule="evenodd" d="M156.418 146.286C156.418 145.524 157.038 144.906 157.802 144.906H171.645C172.409 144.906 173.029 145.524 173.029 146.286C173.029 147.049 172.409 147.666 171.645 147.666H157.802C157.038 147.666 156.418 147.049 156.418 146.286Z" fill="black"/>
<path fill-rule="evenodd" clip-rule="evenodd" d="M156.418 157.327C156.418 156.564 157.038 155.947 157.802 155.947H171.645C172.409 155.947 173.029 156.564 173.029 157.327C173.029 158.089 172.409 158.707 171.645 158.707H157.802C157.038 158.707 156.418 158.089 156.418 157.327Z" fill="black"/>
<path fill-rule="evenodd" clip-rule="evenodd" d="M156.418 168.367C156.418 167.605 157.038 166.987 157.802 166.987H171.645C172.409 166.987 173.029 167.605 173.029 168.367C173.029 169.129 172.409 169.747 171.645 169.747H157.802C157.038 169.747 156.418 169.129 156.418 168.367Z" fill="black"/>
<path fill-rule="evenodd" clip-rule="evenodd" d="M114.891 135.246C114.891 134.483 115.51 133.865 116.275 133.865H130.117C130.882 133.865 131.501 134.483 131.501 135.246C131.501 136.008 130.882 136.626 130.117 136.626H116.275C115.51 136.626 114.891 136.008 114.891 135.246Z" fill="black"/>
<path fill-rule="evenodd" clip-rule="evenodd" d="M114.891 146.286C114.891 145.524 115.51 144.906 116.275 144.906H130.117C130.882 144.906 131.501 145.524 131.501 146.286C131.501 147.049 130.882 147.666 130.117 147.666H116.275C115.51 147.666 114.891 147.049 114.891 146.286Z" fill="black"/>
<path fill-rule="evenodd" clip-rule="evenodd" d="M114.891 157.327C114.891 156.564 115.51 155.947 116.275 155.947H130.117C130.882 155.947 131.501 156.564 131.501 157.327C131.501 158.089 130.882 158.707 130.117 158.707H116.275C115.51 158.707 114.891 158.089 114.891 157.327Z" fill="black"/>
<path fill-rule="evenodd" clip-rule="evenodd" d="M114.891 168.367C114.891 167.605 115.51 166.987 116.275 166.987H130.117C130.882 166.987 131.501 167.605 131.501 168.367C131.501 169.129 130.882 169.747 130.117 169.747H116.275C115.51 169.747 114.891 169.129 114.891 168.367Z" fill="black"/>
<ellipse cx="218.017" cy="158.017" rx="14.5345" ry="14.4907" fill="#00DDB6"/>
<defs>
<linearGradient id="paint0_linear" x1="64.8398" y1="25.6456" x2="221.57" y2="245.657" gradientUnits="userSpaceOnUse">
<stop stop-color="#00DDB6" stop-opacity="0.6"/>
<stop offset="1" stop-color="#CAFFF2"/>
</linearGradient>
</defs>
</svg>
