<svg width="300" height="301" viewBox="0 0 300 301" fill="none" xmlns="http://www.w3.org/2000/svg">
<rect width="300" height="300.737" fill="#00DDB6"/>
<path d="M116.596 244.908C86.382 244.908 64.5044 239.25 63.4299 229.848C62.0011 217.351 97.8969 202.971 143.619 197.725C154.955 196.424 165.829 195.811 175.799 195.811C206.029 195.811 227.914 201.469 228.988 210.867C230.427 223.375 194.522 237.751 148.803 242.99C137.456 244.294 126.572 244.911 116.596 244.908Z" fill="#02B999"/>
<path d="M208.01 95.5282L228.612 98.9971Z" fill="#253B4C"/>
<path d="M228.362 100.514L207.76 97.0453L208.261 94.0129L228.864 97.4808L228.362 100.514Z" fill="#253B4C"/>
<path d="M222.522 122.947L221.605 121.587L227.176 117.829C228.187 117.159 228.891 116.106 229.135 114.918L231.128 105.307C231.401 104.052 231.128 102.769 230.407 101.699C229.669 100.636 228.56 99.9563 227.287 99.7466L225.388 99.4441L225.638 97.8404L227.549 98.1438C229.257 98.4115 230.755 99.3459 231.742 100.776C232.726 102.204 233.085 103.93 232.726 105.649L230.721 115.252C230.39 116.846 229.431 118.275 228.089 119.182L222.522 122.947" fill="#253B4C"/>
<path d="M85.8001 74.5509C103.659 64.6085 123.379 58.6899 143.465 56.7757C163.538 54.7606 184.025 56.748 203.477 63.0467C220.761 68.6457 223.33 82.3069 223.463 89.2901C222.173 82.0392 217.752 72.4242 203.958 67.955C184.507 61.6635 164.02 59.6761 143.946 61.6911C123.861 63.6045 104.147 69.5141 86.2775 79.4699C73.6096 86.5182 71.1412 96.8087 71.2813 104.168C70.0542 97.2968 69.9213 83.3876 85.8001 74.5509" fill="#55748A"/>
<path d="M86.2751 79.471C104.145 69.5151 123.858 63.6056 143.944 61.6922C164.017 59.6771 184.504 61.6645 203.956 67.9561C217.75 72.4253 222.171 82.0402 223.46 89.2911V89.9078C215.139 92.4458 202.359 93.5373 183.849 88.5415L182.754 86.1882C180.07 79.0417 173.202 74.2316 165.568 74.3877C158.806 74.5207 152.043 74.9393 145.304 75.6148C138.558 76.2529 131.848 77.1596 125.183 78.334C117.66 79.6628 111.855 85.7072 110.611 93.2472L108.655 101.167C107.516 104.549 103.873 107.564 100.515 107.889L79.4356 113.431C76.089 113.763 72.8995 111.461 72.3239 108.29C72.3239 108.29 71.7252 106.703 71.2789 104.17C71.1388 96.8098 73.6072 86.5193 86.2751 79.471" fill="#4D627A"/>
<path d="M223.465 89.9086C223.465 92.1253 223.228 93.538 223.228 93.538C223.284 96.7516 220.607 99.6279 217.253 99.959L195.49 98.6061C192.143 98.93 187.988 96.682 186.21 93.5862L183.854 88.5423C202.364 93.538 215.144 92.4466 223.465 89.9086" fill="#253B4C"/>
<path d="M71.3242 104.786C71.7597 106.958 72.2657 108.299 72.2657 108.299C72.8404 111.461 76.0237 113.769 79.3774 113.438L100.461 107.895C103.807 107.564 107.45 104.559 108.601 101.167L109.921 95.774C92.7351 104.252 79.9869 105.658 71.3242 104.786Z" fill="#253B4C"/>
<path d="M232.826 128.568C232.24 126.564 230.323 126.435 227.918 126.481C230.002 125.448 231.595 124.559 230.88 122.576C230.194 120.676 228.388 120.578 226.122 120.735C224.326 121.276 223.159 121.509 221.381 122.095C222.124 123.81 223.316 124.082 225.676 123.953C223.64 125.047 222.131 125.982 222.73 127.777C223.333 129.59 225.18 129.614 227.603 129.625C225.471 130.601 223.88 131.444 224.368 133.267C224.843 135.08 226.669 135.22 229.079 135.359C226.889 136.196 225.268 136.934 225.627 138.758C225.972 140.577 227.813 140.815 230.2 141.087C227.963 141.802 226.279 142.435 226.523 144.259C226.749 146.072 228.563 146.41 230.944 146.828C228.66 147.393 226.931 147.916 227.064 149.728C227.179 151.545 228.973 151.981 231.323 152.538C228.998 152.963 227.238 153.382 227.255 155.177C227.255 156.973 229.009 157.513 231.31 158.193C228.98 158.478 227.203 158.796 227.098 160.563C226.994 162.33 228.702 162.968 230.95 163.781C229.19 163.885 227.744 164.039 227.064 164.844L226.987 165.025L226.628 165.844V165.862L226.621 165.897C226.408 167.577 227.976 168.326 230.072 169.226C227.83 169.236 226.133 169.365 225.826 171.021L225.836 171.091L225.802 171.16L225.844 171.171C225.652 172.764 227.203 173.594 229.27 174.622C226.924 174.483 225.129 174.455 224.721 176.135C224.292 177.801 225.85 178.718 227.918 179.893C225.599 179.614 223.811 179.482 223.309 181.113C222.775 182.744 224.299 183.752 226.296 185.052C223.989 184.634 222.201 184.39 221.59 185.983C220.974 187.562 222.427 188.66 224.344 190.079C222.061 189.514 220.294 189.166 219.586 190.7C218.871 192.24 220.266 193.426 222.103 194.963C219.858 194.255 218.104 193.785 217.302 195.273C216.501 196.758 217.808 198.013 219.54 199.659C217.344 198.805 215.636 198.24 214.758 199.666C213.851 201.105 215.106 202.447 216.744 204.197C214.59 203.214 212.904 202.524 211.927 203.901C210.94 205.271 212.119 206.7 213.642 208.565L213.451 208.471C214.844 209.622 216.229 210.786 217.599 211.971L217.64 211.947C218.791 210.441 217.662 208.897 216.093 207.073C218.209 208.14 219.9 208.907 220.963 207.328C222.02 205.759 220.806 204.312 219.143 202.604C221.305 203.528 223.02 204.163 223.978 202.542C224.926 200.914 223.64 199.537 221.862 197.933C224.072 198.717 225.836 199.251 226.698 197.567C227.544 195.869 226.168 194.569 224.299 193.08C226.557 193.722 228.342 194.151 229.103 192.408C229.852 190.658 228.399 189.445 226.443 188.068C228.737 188.573 230.539 188.88 231.194 187.084C231.833 185.296 230.312 184.17 228.301 182.919C230.602 183.274 232.414 183.477 232.954 181.636C233.477 179.799 231.891 178.76 229.8 177.627C232.129 177.843 233.956 177.934 234.384 176.051C234.774 174.256 233.279 173.304 231.253 172.346C233.442 172.405 235.151 172.311 235.447 170.474V170.411L235.465 170.366C235.761 168.487 234.123 167.633 231.972 166.768C233.669 166.716 235.092 166.604 235.772 165.75L235.953 165.269L236.207 164.614V164.607H236.196C236.378 162.655 234.628 161.905 232.356 161.139C234.691 160.94 236.511 160.685 236.591 158.709C236.65 156.728 234.854 156.077 232.537 155.449C234.854 155.09 236.661 154.735 236.604 152.736C236.545 150.732 234.704 150.181 232.356 149.68C234.645 149.192 236.423 148.721 236.249 146.706C236.057 144.695 234.192 144.249 231.804 143.883C234.064 143.255 235.807 142.669 235.5 140.658C235.179 138.643 233.303 138.305 230.905 138.079C233.111 137.311 234.803 136.625 234.366 134.62C233.914 132.595 232.007 132.368 229.591 132.274C231.745 131.378 233.398 130.583 232.826 128.568Z" fill="#253B4C"/>
<path d="M196.744 207.571L217.347 211.04Z" fill="#253B4C"/>
<path d="M217.095 212.556L196.492 209.088L196.997 206.055L217.6 209.523L217.095 212.556Z" fill="#253B4C"/>
<path d="M118.936 123.767L126.402 110.909C126.821 110.205 127.622 109.815 128.431 109.927L136 110.973C136.947 111.112 137.68 111.889 137.742 112.844L138.732 127.287L118.936 123.767Z" fill="#253B4C"/>
<path d="M194.877 134.313L191.193 119.916C190.994 119.115 190.322 118.522 189.513 118.411L181.944 117.354C180.997 117.225 180.079 117.773 179.759 118.678L174.871 132.309L194.877 134.313Z" fill="#253B4C"/>
<path d="M106.094 202.577L97.2849 201.35C95.7687 201.14 94.3738 202.193 94.165 203.713L93.2307 210.441C93.0254 211.958 94.0776 213.348 95.5875 213.561L104.407 214.788C105.924 214.997 107.314 213.934 107.527 212.425L108.458 205.697C108.667 204.184 107.61 202.786 106.094 202.577Z" fill="#253B4C"/>
<path d="M194.073 214.785L185.261 213.565C183.748 213.356 182.35 214.412 182.141 215.918L181.21 222.653C181.001 224.163 182.053 225.557 183.563 225.766L192.383 226.993C193.899 227.206 195.293 226.15 195.503 224.644L196.437 217.905C196.643 216.389 195.59 214.994 194.073 214.785Z" fill="#253B4C"/>
<path d="M194.8 133.8C183.976 131.07 173.071 128.874 162.097 127.19C158.89 126.705 155.676 126.259 152.452 125.851C141.447 124.481 130.351 123.627 119.185 123.296C106.97 143.045 95.7863 162.224 89.1289 180.781C107.053 184.239 125.051 187.275 143.099 189.862C146.619 190.367 150.134 190.855 153.665 191.326C171.74 193.756 189.874 195.746 208.071 197.294C206.711 177.626 201.176 156.118 194.8 133.8" fill="#4D627A"/>
<path d="M208.073 197.293C189.875 195.745 171.741 193.754 153.666 191.325C150.135 190.854 146.621 190.366 143.1 189.86C125.053 187.274 107.055 184.237 89.1303 180.779C87.9443 189.278 87.5329 197.809 87.997 206.377L89.2 207.89C125.517 219.004 162.649 224.163 200.612 223.361L202.192 222.228C204.96 214.116 206.894 205.798 208.073 197.293" fill="#394759"/>
<path d="M180.08 164.443C178.337 176.999 164.724 185.481 149.675 183.396C134.633 181.304 123.844 169.434 125.587 156.874C127.33 144.329 140.943 135.84 155.985 137.932C171.038 140.013 181.816 151.889 180.08 164.443Z" fill="#2E3647"/>
<path d="M179.626 163.299C177.9 175.709 164.444 184.093 149.566 182.03C134.691 179.962 124.034 168.232 125.757 155.821C127.482 143.402 140.938 135.021 155.805 137.084C170.684 139.152 181.351 150.889 179.626 163.299" fill="white"/>
<path d="M166.271 161.442C165.399 167.699 158.612 171.928 151.113 170.882C143.612 169.843 138.244 163.928 139.104 157.67C139.98 151.413 146.76 147.188 154.262 148.234C161.756 149.269 167.136 155.189 166.271 161.442Z" fill="#253B4C"/>
<path d="M155.025 177.283C154.739 179.385 152.446 180.814 149.925 180.466C147.398 180.107 145.596 178.123 145.881 176.011C146.178 173.902 148.465 172.483 150.982 172.831C153.509 173.18 155.321 175.177 155.025 177.283Z" fill="#2E3647"/>
<path d="M150.883 143.446C151.092 145.632 149.147 147.461 146.543 147.525C143.946 147.594 141.663 145.868 141.46 143.672C141.255 141.476 143.196 139.653 145.8 139.583C148.408 139.524 150.681 141.249 150.883 143.446Z" fill="#2E3647"/>
<path d="M160.561 140.912C162.221 142.68 161.914 145.172 159.891 146.472C157.87 147.78 154.879 147.393 153.233 145.626C151.578 143.854 151.885 141.372 153.902 140.065C155.935 138.765 158.916 139.141 160.561 140.912Z" fill="#2E3647"/>
<path d="M140.845 145.891C142.502 147.673 142.195 150.166 140.173 151.462C138.14 152.77 135.153 152.386 133.508 150.614C131.848 148.847 132.155 146.355 134.177 145.058C136.206 143.747 139.186 144.135 140.845 145.891" fill="#2E3647"/>
<path d="M134.963 169.463C132.453 170 129.803 168.703 129.048 166.57C128.287 164.433 129.699 162.261 132.209 161.732C134.719 161.202 137.369 162.498 138.129 164.635C138.885 166.769 137.473 168.93 134.963 169.463" fill="#2E3647"/>
<path d="M168.296 151.412C166.017 152.336 163.172 151.492 161.956 149.512C160.742 147.542 161.614 145.196 163.898 144.273C166.191 143.352 169.033 144.196 170.242 146.165C171.451 148.135 170.591 150.478 168.296 151.412" fill="#2E3647"/>
<path d="M130.874 160.075C128.416 159.343 127.039 157.102 127.795 155.079C128.545 153.051 131.142 151.994 133.599 152.737C136.057 153.47 137.434 155.71 136.678 157.729C135.929 159.762 133.332 160.814 130.874 160.075Z" fill="#2E3647"/>
<path d="M171.939 159.541C169.398 159.221 167.546 157.227 167.808 155.1C168.08 152.97 170.357 151.516 172.898 151.847C175.442 152.172 177.29 154.166 177.028 156.293C176.767 158.419 174.488 159.876 171.939 159.541Z" fill="#2E3647"/>
<path d="M143.765 175.289C142.144 176.864 139.25 176.979 137.281 175.55C135.318 174.114 135.033 171.663 136.653 170.088C138.268 168.498 141.168 168.386 143.127 169.826C145.089 171.262 145.379 173.703 143.765 175.289" fill="#2E3647"/>
<path d="M176.575 166.445C175.337 168.317 172.468 168.917 170.178 167.788C167.877 166.651 167.023 164.214 168.26 162.339C169.498 160.467 172.367 159.864 174.657 160.997C176.958 162.13 177.812 164.57 176.575 166.445Z" fill="#2E3647"/>
<path d="M155.006 177.581C154.717 179.621 152.502 181.008 150.055 180.667C147.616 180.328 145.862 178.394 146.14 176.354C146.43 174.315 148.633 172.928 151.08 173.269C153.531 173.607 155.281 175.542 155.006 177.581Z" fill="#253B4C"/>
<path d="M150.829 143.683C151.028 145.747 149.191 147.473 146.73 147.531C144.283 147.595 142.132 145.967 141.94 143.899C141.745 141.836 143.579 140.099 146.036 140.048C148.494 139.984 150.634 141.616 150.829 143.683Z" fill="#253B4C"/>
<path d="M160.528 141.233C162.079 142.896 161.801 145.242 159.89 146.473C157.984 147.7 155.167 147.344 153.609 145.677C152.058 144.011 152.336 141.658 154.254 140.431C156.161 139.2 158.97 139.56 160.528 141.233" fill="#253B4C"/>
<path d="M140.713 146.298C142.264 147.96 141.985 150.306 140.075 151.534C138.167 152.764 135.351 152.405 133.793 150.738C132.242 149.065 132.52 146.723 134.431 145.492C136.338 144.272 139.154 144.624 140.713 146.298Z" fill="#253B4C"/>
<path d="M135.054 169.453C132.701 169.959 130.209 168.739 129.494 166.724C128.779 164.719 130.111 162.68 132.467 162.185C134.827 161.679 137.313 162.9 138.024 164.911C138.738 166.915 137.418 168.955 135.054 169.453Z" fill="#253B4C"/>
<path d="M168.401 151.523C166.232 152.405 163.531 151.593 162.37 149.721C161.22 147.849 162.039 145.618 164.217 144.736C166.396 143.854 169.098 144.666 170.248 146.538C171.409 148.414 170.579 150.645 168.401 151.523Z" fill="#253B4C"/>
<path d="M131.043 160.177C128.69 159.47 127.366 157.319 128.08 155.374C128.802 153.433 131.305 152.421 133.658 153.129C136.011 153.833 137.336 155.977 136.61 157.929C135.889 159.874 133.397 160.875 131.043 160.177" fill="#253B4C"/>
<path d="M172.08 159.491C169.622 159.174 167.844 157.26 168.098 155.221C168.36 153.171 170.545 151.767 173.003 152.08C175.443 152.397 177.228 154.311 176.966 156.361C176.716 158.4 174.53 159.801 172.08 159.491Z" fill="#253B4C"/>
<path d="M143.877 175.482C142.308 177.009 139.502 177.127 137.591 175.736C135.692 174.338 135.417 171.968 136.986 170.434C138.544 168.911 141.36 168.788 143.26 170.183C145.167 171.577 145.435 173.948 143.877 175.482Z" fill="#253B4C"/>
<path d="M176.466 166.46C175.298 168.241 172.589 168.806 170.417 167.732C168.249 166.662 167.436 164.351 168.615 162.584C169.779 160.812 172.485 160.247 174.653 161.322C176.825 162.392 177.633 164.692 176.466 166.46Z" fill="#253B4C"/>
<path d="M156.618 161.496C155.45 163.264 152.748 163.839 150.569 162.769C148.407 161.695 147.595 159.388 148.767 157.616C149.931 155.849 152.637 155.281 154.804 156.351C156.976 157.418 157.785 159.725 156.618 161.496Z" fill="#30506A"/>
<path d="M171.043 179.891L164.497 172.971L163.643 173.365L164.601 182.68L165.287 183.081L170.876 180.693L171.043 179.891" fill="#30506A"/>
</svg>
