<svg width="54" height="54" viewBox="0 0 54 54" fill="none" xmlns="http://www.w3.org/2000/svg">
<circle cx="27" cy="27" r="27" fill="#00DDB6"/>
<path d="M22.32 23.112C22.4 21.512 22.96 20.28 24 19.416C25.056 18.536 26.44 18.096 28.152 18.096C29.32 18.096 30.32 18.304 31.152 18.72C31.984 19.12 32.608 19.672 33.024 20.376C33.456 21.064 33.672 21.848 33.672 22.728C33.672 23.736 33.408 24.592 32.88 25.296C32.368 25.984 31.752 26.448 31.032 26.688V26.784C31.96 27.072 32.68 27.584 33.192 28.32C33.72 29.056 33.984 30 33.984 31.152C33.984 32.112 33.76 32.968 33.312 33.72C32.88 34.472 32.232 35.064 31.368 35.496C30.52 35.912 29.496 36.12 28.296 36.12C26.488 36.12 25.016 35.664 23.88 34.752C22.744 33.84 22.144 32.496 22.08 30.72H25.344C25.376 31.504 25.64 32.136 26.136 32.616C26.648 33.08 27.344 33.312 28.224 33.312C29.04 33.312 29.664 33.088 30.096 32.64C30.544 32.176 30.768 31.584 30.768 30.864C30.768 29.904 30.464 29.216 29.856 28.8C29.248 28.384 28.304 28.176 27.024 28.176H26.328V25.416H27.024C29.296 25.416 30.432 24.656 30.432 23.136C30.432 22.448 30.224 21.912 29.808 21.528C29.408 21.144 28.824 20.952 28.056 20.952C27.304 20.952 26.72 21.16 26.304 21.576C25.904 21.976 25.672 22.488 25.608 23.112H22.32Z" fill="white"/>
</svg>
