<svg width="54" height="54" viewBox="0 0 54 54" fill="none" xmlns="http://www.w3.org/2000/svg">
<circle cx="27" cy="27" r="27" fill="#00DDB6"/>
<path d="M23.328 31.208C24.864 29.928 26.088 28.864 27 28.016C27.912 27.152 28.672 26.256 29.28 25.328C29.888 24.4 30.192 23.488 30.192 22.592C30.192 21.776 30 21.136 29.616 20.672C29.232 20.208 28.64 19.976 27.84 19.976C27.04 19.976 26.424 20.248 25.992 20.792C25.56 21.32 25.336 22.048 25.32 22.976H22.056C22.12 21.056 22.688 19.6 23.76 18.608C24.848 17.616 26.224 17.12 27.888 17.12C29.712 17.12 31.112 17.608 32.088 18.584C33.064 19.544 33.552 20.816 33.552 22.4C33.552 23.648 33.216 24.84 32.544 25.976C31.872 27.112 31.104 28.104 30.24 28.952C29.376 29.784 28.248 30.792 26.856 31.976H33.936V34.76H22.08V32.264L23.328 31.208Z" fill="white"/>
</svg>
